<?xml version="1.0" encoding="UTF-8"?>
<!DOCTYPE svg PUBLIC "-//W3C//DTD SVG 1.1//EN" "http://www.w3.org/Graphics/SVG/1.1/DTD/svg11.dtd">
<!-- Creator: CorelDRAW 2020 (64-Bit) -->
<svg xmlns="http://www.w3.org/2000/svg" xml:space="preserve" width="10in" height="10in" version="1.1" style="shape-rendering:geometricPrecision; text-rendering:geometricPrecision; image-rendering:optimizeQuality; fill-rule:evenodd; clip-rule:evenodd"
viewBox="0 0 10000 10000"
 xmlns:xlink="http://www.w3.org/1999/xlink"
 xmlns:xodm="http://www.corel.com/coreldraw/odm/2003">
 <defs>
  <style type="text/css">
   <![CDATA[
    .fil0 {fill:#D77233}
    .fil2 {fill:#9A2F2E}
    .fil1 {fill:#FEFEFE;fill-rule:nonzero}
    .fil3 {fill:#9A2F2E;fill-rule:nonzero}
   ]]>
  </style>
 </defs>
 <g id="Layer_x0020_1">
  <metadata id="CorelCorpID_0Corel-Layer"/>
  <path class="fil0" d="M172.95 152.88l9656.52 0 0 9666.36 -9666.36 0 0 -9666.36 9.84 0zm9636.83 19.69l-9626.99 0 0 9626.99 9626.99 0 0 -9626.99z"/>
  <g id="_2382819014928">
   <path class="fil0" d="M172.95 8840.05l4302.27 0c121.46,0 220.83,99.37 220.83,220.83l0 0c0,121.46 -99.37,220.83 -220.83,220.83l-4302.27 0 0 -441.67z"/>
   <polygon class="fil1" points="874.28,9076.09 832.31,9076.09 824.8,9118.59 802.25,9118.59 809.77,9076.09 767.8,9076.09 771.56,9054.83 813.52,9054.83 821.04,9012.33 843.59,9012.33 836.07,9054.83 878.04,9054.83 "/>
   <path id="1" class="fil1" d="M933.57 9099.42c0.41,14.17 8.35,21.25 23.8,21.25 9.88,0 17.81,-3.89 23.8,-11.67 5.99,-7.78 10.65,-21.04 13.99,-39.8 -4.17,4.72 -9.53,8.37 -16.07,10.94 -6.54,2.57 -13.36,3.85 -20.46,3.85 -12.25,0 -22.13,-3.26 -29.65,-9.8 -7.52,-6.53 -11.27,-15.83 -11.27,-27.91 0,-2.78 0.35,-6.39 1.04,-10.83 2.78,-15.28 9.46,-27.46 20.04,-36.56 10.58,-9.1 23.73,-13.65 39.46,-13.65 14.75,0 25.43,3.78 32.05,11.35 6.61,7.57 9.91,18.99 9.91,34.27 0,9.03 -1.04,19.37 -3.13,31.04 -3.2,17.92 -7.27,32.57 -12.21,43.96 -4.94,11.39 -11.62,20 -20.04,25.83 -8.42,5.83 -19.17,8.75 -32.26,8.75 -13.78,0 -24.08,-3.4 -30.9,-10.21 -6.82,-6.8 -10.23,-15.56 -10.23,-26.25 0,-2.09 0.07,-3.61 0.21,-4.59l21.93 0zm32.78 -35.41c8.35,0 15.38,-2.61 21.08,-7.81 5.71,-5.21 9.33,-12.12 10.86,-20.73 0.56,-3.61 0.83,-6.18 0.83,-7.71 0,-7.22 -2.09,-12.81 -6.26,-16.77 -4.18,-3.96 -10.02,-5.94 -17.54,-5.94 -8.76,0 -16.18,2.74 -22.23,8.23 -6.06,5.49 -9.85,12.67 -11.38,21.56 -0.41,2.22 -0.62,4.44 -0.62,6.67 0,6.67 2.09,12.08 6.26,16.25 4.18,4.17 10.51,6.25 19,6.25z"/>
   <polygon id="2" class="fil1" points="1048.39,9014.42 1052.36,8992.75 1095.78,8992.75 1069.48,9140.67 1045.47,9140.67 1067.81,9014.42 "/>
   <path id="3" class="fil1" d="M1201.84 9099.42c0.41,14.17 8.35,21.25 23.8,21.25 9.88,0 17.81,-3.89 23.8,-11.67 5.98,-7.78 10.65,-21.04 13.99,-39.8 -4.18,4.72 -9.53,8.37 -16.07,10.94 -6.54,2.57 -13.36,3.85 -20.46,3.85 -12.25,0 -22.13,-3.26 -29.65,-9.8 -7.52,-6.53 -11.27,-15.83 -11.27,-27.91 0,-2.78 0.35,-6.39 1.05,-10.83 2.78,-15.28 9.46,-27.46 20.04,-36.56 10.57,-9.1 23.72,-13.65 39.46,-13.65 14.75,0 25.43,3.78 32.05,11.35 6.61,7.57 9.91,18.99 9.91,34.27 0,9.03 -1.04,19.37 -3.13,31.04 -3.2,17.92 -7.27,32.57 -12.21,43.96 -4.94,11.39 -11.62,20 -20.04,25.83 -8.42,5.83 -19.17,8.75 -32.26,8.75 -13.78,0 -24.08,-3.4 -30.9,-10.21 -6.82,-6.8 -10.23,-15.56 -10.23,-26.25 0,-2.09 0.07,-3.61 0.21,-4.59l21.93 0zm32.78 -35.41c8.35,0 15.38,-2.61 21.09,-7.81 5.71,-5.21 9.33,-12.12 10.85,-20.73 0.56,-3.61 0.84,-6.18 0.84,-7.71 0,-7.22 -2.09,-12.81 -6.27,-16.77 -4.17,-3.96 -10.02,-5.94 -17.54,-5.94 -8.77,0 -16.18,2.74 -22.24,8.23 -6.05,5.49 -9.85,12.67 -11.38,21.56 -0.41,2.22 -0.62,4.44 -0.62,6.67 0,6.67 2.09,12.08 6.26,16.25 4.18,4.17 10.51,6.25 19,6.25z"/>
   <path id="4" class="fil1" d="M1300.17 9109l3.13 -17.92 87.89 -100.42 28.81 0 -17.12 97.71 19.42 0 -3.76 20.63 -19.41 0 -5.64 31.67 -23.39 0 5.64 -31.67 -75.57 0zm93.32 -94.17l-62.21 73.54 49.27 0 12.94 -73.54z"/>
   <path id="5" class="fil1" d="M1452.57 9107.54c15.17,-11.25 27.21,-20.52 36.12,-27.81 8.91,-7.29 16.59,-14.86 23.07,-22.71 6.47,-7.85 10.33,-15.59 11.59,-23.23 0.42,-2.36 0.63,-4.59 0.63,-6.67 0,-5.97 -1.67,-10.63 -5.01,-13.96 -3.34,-3.33 -8.63,-5 -15.87,-5 -8.07,0 -14.82,2.6 -20.25,7.81 -5.43,5.21 -9.11,12.19 -11.06,20.94l-22.97 0c3.2,-15.83 10.09,-27.95 20.67,-36.35 10.58,-8.4 22.97,-12.6 37.16,-12.6 13.22,0 23.42,3.19 30.58,9.58 7.17,6.39 10.75,15 10.75,25.83 0,3.33 -0.28,6.46 -0.83,9.37 -1.67,9.58 -5.85,18.89 -12.53,27.92 -6.69,9.03 -14.13,17.15 -22.34,24.37 -8.21,7.22 -18.65,15.63 -31.32,25.21l-11.06 8.54 66.18 0 -3.55 19.79 -101.46 0 3.13 -17.29 18.37 -13.75z"/>
   <path id="6" class="fil1" d="M1655.5 9024c-0.42,-6.39 -2.37,-11.18 -5.85,-14.37 -3.48,-3.19 -8.83,-4.79 -16.07,-4.79 -11,0 -19.94,4.2 -26.83,12.61 -6.89,8.4 -12.21,22.33 -15.97,41.77 4.73,-6.11 10.89,-10.83 18.48,-14.17 7.59,-3.33 15.42,-5 23.49,-5 11.97,0 21.43,3.33 28.39,10 6.96,6.67 10.44,15.97 10.44,27.92 0,4.58 -0.35,8.61 -1.04,12.08 -1.67,9.72 -5.11,18.41 -10.33,26.04 -5.22,7.64 -11.97,13.65 -20.25,18.02 -8.28,4.37 -17.71,6.56 -28.29,6.56 -16,0 -27.49,-3.99 -34.44,-11.98 -6.96,-7.98 -10.44,-19.69 -10.44,-35.1 0,-8.89 1.11,-19.65 3.34,-32.29 8.91,-50.83 31.31,-76.25 67.22,-76.25 9.46,0 17.26,1.77 23.38,5.31 6.12,3.54 10.54,8.26 13.26,14.17 2.72,5.9 3.86,12.39 3.44,19.48l-21.92 0zm-31.52 36.04c-8.49,0 -16.15,2.54 -22.97,7.61 -6.81,5.07 -11.06,12.39 -12.73,21.98 -0.42,2.5 -0.63,5 -0.63,7.5 0,7.36 2.22,13.16 6.68,17.4 4.45,4.24 11,6.35 19.62,6.35 8.77,0 16.18,-2.71 22.24,-8.13 6.05,-5.42 9.85,-12.64 11.38,-21.67 0.56,-2.64 0.83,-5.42 0.83,-8.33 0,-7.08 -2.02,-12.64 -6.06,-16.67 -4.04,-4.03 -10.16,-6.04 -18.37,-6.04z"/>
   <path id="7" class="fil1" d="M1808.53 9009.21l-69.94 0 -7.31 41.46c3.62,-3.89 8.52,-7.15 14.72,-9.79 6.19,-2.64 12.56,-3.96 19.1,-3.96 14.33,0 24.74,3.68 31.21,11.04 6.48,7.36 9.71,16.67 9.71,27.92 0,3.61 -0.35,7.5 -1.05,11.67 -2.78,15.83 -9.57,28.65 -20.35,38.44 -10.79,9.79 -24.67,14.69 -41.65,14.69 -15.17,0 -26.65,-3.75 -34.44,-11.25 -7.8,-7.5 -11.56,-17.43 -11.28,-29.79l23.17 0c0.42,6.53 2.93,11.7 7.52,15.52 4.59,3.82 10.86,5.73 18.79,5.73 9.88,0 17.81,-2.99 23.8,-8.96 5.98,-5.97 9.88,-13.89 11.69,-23.75 0.56,-2.78 0.83,-5.63 0.83,-8.54 0,-7.22 -2.12,-12.78 -6.37,-16.67 -4.24,-3.89 -10.47,-5.83 -18.69,-5.83 -6.82,0 -12.84,1.7 -18.06,5.11 -5.22,3.4 -9.43,8.02 -12.63,13.85l-22.55 0 15.45 -87.71 91.86 0 -3.55 20.83z"/>
   <polygon id="8" class="fil1" points="1940.48,9007.13 1858.85,9140.67 1832.75,9140.67 1916.89,9009.21 1839.64,9009.21 1842.98,8989.42 1943.61,8989.42 "/>
   <polygon id="9" class="fil1" points="2057.39,9007.13 1975.76,9140.67 1949.66,9140.67 2033.8,9009.21 1956.56,9009.21 1959.89,8989.42 2060.52,8989.42 "/>
   <path id="10" class="fil1" d="M2067.83 9064.42c4.17,-23.47 11.52,-41.94 22.03,-55.42 10.5,-13.47 25.71,-20.2 45.61,-20.2 15.45,0 26.58,4.2 33.41,12.6 6.81,8.4 10.23,20.1 10.23,35.1 0,8.06 -0.91,17.36 -2.71,27.92 -4.18,23.61 -11.52,42.15 -22.03,55.63 -10.51,13.47 -25.72,20.21 -45.61,20.21 -15.45,0 -26.59,-4.2 -33.41,-12.6 -6.82,-8.41 -10.23,-20.17 -10.23,-35.31 0,-7.78 0.91,-17.08 2.72,-27.92zm85.18 0c1.81,-11.11 2.72,-19.72 2.72,-25.83 0,-8.89 -1.81,-15.8 -5.43,-20.73 -3.62,-4.93 -9.81,-7.39 -18.58,-7.39 -8.77,0 -15.83,2.43 -21.19,7.29 -5.36,4.86 -9.43,11.11 -12.21,18.75 -2.78,7.64 -5.15,16.94 -7.1,27.92 -1.95,10.7 -2.92,19.31 -2.92,25.83 0,9.03 1.81,16.01 5.43,20.94 3.62,4.93 9.88,7.4 18.79,7.4 8.77,0 15.83,-2.43 21.19,-7.29 5.36,-4.86 9.43,-11.11 12.21,-18.75 2.78,-7.64 5.15,-17.01 7.1,-28.13z"/>
   <path id="11" class="fil1" d="M2201.65 9064.42c4.17,-23.47 11.52,-41.94 22.03,-55.42 10.5,-13.47 25.71,-20.2 45.61,-20.2 15.45,0 26.58,4.2 33.41,12.6 6.82,8.4 10.23,20.1 10.23,35.1 0,8.06 -0.91,17.36 -2.71,27.92 -4.18,23.61 -11.52,42.15 -22.03,55.63 -10.5,13.47 -25.72,20.21 -45.61,20.21 -15.45,0 -26.58,-4.2 -33.41,-12.6 -6.82,-8.41 -10.23,-20.17 -10.23,-35.31 0,-7.78 0.9,-17.08 2.71,-27.92zm85.18 0c1.81,-11.11 2.72,-19.72 2.72,-25.83 0,-8.89 -1.81,-15.8 -5.43,-20.73 -3.62,-4.93 -9.81,-7.39 -18.58,-7.39 -8.77,0 -15.83,2.43 -21.19,7.29 -5.36,4.86 -9.43,11.11 -12.21,18.75 -2.78,7.64 -5.15,16.94 -7.09,27.92 -1.95,10.7 -2.93,19.31 -2.93,25.83 0,9.03 1.81,16.01 5.43,20.94 3.62,4.93 9.88,7.4 18.79,7.4 8.77,0 15.83,-2.43 21.19,-7.29 5.36,-4.86 9.43,-11.11 12.22,-18.75 2.78,-7.64 5.15,-17.01 7.09,-28.13z"/>
   <path id="12" class="fil1" d="M2424.42 9024c-0.42,-6.39 -2.37,-11.18 -5.85,-14.37 -3.48,-3.19 -8.84,-4.79 -16.08,-4.79 -11,0 -19.94,4.2 -26.83,12.61 -6.89,8.4 -12.21,22.33 -15.97,41.77 4.74,-6.11 10.89,-10.83 18.48,-14.17 7.59,-3.33 15.42,-5 23.49,-5 11.97,0 21.43,3.33 28.39,10 6.96,6.67 10.44,15.97 10.44,27.92 0,4.58 -0.35,8.61 -1.04,12.08 -1.67,9.72 -5.12,18.41 -10.34,26.04 -5.22,7.64 -11.97,13.65 -20.25,18.02 -8.28,4.37 -17.71,6.56 -28.29,6.56 -16,0 -27.48,-3.99 -34.44,-11.98 -6.96,-7.98 -10.44,-19.69 -10.44,-35.1 0,-8.89 1.11,-19.65 3.34,-32.29 8.91,-50.83 31.31,-76.25 67.22,-76.25 9.46,0 17.26,1.77 23.38,5.31 6.13,3.54 10.54,8.26 13.26,14.17 2.71,5.9 3.86,12.39 3.44,19.48l-21.92 0zm-31.53 36.04c-8.49,0 -16.15,2.54 -22.96,7.61 -6.82,5.07 -11.06,12.39 -12.74,21.98 -0.42,2.5 -0.62,5 -0.62,7.5 0,7.36 2.22,13.16 6.68,17.4 4.45,4.24 11,6.35 19.63,6.35 8.77,0 16.18,-2.71 22.23,-8.13 6.06,-5.42 9.85,-12.64 11.38,-21.67 0.56,-2.64 0.83,-5.42 0.83,-8.33 0,-7.08 -2.02,-12.64 -6.05,-16.67 -4.04,-4.03 -10.16,-6.04 -18.37,-6.04z"/>
   <polygon id="13" class="fil1" points="2633.81,8944 2535.69,9177.13 2512.31,9177.13 2610.22,8944 "/>
   <polygon id="14" class="fil1" points="2815.24,9076.09 2773.27,9076.09 2765.76,9118.59 2743.21,9118.59 2750.72,9076.09 2708.76,9076.09 2712.52,9054.83 2754.48,9054.83 2762,9012.33 2784.54,9012.33 2777.03,9054.83 2818.99,9054.83 "/>
   <path id="15" class="fil1" d="M2874.53 9099.42c0.41,14.17 8.35,21.25 23.8,21.25 9.88,0 17.81,-3.89 23.8,-11.67 5.98,-7.78 10.64,-21.04 13.98,-39.8 -4.17,4.72 -9.53,8.37 -16.07,10.94 -6.54,2.57 -13.36,3.85 -20.46,3.85 -12.25,0 -22.13,-3.26 -29.65,-9.8 -7.52,-6.53 -11.27,-15.83 -11.27,-27.91 0,-2.78 0.35,-6.39 1.04,-10.83 2.78,-15.28 9.46,-27.46 20.04,-36.56 10.58,-9.1 23.73,-13.65 39.46,-13.65 14.75,0 25.44,3.78 32.05,11.35 6.61,7.57 9.91,18.99 9.91,34.27 0,9.03 -1.04,19.37 -3.13,31.04 -3.2,17.92 -7.27,32.57 -12.21,43.96 -4.94,11.39 -11.62,20 -20.04,25.83 -8.43,5.83 -19.18,8.75 -32.26,8.75 -13.78,0 -24.07,-3.4 -30.9,-10.21 -6.82,-6.8 -10.23,-15.56 -10.23,-26.25 0,-2.09 0.07,-3.61 0.21,-4.59l21.92 0zm32.78 -35.41c8.35,0 15.38,-2.61 21.08,-7.81 5.71,-5.21 9.33,-12.12 10.86,-20.73 0.56,-3.61 0.83,-6.18 0.83,-7.71 0,-7.22 -2.09,-12.81 -6.26,-16.77 -4.17,-3.96 -10.02,-5.94 -17.54,-5.94 -8.76,0 -16.18,2.74 -22.23,8.23 -6.06,5.49 -9.85,12.67 -11.38,21.56 -0.42,2.22 -0.63,4.44 -0.63,6.67 0,6.67 2.09,12.08 6.26,16.25 4.18,4.17 10.51,6.25 19,6.25z"/>
   <polygon id="16" class="fil1" points="2989.35,9014.42 2993.31,8992.75 3036.74,8992.75 3010.44,9140.67 2986.43,9140.67 3008.77,9014.42 "/>
   <polygon id="17" class="fil1" points="3225.89,9007.13 3144.26,9140.67 3118.16,9140.67 3202.3,9009.21 3125.06,9009.21 3128.39,8989.42 3229.02,8989.42 "/>
   <path id="18" class="fil1" d="M3242.59 9026.3c3.07,-12.92 9.81,-22.99 20.25,-30.21 10.44,-7.22 22.76,-10.83 36.96,-10.83 12.94,0 22.89,2.98 29.85,8.96 6.96,5.97 10.44,13.75 10.44,23.33 0,2.36 -0.21,4.79 -0.63,7.29 -1.53,8.61 -5.08,15.97 -10.65,22.08 -5.57,6.11 -11.83,10.21 -18.79,12.29l0 0.83c6.4,2.08 11.34,5.59 14.82,10.52 3.48,4.93 5.22,11.22 5.22,18.85 0,3.47 -0.28,6.67 -0.84,9.59 -2.22,12.5 -8.31,22.71 -18.26,30.62 -9.96,7.92 -22.65,11.88 -38.11,11.88 -13.64,0 -24.56,-3.23 -32.78,-9.69 -8.21,-6.46 -12.32,-15.73 -12.32,-27.81 0,-3.2 0.14,-5.63 0.42,-7.29l22.97 0c-0.14,0.69 -0.21,1.73 -0.21,3.12 0,6.53 2.16,11.81 6.47,15.83 4.31,4.03 10.51,6.04 18.58,6.04 8.63,0 15.66,-2.33 21.09,-6.98 5.43,-4.65 8.77,-10.66 10.02,-18.02 0.42,-2.36 0.63,-4.44 0.63,-6.25 0,-7.36 -2.79,-12.64 -8.35,-15.83 -5.57,-3.19 -14.06,-4.79 -25.47,-4.79l-5.43 0 3.55 -19.58 5.64 0c11.27,-0.14 20.18,-2.02 26.72,-5.63 6.54,-3.61 10.51,-9.3 11.9,-17.08 0.28,-2.22 0.42,-3.82 0.42,-4.79 0,-5.28 -1.81,-9.44 -5.43,-12.5 -3.62,-3.06 -8.91,-4.58 -15.87,-4.58 -7.79,0 -14.23,1.98 -19.31,5.94 -5.08,3.96 -8.53,8.85 -10.33,14.69l-23.18 0z"/>
   <path id="19" class="fil1" d="M3386.85 9059.21c-10.85,-5.97 -16.28,-14.86 -16.28,-26.67 0,-2.36 0.21,-4.86 0.63,-7.5 1.39,-7.64 4.52,-14.55 9.39,-20.73 4.87,-6.18 11.38,-11.11 19.52,-14.79 8.14,-3.68 17.64,-5.52 28.5,-5.52 14.33,0 25.16,3.13 32.46,9.38 7.31,6.25 10.96,14.37 10.96,24.37 0,2.36 -0.21,4.79 -0.63,7.29 -1.39,7.78 -4.59,14.62 -9.6,20.52 -5.01,5.91 -11.07,10.45 -18.17,13.65 6.26,2.5 11.13,6.35 14.61,11.56 3.48,5.21 5.22,11.43 5.22,18.65 0,1.67 -0.28,4.44 -0.84,8.33 -1.67,9.44 -5.43,17.67 -11.27,24.69 -5.85,7.01 -13.22,12.43 -22.13,16.25 -8.91,3.82 -18.58,5.73 -29.02,5.73 -14.06,0 -25.3,-3.37 -33.72,-10.11 -8.42,-6.74 -12.63,-15.94 -12.63,-27.6 0,-3.2 0.28,-6.18 0.83,-8.96 1.67,-9.44 5.36,-17.5 11.07,-24.17 5.7,-6.67 12.74,-11.46 21.08,-14.38zm38.2 -55.41c-8.35,0 -15.31,2.08 -20.87,6.25 -5.57,4.17 -9.05,10.21 -10.44,18.13 -0.28,1.94 -0.42,3.33 -0.42,4.17 0,5.83 2.13,10.52 6.37,14.06 4.24,3.54 9.91,5.31 17.02,5.31 5.84,0 11.2,-1.28 16.07,-3.85 4.87,-2.57 8.74,-6.04 11.59,-10.41 2.85,-4.38 4.28,-9.27 4.28,-14.69 0,-6.11 -2.06,-10.8 -6.16,-14.06 -4.11,-3.26 -9.92,-4.89 -17.44,-4.89zm-11.69 65.83c-9.19,0 -17.05,2.29 -23.59,6.88 -6.54,4.58 -10.65,11.39 -12.32,20.41 -0.28,1.25 -0.42,3.13 -0.42,5.63 0,6.81 2.33,12.19 6.99,16.15 4.67,3.96 11.24,5.94 19.73,5.94 7.1,0 13.36,-1.46 18.79,-4.37 5.43,-2.92 9.67,-6.94 12.74,-12.08 3.06,-5.14 4.59,-10.9 4.59,-17.29 0,-6.94 -2.36,-12.22 -7.1,-15.83 -4.73,-3.61 -11.2,-5.42 -19.41,-5.42z"/>
   <path id="20" class="fil1" d="M3499.8 9026.3c3.07,-12.92 9.81,-22.99 20.25,-30.21 10.44,-7.22 22.76,-10.83 36.96,-10.83 12.94,0 22.89,2.98 29.85,8.96 6.96,5.97 10.44,13.75 10.44,23.33 0,2.36 -0.21,4.79 -0.63,7.29 -1.53,8.61 -5.08,15.97 -10.65,22.08 -5.57,6.11 -11.83,10.21 -18.79,12.29l0 0.83c6.4,2.08 11.34,5.59 14.82,10.52 3.48,4.93 5.22,11.22 5.22,18.85 0,3.47 -0.28,6.67 -0.84,9.59 -2.22,12.5 -8.31,22.71 -18.27,30.62 -9.95,7.92 -22.65,11.88 -38.1,11.88 -13.64,0 -24.56,-3.23 -32.78,-9.69 -8.21,-6.46 -12.32,-15.73 -12.32,-27.81 0,-3.2 0.14,-5.63 0.42,-7.29l22.97 0c-0.14,0.69 -0.21,1.73 -0.21,3.12 0,6.53 2.16,11.81 6.47,15.83 4.31,4.03 10.51,6.04 18.58,6.04 8.63,0 15.66,-2.33 21.09,-6.98 5.43,-4.65 8.77,-10.66 10.02,-18.02 0.42,-2.36 0.63,-4.44 0.63,-6.25 0,-7.36 -2.79,-12.64 -8.35,-15.83 -5.57,-3.19 -14.06,-4.79 -25.47,-4.79l-5.43 0 3.55 -19.58 5.64 0c11.27,-0.14 20.18,-2.02 26.72,-5.63 6.54,-3.61 10.51,-9.3 11.9,-17.08 0.28,-2.22 0.42,-3.82 0.42,-4.79 0,-5.28 -1.81,-9.44 -5.43,-12.5 -3.62,-3.06 -8.91,-4.58 -15.87,-4.58 -7.79,0 -14.23,1.98 -19.31,5.94 -5.08,3.96 -8.53,8.85 -10.34,14.69l-23.17 0z"/>
   <path id="21" class="fil1" d="M3644.06 9059.21c-10.85,-5.97 -16.28,-14.86 -16.28,-26.67 0,-2.36 0.21,-4.86 0.63,-7.5 1.39,-7.64 4.52,-14.55 9.39,-20.73 4.87,-6.18 11.38,-11.11 19.52,-14.79 8.14,-3.68 17.64,-5.52 28.5,-5.52 14.33,0 25.15,3.13 32.46,9.38 7.31,6.25 10.96,14.37 10.96,24.37 0,2.36 -0.21,4.79 -0.63,7.29 -1.39,7.78 -4.59,14.62 -9.6,20.52 -5.01,5.91 -11.07,10.45 -18.17,13.65 6.26,2.5 11.13,6.35 14.61,11.56 3.48,5.21 5.22,11.43 5.22,18.65 0,1.67 -0.28,4.44 -0.84,8.33 -1.67,9.44 -5.43,17.67 -11.27,24.69 -5.85,7.01 -13.22,12.43 -22.13,16.25 -8.91,3.82 -18.58,5.73 -29.02,5.73 -14.06,0 -25.3,-3.37 -33.72,-10.11 -8.42,-6.74 -12.63,-15.94 -12.63,-27.6 0,-3.2 0.28,-6.18 0.83,-8.96 1.67,-9.44 5.36,-17.5 11.07,-24.17 5.7,-6.67 12.73,-11.46 21.08,-14.38zm38.2 -55.41c-8.35,0 -15.31,2.08 -20.87,6.25 -5.57,4.17 -9.05,10.21 -10.44,18.13 -0.28,1.94 -0.42,3.33 -0.42,4.17 0,5.83 2.12,10.52 6.37,14.06 4.24,3.54 9.91,5.31 17.02,5.31 5.84,0 11.2,-1.28 16.07,-3.85 4.87,-2.57 8.74,-6.04 11.59,-10.41 2.85,-4.38 4.28,-9.27 4.28,-14.69 0,-6.11 -2.06,-10.8 -6.16,-14.06 -4.11,-3.26 -9.92,-4.89 -17.43,-4.89zm-11.69 65.83c-9.19,0 -17.05,2.29 -23.59,6.88 -6.54,4.58 -10.65,11.39 -12.31,20.41 -0.28,1.25 -0.42,3.13 -0.42,5.63 0,6.81 2.33,12.19 6.99,16.15 4.67,3.96 11.24,5.94 19.73,5.94 7.1,0 13.36,-1.46 18.79,-4.37 5.43,-2.92 9.67,-6.94 12.74,-12.08 3.06,-5.14 4.59,-10.9 4.59,-17.29 0,-6.94 -2.36,-12.22 -7.1,-15.83 -4.73,-3.61 -11.2,-5.42 -19.41,-5.42z"/>
   <polygon id="22" class="fil1" points="3857.22,9007.13 3775.59,9140.67 3749.49,9140.67 3833.63,9009.21 3756.39,9009.21 3759.72,8989.42 3860.35,8989.42 "/>
   <polygon id="23" class="fil1" points="3974.14,9007.13 3892.5,9140.67 3866.41,9140.67 3950.54,9009.21 3873.3,9009.21 3876.64,8989.42 3977.26,8989.42 "/>
   <path id="24" class="fil1" d="M3984.57 9064.42c4.17,-23.47 11.52,-41.94 22.03,-55.42 10.5,-13.47 25.71,-20.2 45.61,-20.2 15.45,0 26.58,4.2 33.41,12.6 6.82,8.4 10.23,20.1 10.23,35.1 0,8.06 -0.91,17.36 -2.71,27.92 -4.18,23.61 -11.52,42.15 -22.03,55.63 -10.5,13.47 -25.72,20.21 -45.61,20.21 -15.45,0 -26.58,-4.2 -33.41,-12.6 -6.82,-8.41 -10.23,-20.17 -10.23,-35.31 0,-7.78 0.9,-17.08 2.71,-27.92zm85.18 0c1.81,-11.11 2.72,-19.72 2.72,-25.83 0,-8.89 -1.81,-15.8 -5.43,-20.73 -3.62,-4.93 -9.81,-7.39 -18.58,-7.39 -8.77,0 -15.83,2.43 -21.19,7.29 -5.36,4.86 -9.43,11.11 -12.21,18.75 -2.78,7.64 -5.15,16.94 -7.09,27.92 -1.95,10.7 -2.93,19.31 -2.93,25.83 0,9.03 1.81,16.01 5.43,20.94 3.62,4.93 9.88,7.4 18.79,7.4 8.77,0 15.83,-2.43 21.19,-7.29 5.36,-4.86 9.43,-11.11 12.22,-18.75 2.78,-7.64 5.15,-17.01 7.09,-28.13z"/>
   <path id="25" class="fil1" d="M4118.4 9064.42c4.18,-23.47 11.52,-41.94 22.03,-55.42 10.51,-13.47 25.71,-20.2 45.61,-20.2 15.45,0 26.58,4.2 33.41,12.6 6.82,8.4 10.23,20.1 10.23,35.1 0,8.06 -0.91,17.36 -2.72,27.92 -4.18,23.61 -11.52,42.15 -22.03,55.63 -10.5,13.47 -25.71,20.21 -45.61,20.21 -15.45,0 -26.58,-4.2 -33.41,-12.6 -6.82,-8.41 -10.23,-20.17 -10.23,-35.31 0,-7.78 0.9,-17.08 2.71,-27.92zm85.18 0c1.81,-11.11 2.71,-19.72 2.71,-25.83 0,-8.89 -1.81,-15.8 -5.43,-20.73 -3.62,-4.93 -9.81,-7.39 -18.58,-7.39 -8.77,0 -15.83,2.43 -21.19,7.29 -5.36,4.86 -9.43,11.11 -12.21,18.75 -2.79,7.64 -5.15,16.94 -7.1,27.92 -1.95,10.7 -2.93,19.31 -2.93,25.83 0,9.03 1.81,16.01 5.43,20.94 3.62,4.93 9.88,7.4 18.79,7.4 8.77,0 15.83,-2.43 21.19,-7.29 5.36,-4.86 9.43,-11.11 12.22,-18.75 2.78,-7.64 5.15,-17.01 7.1,-28.13z"/>
   <path id="26" class="fil1" d="M4341.16 9024c-0.42,-6.39 -2.37,-11.18 -5.85,-14.37 -3.48,-3.19 -8.84,-4.79 -16.08,-4.79 -11,0 -19.93,4.2 -26.83,12.61 -6.89,8.4 -12.21,22.33 -15.97,41.77 4.74,-6.11 10.89,-10.83 18.48,-14.17 7.59,-3.33 15.42,-5 23.49,-5 11.97,0 21.43,3.33 28.39,10 6.96,6.67 10.44,15.97 10.44,27.92 0,4.58 -0.35,8.61 -1.04,12.08 -1.67,9.72 -5.12,18.41 -10.34,26.04 -5.22,7.64 -11.97,13.65 -20.25,18.02 -8.28,4.37 -17.71,6.56 -28.29,6.56 -16.01,0 -27.49,-3.99 -34.45,-11.98 -6.96,-7.98 -10.44,-19.69 -10.44,-35.1 0,-8.89 1.11,-19.65 3.34,-32.29 8.91,-50.83 31.31,-76.25 67.22,-76.25 9.46,0 17.26,1.77 23.39,5.31 6.12,3.54 10.54,8.26 13.26,14.17 2.71,5.9 3.86,12.39 3.44,19.48l-21.92 0zm-31.53 36.04c-8.49,0 -16.14,2.54 -22.96,7.61 -6.82,5.07 -11.06,12.39 -12.74,21.98 -0.42,2.5 -0.62,5 -0.62,7.5 0,7.36 2.22,13.16 6.68,17.4 4.46,4.24 11,6.35 19.63,6.35 8.77,0 16.18,-2.71 22.24,-8.13 6.05,-5.42 9.85,-12.64 11.38,-21.67 0.56,-2.64 0.83,-5.42 0.83,-8.33 0,-7.08 -2.02,-12.64 -6.05,-16.67 -4.04,-4.03 -10.16,-6.04 -18.37,-6.04z"/>
  </g>
  <g id="_2382819014784">
   <path class="fil0" d="M5909.19 8840.05l3910.44 0 0 441.67 -3910.44 0c-121.46,0 -220.83,-99.37 -220.83,-220.83l0 -0c0,-121.46 99.37,-220.83 220.83,-220.83z"/>
   <path class="fil1" d="M6070.63 9037.86c4.73,-6.94 10.33,-12.36 16.81,-16.25 6.47,-3.89 13.68,-5.83 21.61,-5.83l-4.39 24.59 -6.05 0c-9.19,0 -16.56,2.29 -22.13,6.87 -5.57,4.58 -9.46,12.5 -11.69,23.75l-10.85 61.46 -23.8 0 20.25 -114.79 23.8 0 -3.55 20.21z"/>
   <path id="1" class="fil1" d="M6112.59 9074.52c2.09,-11.53 6.3,-21.74 12.63,-30.63 6.33,-8.89 14.09,-15.8 23.28,-20.73 9.19,-4.93 18.79,-7.4 28.81,-7.4 9.05,0 16.63,1.77 22.76,5.31 6.13,3.54 10.72,7.95 13.78,13.23l2.92 -16.67 24.01 0 -20.25 114.79 -24.01 0 3.13 -17.08c-5.01,5.42 -11.31,9.93 -18.89,13.54 -7.59,3.61 -15.83,5.42 -24.74,5.42 -8.63,0 -16.32,-1.94 -23.07,-5.83 -6.75,-3.89 -12.04,-9.41 -15.87,-16.56 -3.83,-7.15 -5.74,-15.38 -5.74,-24.69 0,-4.17 0.42,-8.4 1.25,-12.71zm94.16 0.42c0.56,-2.64 0.83,-5.49 0.83,-8.54 0,-9.3 -2.74,-16.63 -8.24,-21.98 -5.5,-5.35 -12.35,-8.02 -20.56,-8.02 -6.12,0 -12.11,1.5 -17.96,4.48 -5.85,2.98 -10.92,7.36 -15.24,13.13 -4.31,5.76 -7.17,12.6 -8.56,20.52 -0.56,2.64 -0.83,5.49 -0.83,8.54 0,9.44 2.75,16.91 8.25,22.39 5.5,5.49 12.35,8.23 20.56,8.23 6.13,0 12.11,-1.53 17.95,-4.58 5.85,-3.06 10.93,-7.54 15.24,-13.44 4.32,-5.9 7.17,-12.81 8.56,-20.73z"/>
   <path id="2" class="fil1" d="M6286.91 9002.44c-3.76,0 -6.81,-1.18 -9.18,-3.54 -2.37,-2.36 -3.55,-5.35 -3.55,-8.96 0,-4.86 1.85,-9.06 5.54,-12.61 3.69,-3.54 7.9,-5.31 12.63,-5.31 3.76,0 6.79,1.18 9.08,3.54 2.3,2.36 3.44,5.35 3.44,8.96 0,4.86 -1.81,9.06 -5.43,12.6 -3.62,3.54 -7.79,5.31 -12.53,5.31zm-15.24 152.5c-1.95,11.25 -6.19,19.41 -12.73,24.48 -6.54,5.07 -15.17,7.6 -25.89,7.6l-12.32 0 3.55 -20 8.14 0c4.87,0 8.49,-0.94 10.85,-2.81 2.37,-1.87 3.9,-4.96 4.6,-9.27l24.22 -137.29 23.8 0 -24.22 137.29z"/>
   <path id="3" class="fil1" d="M6309.25 9074.52c2.09,-11.53 6.3,-21.74 12.63,-30.63 6.33,-8.89 14.09,-15.8 23.28,-20.73 9.19,-4.93 18.79,-7.4 28.81,-7.4 9.05,0 16.63,1.77 22.76,5.31 6.13,3.54 10.72,7.95 13.78,13.23l2.93 -16.67 24.01 0 -20.25 114.79 -24.01 0 3.13 -17.08c-5.01,5.42 -11.31,9.93 -18.89,13.54 -7.59,3.61 -15.83,5.42 -24.74,5.42 -8.63,0 -16.31,-1.94 -23.07,-5.83 -6.75,-3.89 -12.04,-9.41 -15.87,-16.56 -3.83,-7.15 -5.74,-15.38 -5.74,-24.69 0,-4.17 0.42,-8.4 1.25,-12.71zm94.16 0.42c0.56,-2.64 0.83,-5.49 0.83,-8.54 0,-9.3 -2.75,-16.63 -8.24,-21.98 -5.5,-5.35 -12.35,-8.02 -20.56,-8.02 -6.13,0 -12.11,1.5 -17.96,4.48 -5.85,2.98 -10.93,7.36 -15.24,13.13 -4.31,5.76 -7.17,12.6 -8.56,20.52 -0.56,2.64 -0.83,5.49 -0.83,8.54 0,9.44 2.75,16.91 8.24,22.39 5.5,5.49 12.35,8.23 20.56,8.23 6.13,0 12.11,-1.53 17.96,-4.58 5.85,-3.06 10.93,-7.54 15.24,-13.44 4.31,-5.9 7.17,-12.81 8.56,-20.73z"/>
   <path id="4" class="fil1" d="M6465.41 9099.31c15.18,-11.25 27.21,-20.52 36.12,-27.81 8.91,-7.29 16.6,-14.86 23.07,-22.71 6.47,-7.85 10.33,-15.59 11.59,-23.23 0.42,-2.36 0.63,-4.59 0.63,-6.67 0,-5.97 -1.67,-10.63 -5.01,-13.96 -3.34,-3.33 -8.63,-5 -15.87,-5 -8.07,0 -14.82,2.6 -20.25,7.81 -5.43,5.21 -9.11,12.19 -11.06,20.94l-22.97 0c3.2,-15.83 10.09,-27.95 20.67,-36.35 10.58,-8.4 22.97,-12.6 37.16,-12.6 13.22,0 23.42,3.19 30.59,9.58 7.17,6.39 10.75,15 10.75,25.83 0,3.33 -0.28,6.46 -0.83,9.37 -1.67,9.58 -5.85,18.89 -12.53,27.92 -6.68,9.03 -14.13,17.15 -22.34,24.37 -8.21,7.22 -18.65,15.63 -31.31,25.21l-11.07 8.54 66.18 0 -3.55 19.79 -101.46 0 3.13 -17.29 18.37 -13.75z"/>
   <path id="5" class="fil1" d="M6579.41 9056.19c4.17,-23.47 11.52,-41.94 22.03,-55.42 10.5,-13.47 25.71,-20.2 45.61,-20.2 15.45,0 26.58,4.2 33.41,12.6 6.82,8.4 10.23,20.1 10.23,35.1 0,8.06 -0.91,17.36 -2.71,27.92 -4.18,23.61 -11.52,42.15 -22.03,55.63 -10.5,13.47 -25.71,20.21 -45.61,20.21 -15.45,0 -26.58,-4.2 -33.41,-12.6 -6.82,-8.41 -10.23,-20.17 -10.23,-35.31 0,-7.78 0.9,-17.08 2.71,-27.92zm85.18 0c1.81,-11.11 2.72,-19.72 2.72,-25.83 0,-8.89 -1.81,-15.8 -5.43,-20.73 -3.62,-4.93 -9.81,-7.39 -18.58,-7.39 -8.77,0 -15.83,2.43 -21.19,7.29 -5.36,4.86 -9.43,11.11 -12.21,18.75 -2.78,7.64 -5.15,16.94 -7.09,27.92 -1.95,10.7 -2.93,19.31 -2.93,25.83 0,9.03 1.81,16.01 5.43,20.94 3.62,4.93 9.88,7.4 18.79,7.4 8.77,0 15.83,-2.43 21.19,-7.29 5.36,-4.86 9.43,-11.11 12.22,-18.75 2.78,-7.64 5.15,-17.01 7.09,-28.13z"/>
   <path id="6" class="fil1" d="M6719.7 9099.31c15.17,-11.25 27.21,-20.52 36.12,-27.81 8.91,-7.29 16.6,-14.86 23.07,-22.71 6.48,-7.85 10.34,-15.59 11.59,-23.23 0.42,-2.36 0.63,-4.59 0.63,-6.67 0,-5.97 -1.67,-10.63 -5.01,-13.96 -3.34,-3.33 -8.63,-5 -15.87,-5 -8.07,0 -14.82,2.6 -20.25,7.81 -5.43,5.21 -9.11,12.19 -11.06,20.94l-22.96 0c3.2,-15.83 10.09,-27.95 20.67,-36.35 10.57,-8.4 22.96,-12.6 37.16,-12.6 13.22,0 23.41,3.19 30.58,9.58 7.17,6.39 10.75,15 10.75,25.83 0,3.33 -0.28,6.46 -0.83,9.37 -1.67,9.58 -5.85,18.89 -12.53,27.92 -6.68,9.03 -14.13,17.15 -22.33,24.37 -8.22,7.22 -18.65,15.63 -31.32,25.21l-11.07 8.54 66.18 0 -3.55 19.79 -101.46 0 3.13 -17.29 18.37 -13.75z"/>
   <path id="7" class="fil1" d="M6840.16 9099.31c15.17,-11.25 27.21,-20.52 36.12,-27.81 8.91,-7.29 16.6,-14.86 23.07,-22.71 6.48,-7.85 10.34,-15.59 11.59,-23.23 0.42,-2.36 0.63,-4.59 0.63,-6.67 0,-5.97 -1.67,-10.63 -5.01,-13.96 -3.34,-3.33 -8.63,-5 -15.87,-5 -8.07,0 -14.82,2.6 -20.25,7.81 -5.43,5.21 -9.11,12.19 -11.06,20.94l-22.96 0c3.2,-15.83 10.09,-27.95 20.67,-36.35 10.58,-8.4 22.96,-12.6 37.16,-12.6 13.22,0 23.41,3.19 30.58,9.58 7.17,6.39 10.75,15 10.75,25.83 0,3.33 -0.28,6.46 -0.83,9.37 -1.67,9.58 -5.85,18.89 -12.52,27.92 -6.69,9.03 -14.13,17.15 -22.34,24.37 -8.22,7.22 -18.65,15.63 -31.32,25.21l-11.07 8.54 66.18 0 -3.54 19.79 -101.47 0 3.13 -17.29 18.37 -13.75z"/>
   <path id="8" class="fil1" d="M6946.01 9074.94c2.09,-11.81 6.3,-22.19 12.63,-31.15 6.33,-8.96 14.2,-15.87 23.59,-20.73 9.4,-4.86 19.59,-7.3 30.59,-7.3 13.91,0 24.84,3.3 32.78,9.9 7.93,6.6 12.46,16.01 13.57,28.23l-25.68 0c-1.11,-5.69 -3.69,-10.14 -7.72,-13.33 -4.04,-3.2 -9.53,-4.79 -16.49,-4.79 -9.74,0 -18.09,3.44 -25.05,10.31 -6.96,6.87 -11.56,16.49 -13.78,28.85 -0.69,4.44 -1.04,8.06 -1.04,10.83 0,9.17 2.3,16.21 6.89,21.15 4.59,4.93 11,7.39 19.21,7.39 13.78,0 23.93,-6.04 30.48,-18.13l25.68 0c-5.43,11.67 -13.33,20.94 -23.7,27.81 -10.37,6.87 -22.37,10.31 -36.01,10.31 -14.48,0 -25.96,-4.13 -34.45,-12.39 -8.49,-8.26 -12.73,-19.48 -12.73,-33.65 0,-4.31 0.42,-8.75 1.25,-13.33z"/>
   <path id="9" class="fil1" d="M7109.48 9037.86c4.73,-6.94 10.33,-12.36 16.81,-16.25 6.47,-3.89 13.68,-5.83 21.61,-5.83l-4.39 24.59 -6.05 0c-9.19,0 -16.56,2.29 -22.13,6.87 -5.57,4.58 -9.46,12.5 -11.69,23.75l-10.85 61.46 -23.8 0 20.25 -114.79 23.8 0 -3.55 20.21z"/>
   <path id="10" class="fil1" d="M7219.29 9015.77c14.33,0 25.78,4.03 34.34,12.09 8.56,8.06 12.84,18.89 12.84,32.5 0,3.19 -0.35,7.01 -1.04,11.46 -0.56,3.06 -1.53,6.81 -2.92,11.25l-87.89 0c-0.14,0.97 -0.21,2.43 -0.21,4.37 0,8.19 2.54,14.72 7.62,19.58 5.08,4.86 11.72,7.29 19.94,7.29 12.94,0 22.89,-5.35 29.85,-16.04l25.68 0c-5.29,10.56 -13.08,19.2 -23.38,25.94 -10.3,6.74 -22.2,10.1 -35.7,10.1 -9.61,0 -18.03,-1.87 -25.26,-5.63 -7.24,-3.75 -12.88,-9.13 -16.91,-16.15 -4.04,-7.01 -6.05,-15.24 -6.05,-24.69 0,-4.03 0.42,-8.33 1.25,-12.92 2.09,-11.81 6.33,-22.19 12.73,-31.15 6.41,-8.96 14.37,-15.87 23.91,-20.73 9.54,-4.86 19.94,-7.3 31.21,-7.3zm22.34 50.21c0.28,-2.5 0.42,-4.3 0.42,-5.41 0,-7.64 -2.54,-13.68 -7.62,-18.13 -5.08,-4.44 -11.66,-6.67 -19.73,-6.67 -8.49,0 -16.14,2.7 -22.96,8.12 -6.82,5.42 -11.48,12.78 -13.98,22.08l63.88 0z"/>
   <path id="11" class="fil1" d="M7280.25 9074.52c2.09,-11.53 6.3,-21.74 12.63,-30.63 6.33,-8.89 14.09,-15.8 23.28,-20.73 9.19,-4.93 18.79,-7.4 28.81,-7.4 9.05,0 16.63,1.77 22.76,5.31 6.13,3.54 10.72,7.95 13.78,13.23l2.93 -16.67 24 0 -20.25 114.79 -24.01 0 3.13 -17.08c-5.01,5.42 -11.31,9.93 -18.9,13.54 -7.59,3.61 -15.83,5.42 -24.74,5.42 -8.63,0 -16.31,-1.94 -23.07,-5.83 -6.75,-3.89 -12.04,-9.41 -15.87,-16.56 -3.83,-7.15 -5.74,-15.38 -5.74,-24.69 0,-4.17 0.42,-8.4 1.25,-12.71zm94.16 0.42c0.56,-2.64 0.83,-5.49 0.83,-8.54 0,-9.3 -2.75,-16.63 -8.25,-21.98 -5.5,-5.35 -12.35,-8.02 -20.56,-8.02 -6.12,0 -12.11,1.5 -17.95,4.48 -5.85,2.98 -10.93,7.36 -15.24,13.13 -4.32,5.76 -7.17,12.6 -8.56,20.52 -0.56,2.64 -0.83,5.49 -0.83,8.54 0,9.44 2.75,16.91 8.24,22.39 5.5,5.49 12.35,8.23 20.56,8.23 6.13,0 12.11,-1.53 17.96,-4.58 5.85,-3.06 10.93,-7.54 15.24,-13.44 4.31,-5.9 7.17,-12.81 8.56,-20.73z"/>
   <path id="12" class="fil1" d="M7452.91 9100.57c-0.28,1.94 -0.42,3.19 -0.42,3.75 0,2.92 0.9,5.04 2.71,6.35 1.81,1.32 4.8,1.98 8.98,1.98l14.62 0 -3.55 19.79 -18.79 0c-9.19,0 -16.21,-1.84 -21.08,-5.52 -4.87,-3.68 -7.31,-9.55 -7.31,-17.61 0,-3.06 0.28,-5.97 0.83,-8.75l11.28 -63.54 -13.57 0 3.34 -19.37 13.78 0 5.01 -28.54 24.01 0 -5.01 28.54 27.77 0 -3.34 19.37 -27.98 0 -11.27 63.54z"/>
   <path id="13" class="fil1" d="M7532.24 9002.44c-3.76,0 -6.81,-1.18 -9.19,-3.54 -2.37,-2.36 -3.55,-5.35 -3.55,-8.96 0,-4.86 1.85,-9.06 5.53,-12.61 3.69,-3.54 7.9,-5.31 12.63,-5.31 3.76,0 6.79,1.18 9.08,3.54 2.3,2.36 3.44,5.35 3.44,8.96 0,4.86 -1.81,9.06 -5.43,12.6 -3.62,3.54 -7.79,5.31 -12.53,5.31zm8.98 15.21l-20.25 114.79 -23.8 0 20.25 -114.79 23.8 0z"/>
   <path id="14" class="fil1" d="M7602.6 9134.31c-9.74,0 -18.3,-2.01 -25.68,-6.04 -7.37,-4.03 -13.12,-9.72 -17.22,-17.09 -4.11,-7.36 -6.16,-15.76 -6.16,-25.2 0,-12.92 3.02,-24.72 9.07,-35.42 6.06,-10.7 14.41,-19.17 25.06,-25.42 10.64,-6.25 22.51,-9.38 35.59,-9.38 9.74,0 18.37,2.05 25.89,6.15 7.52,4.09 13.39,9.79 17.64,17.08 4.24,7.29 6.37,15.73 6.37,25.31 0,12.92 -3.13,24.72 -9.39,35.42 -6.26,10.69 -14.76,19.13 -25.47,25.31 -10.72,6.18 -22.62,9.27 -35.7,9.27zm2.92 -20c7.94,0 15.2,-2.26 21.82,-6.77 6.61,-4.51 11.8,-10.48 15.55,-17.91 3.76,-7.43 5.64,-15.38 5.64,-23.85 0,-9.59 -2.71,-16.98 -8.14,-22.19 -5.43,-5.21 -12.25,-7.81 -20.46,-7.81 -8.07,0 -15.28,2.26 -21.61,6.77 -6.33,4.52 -11.27,10.56 -14.82,18.13 -3.55,7.57 -5.32,15.66 -5.32,24.27 0,9.31 2.54,16.53 7.62,21.67 5.08,5.14 11.66,7.71 19.73,7.71z"/>
   <path id="15" class="fil1" d="M7764.19 9015.77c12.11,0 21.74,3.23 28.91,9.69 7.17,6.46 10.75,15.73 10.75,27.81 0,3.06 -0.35,6.87 -1.05,11.46l-12.11 67.71 -23.59 0 11.48 -64.17c0.56,-3.89 0.84,-6.67 0.84,-8.33 0,-7.64 -2.12,-13.47 -6.37,-17.5 -4.25,-4.03 -10.13,-6.04 -17.65,-6.04 -9.05,0 -16.67,2.74 -22.86,8.23 -6.19,5.49 -10.13,13.37 -11.8,23.65l0 -0.63 -11.48 64.79 -23.8 0 20.25 -114.79 23.8 0 -2.3 13.33c4.74,-4.72 10.34,-8.44 16.81,-11.15 6.48,-2.71 13.19,-4.06 20.15,-4.06z"/>
   <path id="16" class="fil1" d="M7938.93 8997.86c15.87,0 29.58,2.91 41.13,8.75 11.55,5.83 20.35,13.99 26.41,24.48 6.05,10.48 9.08,22.67 9.08,36.56 0,11.11 -1.91,21.74 -5.74,31.87 -3.83,10.14 -9.33,18.4 -16.5,24.79 -7.17,6.39 -15.63,9.58 -25.37,9.58 -7.1,0 -12.67,-1.56 -16.7,-4.69 -4.04,-3.13 -6.54,-7.54 -7.52,-13.23 -4.31,5.56 -9.74,9.93 -16.28,13.12 -6.54,3.2 -13.36,4.79 -20.46,4.79 -10.72,0 -19.1,-3.23 -25.16,-9.69 -6.05,-6.46 -9.07,-15.24 -9.07,-26.35 0,-10.56 2.19,-20.42 6.57,-29.58 4.39,-9.17 10.55,-16.5 18.48,-21.98 7.93,-5.49 16.84,-8.23 26.72,-8.23 12.11,0 20.6,4.09 25.47,12.29l1.88 -10.42 20.67 0 -10.44 59.58c-0.42,2.92 -0.63,5.49 -0.63,7.71 0,3.61 0.73,6.32 2.19,8.13 1.46,1.8 4.07,2.71 7.83,2.71 5.29,0 9.81,-2.61 13.57,-7.81 3.76,-5.21 6.58,-11.63 8.46,-19.27 1.88,-7.64 2.81,-15.07 2.81,-22.3 0,-17.64 -5.15,-31.11 -15.44,-40.42 -10.3,-9.3 -25.26,-13.96 -44.89,-13.96 -16.42,0 -31.14,3.89 -44.15,11.67 -13.01,7.78 -23.21,18.47 -30.59,32.09 -7.37,13.61 -11.06,28.75 -11.06,45.42 0,17.78 5.29,31.32 15.87,40.62 10.58,9.31 25.68,13.96 45.3,13.96 13.22,0 24.78,-2.43 34.66,-7.29l3.13 15.83c-12.67,5.42 -26.86,8.13 -42.59,8.13 -15.17,0 -28.46,-2.85 -39.88,-8.54 -11.41,-5.7 -20.25,-13.79 -26.52,-24.27 -6.26,-10.49 -9.39,-22.67 -9.39,-36.56 0,-19.86 4.63,-37.99 13.89,-54.38 9.26,-16.39 22.09,-29.34 38.52,-38.85 16.43,-9.51 35.01,-14.27 55.74,-14.27zm-24.63 117.71c5.85,0 11.17,-1.7 15.97,-5.11 4.8,-3.4 8.6,-7.92 11.38,-13.54 2.79,-5.63 4.17,-11.63 4.17,-18.02 0,-6.67 -1.84,-12.12 -5.53,-16.35 -3.69,-4.24 -8.87,-6.35 -15.56,-6.35 -5.98,0 -11.24,1.84 -15.76,5.52 -4.53,3.68 -8,8.44 -10.44,14.27 -2.44,5.83 -3.65,11.94 -3.65,18.33 0,6.53 1.6,11.7 4.8,15.52 3.2,3.82 8.07,5.73 14.61,5.73z"/>
   <path id="17" class="fil1" d="M8102.19 9015.77c8.91,0 16.53,1.77 22.86,5.31 6.33,3.54 10.89,7.95 13.67,13.23l2.93 -16.67 24 0 -20.46 116.67c-1.95,10.56 -5.85,19.96 -11.69,28.23 -5.85,8.26 -13.43,14.76 -22.76,19.48 -9.33,4.72 -19.83,7.08 -31.52,7.08 -10.16,0 -19.07,-1.63 -26.72,-4.89 -7.65,-3.26 -13.43,-7.95 -17.33,-14.06 -3.9,-6.11 -5.57,-13.33 -5.01,-21.67l23.59 0c0.69,5.97 3.69,10.8 8.98,14.48 5.29,3.68 12.04,5.52 20.25,5.52 9.61,0 17.89,-2.92 24.85,-8.75 6.96,-5.83 11.41,-14.31 13.36,-25.42l3.34 -19.17c-5.01,5.42 -11.28,9.96 -18.79,13.65 -7.52,3.68 -15.66,5.52 -24.43,5.52 -8.77,0 -16.56,-1.94 -23.39,-5.83 -6.82,-3.89 -12.14,-9.41 -15.97,-16.56 -3.83,-7.15 -5.74,-15.38 -5.74,-24.69 0,-4.17 0.42,-8.4 1.25,-12.71 2.09,-11.53 6.3,-21.74 12.63,-30.63 6.33,-8.89 14.09,-15.8 23.28,-20.73 9.19,-4.93 18.79,-7.4 28.81,-7.4zm29.44 59.17c0.56,-2.64 0.83,-5.49 0.83,-8.54 0,-9.3 -2.75,-16.63 -8.25,-21.98 -5.5,-5.35 -12.35,-8.02 -20.56,-8.02 -6.12,0 -12.11,1.5 -17.95,4.48 -5.85,2.98 -10.93,7.36 -15.24,13.13 -4.31,5.76 -7.17,12.6 -8.56,20.52 -0.56,2.64 -0.83,5.49 -0.83,8.54 0,9.44 2.75,16.91 8.24,22.39 5.5,5.49 12.35,8.23 20.56,8.23 6.13,0 12.11,-1.53 17.96,-4.58 5.85,-3.06 10.93,-7.54 15.24,-13.44 4.31,-5.9 7.17,-12.81 8.56,-20.73z"/>
   <path id="18" class="fil1" d="M8336.64 9015.77c12.11,0 21.78,3.27 29.02,9.8 7.24,6.53 10.86,15.76 10.86,27.71 0,3.19 -0.35,7.01 -1.05,11.46l-12.11 67.71 -23.59 0 11.48 -64.17c0.56,-3.89 0.83,-6.67 0.83,-8.33 0,-7.64 -2.12,-13.47 -6.37,-17.5 -4.24,-4.03 -10.12,-6.04 -17.64,-6.04 -9.05,0 -16.67,2.74 -22.86,8.23 -6.2,5.49 -10.13,13.37 -11.8,23.65l-11.48 64.17 -23.59 0 11.48 -64.17c0.56,-3.89 0.83,-6.67 0.83,-8.33 0,-7.64 -2.12,-13.47 -6.37,-17.5 -4.24,-4.03 -10.13,-6.04 -17.64,-6.04 -9.05,0 -16.67,2.74 -22.86,8.23 -6.19,5.49 -10.13,13.37 -11.8,23.65l0 -0.63 -11.48 64.79 -23.8 0 20.25 -114.79 23.8 0 -2.3 13.33c4.59,-4.72 10.13,-8.44 16.59,-11.15 6.48,-2.71 13.19,-4.06 20.15,-4.06 9.19,0 17.08,1.94 23.7,5.83 6.61,3.89 11.24,9.52 13.88,16.87 4.59,-6.94 10.93,-12.46 19,-16.56 8.08,-4.1 16.36,-6.15 24.85,-6.15z"/>
   <path id="19" class="fil1" d="M8395.93 9074.52c2.09,-11.53 6.3,-21.74 12.63,-30.63 6.33,-8.89 14.09,-15.8 23.28,-20.73 9.19,-4.93 18.79,-7.4 28.81,-7.4 9.05,0 16.63,1.77 22.76,5.31 6.13,3.54 10.72,7.95 13.78,13.23l2.92 -16.67 24.01 0 -20.25 114.79 -24 0 3.13 -17.08c-5.01,5.42 -11.31,9.93 -18.89,13.54 -7.59,3.61 -15.83,5.42 -24.74,5.42 -8.63,0 -16.32,-1.94 -23.07,-5.83 -6.75,-3.89 -12.04,-9.41 -15.87,-16.56 -3.83,-7.15 -5.74,-15.38 -5.74,-24.69 0,-4.17 0.42,-8.4 1.25,-12.71zm94.16 0.42c0.56,-2.64 0.83,-5.49 0.83,-8.54 0,-9.3 -2.75,-16.63 -8.25,-21.98 -5.5,-5.35 -12.35,-8.02 -20.56,-8.02 -6.12,0 -12.11,1.5 -17.95,4.48 -5.85,2.98 -10.93,7.36 -15.24,13.13 -4.32,5.76 -7.17,12.6 -8.56,20.52 -0.56,2.64 -0.83,5.49 -0.83,8.54 0,9.44 2.75,16.91 8.24,22.39 5.5,5.49 12.35,8.23 20.56,8.23 6.13,0 12.11,-1.53 17.95,-4.58 5.85,-3.06 10.93,-7.54 15.24,-13.44 4.31,-5.9 7.17,-12.81 8.56,-20.73z"/>
   <path id="20" class="fil1" d="M8570.26 9002.44c-3.76,0 -6.82,-1.18 -9.19,-3.54 -2.37,-2.36 -3.55,-5.35 -3.55,-8.96 0,-4.86 1.85,-9.06 5.54,-12.61 3.69,-3.54 7.9,-5.31 12.63,-5.31 3.76,0 6.78,1.18 9.08,3.54 2.3,2.36 3.44,5.35 3.44,8.96 0,4.86 -1.81,9.06 -5.43,12.6 -3.62,3.54 -7.8,5.31 -12.53,5.31zm8.98 15.21l-20.25 114.79 -23.8 0 20.25 -114.79 23.8 0z"/>
   <polygon id="21" class="fil1" points="8641.45,8978.27 8614.1,9132.44 8590.3,9132.44 8617.65,8978.27 "/>
   <path id="22" class="fil1" d="M8654.81 9133.9c-3.76,0 -6.82,-1.18 -9.19,-3.54 -2.37,-2.36 -3.55,-5.35 -3.55,-8.96 0,-4.86 1.85,-9.06 5.54,-12.6 3.69,-3.54 7.9,-5.31 12.63,-5.31 3.76,0 6.78,1.18 9.08,3.54 2.3,2.36 3.44,5.35 3.44,8.96 0,4.86 -1.81,9.06 -5.43,12.6 -3.62,3.54 -7.8,5.31 -12.53,5.31z"/>
   <path id="23" class="fil1" d="M8698.03 9074.94c2.09,-11.81 6.3,-22.19 12.63,-31.15 6.33,-8.96 14.19,-15.87 23.59,-20.73 9.4,-4.86 19.59,-7.3 30.59,-7.3 13.92,0 24.85,3.3 32.78,9.9 7.93,6.6 12.45,16.01 13.57,28.23l-25.68 0c-1.11,-5.69 -3.69,-10.14 -7.72,-13.33 -4.04,-3.2 -9.53,-4.79 -16.49,-4.79 -9.74,0 -18.09,3.44 -25.06,10.31 -6.96,6.87 -11.55,16.49 -13.78,28.85 -0.7,4.44 -1.04,8.06 -1.04,10.83 0,9.17 2.3,16.21 6.89,21.15 4.59,4.93 11,7.39 19.21,7.39 13.78,0 23.94,-6.04 30.48,-18.13l25.68 0c-5.43,11.67 -13.33,20.94 -23.7,27.81 -10.37,6.87 -22.37,10.31 -36.01,10.31 -14.47,0 -25.96,-4.13 -34.44,-12.39 -8.49,-8.26 -12.74,-19.48 -12.74,-33.65 0,-4.31 0.42,-8.75 1.25,-13.33z"/>
   <path id="24" class="fil1" d="M8871.31 9134.31c-9.74,0 -18.3,-2.01 -25.68,-6.04 -7.37,-4.03 -13.12,-9.72 -17.22,-17.09 -4.11,-7.36 -6.16,-15.76 -6.16,-25.2 0,-12.92 3.03,-24.72 9.08,-35.42 6.06,-10.7 14.41,-19.17 25.06,-25.42 10.65,-6.25 22.51,-9.38 35.59,-9.38 9.74,0 18.37,2.05 25.89,6.15 7.52,4.09 13.39,9.79 17.64,17.08 4.25,7.29 6.37,15.73 6.37,25.31 0,12.92 -3.13,24.72 -9.39,35.42 -6.27,10.69 -14.76,19.13 -25.47,25.31 -10.72,6.18 -22.62,9.27 -35.7,9.27zm2.93 -20c7.93,0 15.2,-2.26 21.81,-6.77 6.61,-4.51 11.8,-10.48 15.56,-17.91 3.76,-7.43 5.64,-15.38 5.64,-23.85 0,-9.59 -2.72,-16.98 -8.15,-22.19 -5.43,-5.21 -12.24,-7.81 -20.46,-7.81 -8.07,0 -15.28,2.26 -21.61,6.77 -6.33,4.52 -11.27,10.56 -14.82,18.13 -3.55,7.57 -5.32,15.66 -5.32,24.27 0,9.31 2.54,16.53 7.62,21.67 5.08,5.14 11.66,7.71 19.73,7.71z"/>
   <path id="25" class="fil1" d="M9114.11 9015.77c12.11,0 21.78,3.27 29.02,9.8 7.24,6.53 10.86,15.76 10.86,27.71 0,3.19 -0.35,7.01 -1.05,11.46l-12.11 67.71 -23.59 0 11.48 -64.17c0.56,-3.89 0.83,-6.67 0.83,-8.33 0,-7.64 -2.13,-13.47 -6.37,-17.5 -4.24,-4.03 -10.12,-6.04 -17.64,-6.04 -9.05,0 -16.67,2.74 -22.86,8.23 -6.2,5.49 -10.13,13.37 -11.8,23.65l-11.48 64.17 -23.59 0 11.48 -64.17c0.56,-3.89 0.83,-6.67 0.83,-8.33 0,-7.64 -2.12,-13.47 -6.37,-17.5 -4.24,-4.03 -10.13,-6.04 -17.65,-6.04 -9.04,0 -16.66,2.74 -22.86,8.23 -6.19,5.49 -10.13,13.37 -11.8,23.65l0 -0.63 -11.48 64.79 -23.8 0 20.25 -114.79 23.8 0 -2.3 13.33c4.6,-4.72 10.13,-8.44 16.6,-11.15 6.48,-2.71 13.19,-4.06 20.15,-4.06 9.19,0 17.08,1.94 23.7,5.83 6.61,3.89 11.24,9.52 13.88,16.87 4.59,-6.94 10.93,-12.46 19,-16.56 8.07,-4.1 16.36,-6.15 24.85,-6.15z"/>
  </g>
  <rect class="fil0" x="172.95" y="9379.4" width="9646.68" height="430"/>
  <polygon class="fil1" points="3264.61,9610.29 3221.65,9610.29 3213.95,9653.8 3190.87,9653.8 3198.56,9610.29 3155.6,9610.29 3159.45,9588.54 3202.41,9588.54 3210.11,9545.02 3233.19,9545.02 3225.5,9588.54 3268.46,9588.54 "/>
  <path id="1" class="fil1" d="M3325.32 9634.18c0.43,14.5 8.55,21.76 24.37,21.76 10.12,0 18.24,-3.98 24.37,-11.94 6.13,-7.96 10.9,-21.54 14.31,-40.74 -4.27,4.83 -9.76,8.57 -16.45,11.2 -6.7,2.63 -13.69,3.95 -20.95,3.95 -12.54,0 -22.66,-3.34 -30.35,-10.03 -7.69,-6.68 -11.54,-16.21 -11.54,-28.58 0,-2.84 0.36,-6.54 1.07,-11.09 2.85,-15.64 9.69,-28.12 20.52,-37.43 10.83,-9.31 24.3,-13.97 40.4,-13.97 15.11,0 26.04,3.87 32.81,11.63 6.77,7.75 10.15,19.44 10.15,35.09 0,9.24 -1.07,19.84 -3.21,31.78 -3.28,18.34 -7.44,33.35 -12.5,45 -5.06,11.66 -11.9,20.48 -20.52,26.45 -8.63,5.97 -19.63,8.96 -33.03,8.96 -14.11,0 -24.65,-3.48 -31.63,-10.45 -6.98,-6.97 -10.47,-15.93 -10.47,-26.87 0,-2.13 0.07,-3.7 0.21,-4.69l22.44 0zm33.56 -36.26c8.55,0 15.74,-2.67 21.59,-8 5.84,-5.33 9.55,-12.41 11.11,-21.22 0.57,-3.7 0.85,-6.33 0.85,-7.89 0,-7.4 -2.14,-13.12 -6.41,-17.17 -4.27,-4.05 -10.26,-6.08 -17.95,-6.08 -8.98,0 -16.56,2.81 -22.76,8.43 -6.2,5.62 -10.08,12.98 -11.65,22.08 -0.43,2.27 -0.64,4.55 -0.64,6.82 0,6.83 2.14,12.37 6.41,16.64 4.28,4.27 10.76,6.4 19.45,6.4z"/>
  <polygon id="2" class="fil1" points="3442.88,9547.15 3446.94,9524.97 3491.4,9524.97 3464.47,9676.41 3439.89,9676.41 3462.76,9547.15 "/>
  <path id="3" class="fil1" d="M3599.98 9634.18c0.43,14.5 8.55,21.76 24.37,21.76 10.12,0 18.24,-3.98 24.37,-11.94 6.13,-7.96 10.9,-21.54 14.31,-40.74 -4.27,4.83 -9.76,8.57 -16.45,11.2 -6.7,2.63 -13.69,3.95 -20.95,3.95 -12.54,0 -22.66,-3.34 -30.35,-10.03 -7.69,-6.68 -11.54,-16.21 -11.54,-28.58 0,-2.84 0.36,-6.54 1.07,-11.09 2.85,-15.64 9.69,-28.12 20.52,-37.43 10.83,-9.31 24.3,-13.97 40.4,-13.97 15.11,0 26.04,3.87 32.81,11.63 6.77,7.75 10.15,19.44 10.15,35.09 0,9.24 -1.07,19.84 -3.21,31.78 -3.28,18.34 -7.44,33.35 -12.5,45 -5.06,11.66 -11.9,20.48 -20.52,26.45 -8.63,5.97 -19.63,8.96 -33.03,8.96 -14.11,0 -24.65,-3.48 -31.63,-10.45 -6.98,-6.97 -10.47,-15.93 -10.47,-26.87 0,-2.13 0.07,-3.7 0.21,-4.69l22.44 0zm33.56 -36.26c8.55,0 15.74,-2.67 21.59,-8 5.84,-5.33 9.55,-12.41 11.11,-21.22 0.57,-3.7 0.86,-6.33 0.86,-7.89 0,-7.4 -2.14,-13.12 -6.42,-17.17 -4.27,-4.05 -10.26,-6.08 -17.95,-6.08 -8.98,0 -16.57,2.81 -22.76,8.43 -6.2,5.62 -10.09,12.98 -11.65,22.08 -0.43,2.27 -0.64,4.55 -0.64,6.82 0,6.83 2.14,12.37 6.41,16.64 4.28,4.27 10.76,6.4 19.45,6.4z"/>
  <path id="4" class="fil1" d="M3700.66 9643.99l3.2 -18.34 89.99 -102.81 29.5 0 -17.53 100.04 19.88 0 -3.85 21.12 -19.88 0 -5.77 32.42 -23.94 0 5.77 -32.42 -77.37 0zm95.54 -96.41l-63.7 75.3 50.44 0 13.25 -75.3z"/>
  <path id="5" class="fil1" d="M3856.69 9642.5c15.53,-11.52 27.85,-21.01 36.97,-28.48 9.12,-7.46 16.99,-15.22 23.62,-23.25 6.62,-8.04 10.58,-15.96 11.86,-23.78 0.43,-2.42 0.64,-4.69 0.64,-6.83 0,-6.11 -1.7,-10.88 -5.13,-14.29 -3.42,-3.41 -8.83,-5.12 -16.24,-5.12 -8.26,0 -15.18,2.67 -20.74,8 -5.56,5.33 -9.33,12.48 -11.33,21.44l-23.51 0c3.28,-16.21 10.33,-28.62 21.16,-37.22 10.83,-8.6 23.51,-12.9 38.05,-12.9 13.54,0 23.98,3.27 31.31,9.81 7.34,6.54 11.01,15.36 11.01,26.45 0,3.41 -0.29,6.61 -0.86,9.6 -1.71,9.81 -5.98,19.34 -12.83,28.58 -6.83,9.24 -14.46,17.56 -22.87,24.95 -8.41,7.4 -19.09,16 -32.06,25.81l-11.33 8.74 67.76 0 -3.63 20.26 -103.88 0 3.21 -17.7 18.81 -14.07z"/>
  <path id="6" class="fil1" d="M4064.45 9556.96c-0.43,-6.54 -2.42,-11.44 -5.98,-14.72 -3.56,-3.27 -9.05,-4.91 -16.46,-4.91 -11.26,0 -20.41,4.3 -27.46,12.91 -7.06,8.6 -12.5,22.86 -16.35,42.76 4.84,-6.26 11.15,-11.09 18.91,-14.5 7.77,-3.41 15.78,-5.12 24.05,-5.12 12.26,0 21.94,3.41 29.07,10.24 7.13,6.82 10.69,16.35 10.69,28.58 0,4.69 -0.36,8.82 -1.07,12.37 -1.71,9.95 -5.24,18.84 -10.58,26.66 -5.35,7.82 -12.26,13.97 -20.73,18.45 -8.48,4.48 -18.14,6.72 -28.97,6.72 -16.38,0 -28.14,-4.09 -35.27,-12.26 -7.12,-8.18 -10.69,-20.16 -10.69,-35.94 0,-9.1 1.14,-20.12 3.42,-33.06 9.12,-52.04 32.06,-78.07 68.82,-78.07 9.69,0 17.67,1.81 23.94,5.44 6.27,3.63 10.8,8.46 13.57,14.5 2.78,6.04 3.95,12.69 3.53,19.94l-22.44 0zm-32.28 36.9c-8.69,0 -16.53,2.59 -23.52,7.79 -6.98,5.19 -11.33,12.69 -13.03,22.5 -0.43,2.56 -0.65,5.12 -0.65,7.68 0,7.54 2.28,13.47 6.84,17.81 4.56,4.33 11.26,6.5 20.09,6.5 8.98,0 16.56,-2.77 22.76,-8.32 6.2,-5.54 10.08,-12.94 11.65,-22.18 0.57,-2.7 0.85,-5.55 0.85,-8.53 0,-7.26 -2.07,-12.94 -6.2,-17.07 -4.13,-4.12 -10.41,-6.19 -18.81,-6.19z"/>
  <path id="7" class="fil1" d="M4221.13 9541.82l-71.61 0 -7.48 42.44c3.7,-3.98 8.73,-7.32 15.07,-10.02 6.34,-2.7 12.86,-4.06 19.56,-4.06 14.68,0 25.33,3.77 31.96,11.31 6.62,7.54 9.94,17.06 9.94,28.58 0,3.7 -0.35,7.68 -1.07,11.94 -2.85,16.21 -9.8,29.33 -20.84,39.35 -11.05,10.03 -25.26,15.04 -42.65,15.04 -15.53,0 -27.29,-3.84 -35.27,-11.52 -7.98,-7.68 -11.83,-17.85 -11.54,-30.5l23.73 0c0.43,6.69 2.99,11.98 7.69,15.89 4.7,3.91 11.12,5.87 19.24,5.87 10.12,0 18.24,-3.06 24.37,-9.17 6.13,-6.11 10.11,-14.22 11.97,-24.31 0.57,-2.84 0.85,-5.76 0.85,-8.74 0,-7.39 -2.17,-13.08 -6.52,-17.06 -4.35,-3.98 -10.72,-5.97 -19.13,-5.97 -6.98,0 -13.15,1.74 -18.49,5.22 -5.35,3.48 -9.65,8.21 -12.93,14.19l-23.08 0 15.81 -89.8 94.05 0 -3.63 21.33z"/>
  <polygon id="8" class="fil1" points="4356.22,9539.69 4272.64,9676.41 4245.93,9676.41 4332.07,9541.82 4252.98,9541.82 4256.4,9521.56 4359.42,9521.56 "/>
  <polygon id="9" class="fil1" points="4475.92,9539.69 4392.34,9676.41 4365.62,9676.41 4451.76,9541.82 4372.68,9541.82 4376.1,9521.56 4479.12,9521.56 "/>
  <path id="10" class="fil1" d="M4486.61 9598.35c4.28,-24.03 11.79,-42.94 22.55,-56.74 10.76,-13.8 26.33,-20.69 46.7,-20.69 15.81,0 27.21,4.3 34.2,12.91 6.98,8.6 10.47,20.58 10.47,35.94 0,8.25 -0.93,17.78 -2.78,28.58 -4.28,24.17 -11.79,43.16 -22.55,56.95 -10.76,13.8 -26.33,20.69 -46.7,20.69 -15.81,0 -27.22,-4.3 -34.2,-12.91 -6.98,-8.6 -10.47,-20.65 -10.47,-36.15 0,-7.96 0.93,-17.49 2.78,-28.58zm87.21 0c1.85,-11.38 2.78,-20.19 2.78,-26.45 0,-9.1 -1.85,-16.18 -5.56,-21.22 -3.7,-5.05 -10.05,-7.57 -19.02,-7.57 -8.98,0 -16.21,2.49 -21.7,7.46 -5.48,4.98 -9.65,11.37 -12.5,19.2 -2.85,7.82 -5.27,17.35 -7.26,28.58 -2,10.95 -3,19.76 -3,26.45 0,9.24 1.85,16.39 5.56,21.44 3.7,5.05 10.11,7.57 19.24,7.57 8.98,0 16.21,-2.49 21.7,-7.46 5.49,-4.98 9.65,-11.38 12.5,-19.2 2.85,-7.82 5.27,-17.42 7.27,-28.8z"/>
  <path id="11" class="fil1" d="M4623.62 9598.35c4.28,-24.03 11.79,-42.94 22.55,-56.74 10.76,-13.8 26.33,-20.69 46.7,-20.69 15.81,0 27.21,4.3 34.2,12.91 6.98,8.6 10.47,20.58 10.47,35.94 0,8.25 -0.93,17.78 -2.78,28.58 -4.28,24.17 -11.79,43.16 -22.55,56.95 -10.76,13.8 -26.33,20.69 -46.7,20.69 -15.81,0 -27.22,-4.3 -34.2,-12.91 -6.98,-8.6 -10.47,-20.65 -10.47,-36.15 0,-7.96 0.93,-17.49 2.78,-28.58zm87.21 0c1.85,-11.38 2.78,-20.19 2.78,-26.45 0,-9.1 -1.85,-16.18 -5.56,-21.22 -3.7,-5.05 -10.05,-7.57 -19.02,-7.57 -8.98,0 -16.21,2.49 -21.7,7.46 -5.48,4.98 -9.65,11.37 -12.5,19.2 -2.85,7.82 -5.27,17.35 -7.26,28.58 -2,10.95 -3,19.76 -3,26.45 0,9.24 1.85,16.39 5.56,21.44 3.7,5.05 10.11,7.57 19.24,7.57 8.98,0 16.21,-2.49 21.7,-7.46 5.49,-4.98 9.65,-11.38 12.5,-19.2 2.85,-7.82 5.27,-17.42 7.27,-28.8z"/>
  <path id="12" class="fil1" d="M4851.69 9556.96c-0.43,-6.54 -2.42,-11.44 -5.98,-14.72 -3.56,-3.27 -9.05,-4.91 -16.46,-4.91 -11.26,0 -20.41,4.3 -27.46,12.91 -7.06,8.6 -12.5,22.86 -16.35,42.76 4.84,-6.26 11.15,-11.09 18.91,-14.5 7.77,-3.41 15.78,-5.12 24.05,-5.12 12.26,0 21.94,3.41 29.07,10.24 7.13,6.82 10.69,16.35 10.69,28.58 0,4.69 -0.36,8.82 -1.07,12.37 -1.71,9.95 -5.24,18.84 -10.58,26.66 -5.35,7.82 -12.26,13.97 -20.73,18.45 -8.48,4.48 -18.14,6.72 -28.97,6.72 -16.38,0 -28.14,-4.09 -35.26,-12.26 -7.13,-8.18 -10.69,-20.16 -10.69,-35.94 0,-9.1 1.14,-20.12 3.42,-33.06 9.12,-52.04 32.06,-78.07 68.82,-78.07 9.69,0 17.67,1.81 23.94,5.44 6.27,3.63 10.8,8.46 13.57,14.5 2.78,6.04 3.95,12.69 3.53,19.94l-22.44 0zm-32.28 36.9c-8.69,0 -16.53,2.59 -23.52,7.79 -6.98,5.19 -11.33,12.69 -13.03,22.5 -0.43,2.56 -0.65,5.12 -0.65,7.68 0,7.54 2.28,13.47 6.84,17.81 4.56,4.33 11.26,6.5 20.09,6.5 8.98,0 16.56,-2.77 22.76,-8.32 6.2,-5.54 10.08,-12.94 11.65,-22.18 0.57,-2.7 0.85,-5.55 0.85,-8.53 0,-7.26 -2.07,-12.94 -6.2,-17.07 -4.13,-4.12 -10.41,-6.19 -18.81,-6.19z"/>
  <polygon id="13" class="fil1" points="5066.07,9475.06 4965.61,9713.74 4941.67,9713.74 5041.92,9475.06 "/>
  <polygon id="14" class="fil1" points="5251.81,9610.29 5208.85,9610.29 5201.15,9653.8 5178.07,9653.8 5185.76,9610.29 5142.8,9610.29 5146.65,9588.54 5189.61,9588.54 5197.31,9545.02 5220.39,9545.02 5212.7,9588.54 5255.66,9588.54 "/>
  <path id="15" class="fil1" d="M5312.52 9634.18c0.43,14.5 8.55,21.76 24.37,21.76 10.12,0 18.24,-3.98 24.37,-11.94 6.13,-7.96 10.9,-21.54 14.32,-40.74 -4.27,4.83 -9.76,8.57 -16.46,11.2 -6.7,2.63 -13.68,3.95 -20.95,3.95 -12.54,0 -22.66,-3.34 -30.35,-10.03 -7.69,-6.68 -11.54,-16.21 -11.54,-28.58 0,-2.84 0.36,-6.54 1.07,-11.09 2.85,-15.64 9.69,-28.12 20.52,-37.43 10.83,-9.31 24.3,-13.97 40.4,-13.97 15.11,0 26.04,3.87 32.81,11.63 6.77,7.75 10.16,19.44 10.16,35.09 0,9.24 -1.07,19.84 -3.21,31.78 -3.28,18.34 -7.44,33.35 -12.5,45 -5.06,11.66 -11.9,20.48 -20.52,26.45 -8.62,5.97 -19.63,8.96 -33.02,8.96 -14.11,0 -24.65,-3.48 -31.63,-10.45 -6.98,-6.97 -10.48,-15.93 -10.48,-26.87 0,-2.13 0.07,-3.7 0.22,-4.69l22.44 0zm33.56 -36.26c8.55,0 15.75,-2.67 21.59,-8 5.84,-5.33 9.55,-12.41 11.11,-21.22 0.57,-3.7 0.85,-6.33 0.85,-7.89 0,-7.4 -2.14,-13.12 -6.41,-17.17 -4.27,-4.05 -10.26,-6.08 -17.95,-6.08 -8.98,0 -16.57,2.81 -22.76,8.43 -6.2,5.62 -10.08,12.98 -11.65,22.08 -0.43,2.27 -0.64,4.55 -0.64,6.82 0,6.83 2.14,12.37 6.41,16.64 4.27,4.27 10.76,6.4 19.45,6.4z"/>
  <polygon id="16" class="fil1" points="5430.08,9547.15 5434.14,9524.97 5478.6,9524.97 5451.67,9676.41 5427.08,9676.41 5449.96,9547.15 "/>
  <polygon id="17" class="fil1" points="5672.25,9539.69 5588.67,9676.41 5561.96,9676.41 5648.1,9541.82 5569.01,9541.82 5572.43,9521.56 5675.46,9521.56 "/>
  <path id="18" class="fil1" d="M5689.35 9559.31c3.14,-13.22 10.05,-23.53 20.74,-30.93 10.69,-7.39 23.3,-11.09 37.83,-11.09 13.25,0 23.44,3.06 30.57,9.17 7.12,6.11 10.69,14.08 10.69,23.89 0,2.42 -0.21,4.91 -0.64,7.46 -1.57,8.81 -5.2,16.35 -10.9,22.61 -5.7,6.26 -12.11,10.45 -19.24,12.58l0 0.85c6.55,2.13 11.61,5.72 15.17,10.77 3.56,5.05 5.35,11.48 5.35,19.3 0,3.56 -0.28,6.83 -0.86,9.81 -2.28,12.8 -8.51,23.25 -18.7,31.36 -10.19,8.1 -23.19,12.16 -39.01,12.16 -13.96,0 -25.15,-3.31 -33.56,-9.92 -8.41,-6.61 -12.61,-16.1 -12.61,-28.47 0,-3.27 0.14,-5.76 0.43,-7.47l23.52 0c-0.14,0.71 -0.22,1.78 -0.22,3.2 0,6.69 2.21,12.09 6.63,16.21 4.42,4.12 10.76,6.19 19.02,6.19 8.83,0 16.03,-2.38 21.59,-7.15 5.56,-4.76 8.98,-10.91 10.26,-18.45 0.43,-2.42 0.65,-4.55 0.65,-6.4 0,-7.54 -2.85,-12.94 -8.55,-16.21 -5.7,-3.27 -14.39,-4.91 -26.08,-4.91l-5.56 0 3.63 -20.05 5.77 0c11.54,-0.14 20.66,-2.06 27.36,-5.76 6.7,-3.7 10.76,-9.53 12.18,-17.49 0.28,-2.28 0.43,-3.91 0.43,-4.91 0,-5.4 -1.85,-9.67 -5.56,-12.8 -3.7,-3.13 -9.12,-4.69 -16.24,-4.69 -7.98,0 -14.57,2.02 -19.77,6.08 -5.2,4.05 -8.72,9.06 -10.58,15.04l-23.73 0z"/>
  <path id="19" class="fil1" d="M5837.06 9593.01c-11.12,-6.11 -16.67,-15.21 -16.67,-27.3 0,-2.42 0.21,-4.98 0.64,-7.68 1.43,-7.82 4.63,-14.89 9.62,-21.22 4.99,-6.33 11.65,-11.37 19.99,-15.14 8.33,-3.77 18.06,-5.65 29.17,-5.65 14.68,0 25.76,3.2 33.24,9.6 7.48,6.4 11.22,14.72 11.22,24.96 0,2.42 -0.21,4.91 -0.64,7.46 -1.43,7.96 -4.7,14.97 -9.83,21.01 -5.13,6.04 -11.33,10.7 -18.6,13.97 6.41,2.56 11.4,6.51 14.96,11.84 3.56,5.33 5.34,11.7 5.34,19.09 0,1.71 -0.28,4.55 -0.85,8.53 -1.71,9.67 -5.56,18.09 -11.54,25.28 -5.98,7.18 -13.54,12.73 -22.66,16.64 -9.12,3.91 -19.02,5.87 -29.71,5.87 -14.39,0 -25.9,-3.45 -34.52,-10.34 -8.62,-6.9 -12.93,-16.32 -12.93,-28.26 0,-3.27 0.29,-6.33 0.85,-9.17 1.71,-9.67 5.49,-17.92 11.33,-24.74 5.84,-6.83 13.04,-11.73 21.59,-14.72zm39.11 -56.74c-8.55,0 -15.67,2.13 -21.37,6.4 -5.7,4.27 -9.26,10.45 -10.69,18.56 -0.28,1.99 -0.43,3.41 -0.43,4.26 0,5.97 2.17,10.77 6.52,14.4 4.34,3.63 10.15,5.44 17.42,5.44 5.98,0 11.47,-1.31 16.46,-3.94 4.98,-2.63 8.94,-6.19 11.86,-10.67 2.92,-4.48 4.38,-9.49 4.38,-15.04 0,-6.26 -2.1,-11.06 -6.3,-14.4 -4.2,-3.34 -10.15,-5.01 -17.85,-5.01zm-11.97 67.4c-9.41,0 -17.45,2.35 -24.15,7.04 -6.69,4.69 -10.9,11.66 -12.61,20.91 -0.29,1.28 -0.43,3.2 -0.43,5.76 0,6.97 2.39,12.48 7.16,16.53 4.78,4.06 11.51,6.08 20.2,6.08 7.27,0 13.68,-1.49 19.24,-4.48 5.56,-2.99 9.9,-7.11 13.04,-12.37 3.14,-5.26 4.7,-11.16 4.7,-17.7 0,-7.11 -2.43,-12.51 -7.27,-16.21 -4.85,-3.7 -11.47,-5.55 -19.88,-5.55z"/>
  <path id="20" class="fil1" d="M5952.69 9559.31c3.14,-13.22 10.05,-23.53 20.74,-30.93 10.69,-7.39 23.3,-11.09 37.83,-11.09 13.25,0 23.44,3.06 30.57,9.17 7.12,6.11 10.68,14.08 10.68,23.89 0,2.42 -0.21,4.91 -0.64,7.46 -1.57,8.81 -5.2,16.35 -10.9,22.61 -5.7,6.26 -12.11,10.45 -19.24,12.58l0 0.85c6.55,2.13 11.61,5.72 15.17,10.77 3.56,5.05 5.35,11.48 5.35,19.3 0,3.56 -0.28,6.83 -0.86,9.81 -2.28,12.8 -8.51,23.25 -18.7,31.36 -10.19,8.1 -23.19,12.16 -39.01,12.16 -13.96,0 -25.15,-3.31 -33.56,-9.92 -8.41,-6.61 -12.61,-16.1 -12.61,-28.47 0,-3.27 0.14,-5.76 0.43,-7.47l23.52 0c-0.14,0.71 -0.22,1.78 -0.22,3.2 0,6.69 2.21,12.09 6.63,16.21 4.42,4.12 10.76,6.19 19.02,6.19 8.83,0 16.03,-2.38 21.59,-7.15 5.56,-4.76 8.98,-10.91 10.26,-18.45 0.43,-2.42 0.65,-4.55 0.65,-6.4 0,-7.54 -2.85,-12.94 -8.55,-16.21 -5.7,-3.27 -14.39,-4.91 -26.08,-4.91l-5.56 0 3.63 -20.05 5.77 0c11.54,-0.14 20.66,-2.06 27.36,-5.76 6.7,-3.7 10.76,-9.53 12.18,-17.49 0.29,-2.28 0.43,-3.91 0.43,-4.91 0,-5.4 -1.85,-9.67 -5.56,-12.8 -3.7,-3.13 -9.12,-4.69 -16.25,-4.69 -7.98,0 -14.57,2.02 -19.77,6.08 -5.2,4.05 -8.72,9.06 -10.58,15.04l-23.73 0z"/>
  <path id="21" class="fil1" d="M6100.39 9593.01c-11.12,-6.11 -16.67,-15.21 -16.67,-27.3 0,-2.42 0.21,-4.98 0.64,-7.68 1.43,-7.82 4.63,-14.89 9.62,-21.22 4.99,-6.33 11.65,-11.37 19.99,-15.14 8.34,-3.77 18.06,-5.65 29.18,-5.65 14.67,0 25.76,3.2 33.24,9.6 7.48,6.4 11.22,14.72 11.22,24.96 0,2.42 -0.21,4.91 -0.64,7.46 -1.43,7.96 -4.7,14.97 -9.83,21.01 -5.13,6.04 -11.33,10.7 -18.6,13.97 6.41,2.56 11.4,6.51 14.96,11.84 3.56,5.33 5.35,11.7 5.35,19.09 0,1.71 -0.29,4.55 -0.86,8.53 -1.71,9.67 -5.56,18.09 -11.54,25.28 -5.98,7.18 -13.54,12.73 -22.66,16.64 -9.12,3.91 -19.02,5.87 -29.71,5.87 -14.39,0 -25.9,-3.45 -34.52,-10.34 -8.62,-6.9 -12.93,-16.32 -12.93,-28.26 0,-3.27 0.29,-6.33 0.85,-9.17 1.71,-9.67 5.49,-17.92 11.33,-24.74 5.84,-6.83 13.04,-11.73 21.59,-14.72zm39.11 -56.74c-8.55,0 -15.68,2.13 -21.38,6.4 -5.7,4.27 -9.26,10.45 -10.69,18.56 -0.29,1.99 -0.43,3.41 -0.43,4.26 0,5.97 2.18,10.77 6.52,14.4 4.34,3.63 10.15,5.44 17.42,5.44 5.98,0 11.47,-1.31 16.46,-3.94 4.99,-2.63 8.94,-6.19 11.86,-10.67 2.92,-4.48 4.38,-9.49 4.38,-15.04 0,-6.26 -2.1,-11.06 -6.31,-14.4 -4.2,-3.34 -10.15,-5.01 -17.85,-5.01zm-11.97 67.4c-9.41,0 -17.45,2.35 -24.15,7.04 -6.69,4.69 -10.9,11.66 -12.61,20.91 -0.29,1.28 -0.43,3.2 -0.43,5.76 0,6.97 2.39,12.48 7.16,16.53 4.78,4.06 11.51,6.08 20.2,6.08 7.27,0 13.68,-1.49 19.24,-4.48 5.56,-2.99 9.91,-7.11 13.04,-12.37 3.14,-5.26 4.7,-11.16 4.7,-17.7 0,-7.11 -2.43,-12.51 -7.27,-16.21 -4.85,-3.7 -11.47,-5.55 -19.88,-5.55z"/>
  <polygon id="22" class="fil1" points="6318.63,9539.69 6235.06,9676.41 6208.33,9676.41 6294.48,9541.82 6215.39,9541.82 6218.81,9521.56 6321.83,9521.56 "/>
  <polygon id="23" class="fil1" points="6438.33,9539.69 6354.75,9676.41 6328.04,9676.41 6414.18,9541.82 6335.09,9541.82 6338.51,9521.56 6441.53,9521.56 "/>
  <path id="24" class="fil1" d="M6449.02 9598.35c4.28,-24.03 11.8,-42.94 22.55,-56.74 10.76,-13.8 26.33,-20.69 46.7,-20.69 15.82,0 27.22,4.3 34.2,12.91 6.98,8.6 10.48,20.58 10.48,35.94 0,8.25 -0.93,17.78 -2.78,28.58 -4.28,24.17 -11.8,43.16 -22.55,56.95 -10.76,13.8 -26.33,20.69 -46.7,20.69 -15.82,0 -27.22,-4.3 -34.2,-12.91 -6.98,-8.6 -10.47,-20.65 -10.47,-36.15 0,-7.96 0.92,-17.49 2.78,-28.58zm87.21 0c1.85,-11.38 2.78,-20.19 2.78,-26.45 0,-9.1 -1.85,-16.18 -5.56,-21.22 -3.7,-5.05 -10.04,-7.57 -19.02,-7.57 -8.98,0 -16.2,2.49 -21.69,7.46 -5.48,4.98 -9.65,11.37 -12.5,19.2 -2.85,7.82 -5.27,17.35 -7.27,28.58 -2,10.95 -2.99,19.76 -2.99,26.45 0,9.24 1.85,16.39 5.56,21.44 3.7,5.05 10.11,7.57 19.24,7.57 8.98,0 16.21,-2.49 21.69,-7.46 5.49,-4.98 9.65,-11.38 12.51,-19.2 2.85,-7.82 5.27,-17.42 7.27,-28.8z"/>
  <path id="25" class="fil1" d="M6586.03 9598.35c4.28,-24.03 11.8,-42.94 22.55,-56.74 10.76,-13.8 26.33,-20.69 46.7,-20.69 15.82,0 27.22,4.3 34.2,12.91 6.98,8.6 10.48,20.58 10.48,35.94 0,8.25 -0.93,17.78 -2.78,28.58 -4.28,24.17 -11.79,43.16 -22.55,56.95 -10.76,13.8 -26.33,20.69 -46.7,20.69 -15.82,0 -27.22,-4.3 -34.2,-12.91 -6.98,-8.6 -10.47,-20.65 -10.47,-36.15 0,-7.96 0.92,-17.49 2.78,-28.58zm87.21 0c1.85,-11.38 2.78,-20.19 2.78,-26.45 0,-9.1 -1.85,-16.18 -5.56,-21.22 -3.7,-5.05 -10.04,-7.57 -19.02,-7.57 -8.98,0 -16.2,2.49 -21.69,7.46 -5.48,4.98 -9.66,11.37 -12.5,19.2 -2.85,7.82 -5.27,17.35 -7.27,28.58 -2,10.95 -3,19.76 -3,26.45 0,9.24 1.85,16.39 5.56,21.44 3.7,5.05 10.12,7.57 19.24,7.57 8.98,0 16.21,-2.49 21.69,-7.46 5.49,-4.98 9.65,-11.38 12.51,-19.2 2.85,-7.82 5.27,-17.42 7.27,-28.8z"/>
  <path id="26" class="fil1" d="M6814.1 9556.96c-0.43,-6.54 -2.43,-11.44 -5.98,-14.72 -3.56,-3.27 -9.05,-4.91 -16.46,-4.91 -11.26,0 -20.41,4.3 -27.47,12.91 -7.06,8.6 -12.5,22.86 -16.35,42.76 4.85,-6.26 11.15,-11.09 18.92,-14.5 7.77,-3.41 15.78,-5.12 24.04,-5.12 12.26,0 21.95,3.41 29.07,10.24 7.13,6.82 10.69,16.35 10.69,28.58 0,4.69 -0.36,8.82 -1.07,12.37 -1.71,9.95 -5.24,18.84 -10.58,26.66 -5.35,7.82 -12.25,13.97 -20.73,18.45 -8.48,4.48 -18.13,6.72 -28.96,6.72 -16.39,0 -28.14,-4.09 -35.27,-12.26 -7.13,-8.18 -10.69,-20.16 -10.69,-35.94 0,-9.1 1.14,-20.12 3.42,-33.06 9.12,-52.04 32.06,-78.07 68.83,-78.07 9.69,0 17.67,1.81 23.94,5.44 6.27,3.63 10.79,8.46 13.57,14.5 2.78,6.04 3.95,12.69 3.53,19.94l-22.44 0zm-32.28 36.9c-8.69,0 -16.53,2.59 -23.52,7.79 -6.98,5.19 -11.33,12.69 -13.04,22.5 -0.43,2.56 -0.64,5.12 -0.64,7.68 0,7.54 2.28,13.47 6.84,17.81 4.56,4.33 11.26,6.5 20.09,6.5 8.98,0 16.57,-2.77 22.76,-8.32 6.2,-5.54 10.09,-12.94 11.65,-22.18 0.57,-2.7 0.86,-5.55 0.86,-8.53 0,-7.26 -2.07,-12.94 -6.2,-17.07 -4.14,-4.12 -10.41,-6.19 -18.81,-6.19z"/>
  <path class="fil0" d="M757.3 649.5l0 373.37 175.23 -173.7 519.72 515.37 -204.3 0 -315.44 -312.8 -319.07 316.26 0 -862.37 488.45 0c156.59,0 283.57,126.99 283.57,283.57 0,90.44 -42.89,174.85 -115.34,228.3l-103.63 -102.76 16.26 -11.57c36.98,-26.31 58.86,-68.48 58.86,-113.97 0,-77.19 -62.53,-139.72 -139.72,-139.72l-344.6 0z"/>
  <path class="fil2" d="M875.81 1245.53l49.25 0 0 49.25 -49.25 0 0 -49.25zm73.23 0l49.25 0 0 49.25 -49.25 0 0 -49.25zm49.25 73.23l0 49.25 -49.25 0 0 -49.25 49.25 0zm-73.23 49.25l-49.25 0 0 -49.25 49.25 0 0 49.25z"/>
  <path class="fil3" d="M1699.98 765.97l15.75 0c45.76,0 76.15,-5.33 91.16,-16 15.01,-10.67 22.57,-29.52 22.57,-56.68 0,-29.27 -8.06,-49.85 -24.19,-61.89 -16.12,-12.03 -46.01,-17.98 -89.54,-17.98l-15.75 0 0 152.55zm-5.21 66.97l0 238.13 -81.11 0 0 -532.06 120.55 0c35.35,0 62.76,2.36 82.35,6.95 19.47,4.59 36.09,12.15 49.86,22.82 16.49,12.9 29.15,29.52 38.2,49.86 8.93,20.34 13.4,42.54 13.4,66.85 0,42.54 -10.3,75.9 -30.89,100.09 -20.59,24.06 -50.97,38.57 -91.15,43.41l183.06 242.09 -97.48 0 -177.1 -238.13 -9.68 0zm455.41 29.02l148.33 0 -54.57 -121.3c-3.1,-7.69 -6.45,-16.62 -9.8,-26.66 -3.35,-10.05 -6.82,-21.21 -10.17,-33.61 -2.85,11.66 -5.95,22.45 -9.3,32.5 -3.22,10.04 -6.57,19.35 -9.92,27.78l-54.57 121.3zm239.12 209.1l-60.28 -136.92 -210.84 0 -61.76 136.92 -90.78 0 257.59 -552.89 257.35 552.89 -91.28 0zm151.8 -96.74c8.93,10.67 17.61,18.36 25.8,23.19 8.31,4.84 16.99,7.32 26.17,7.32 16.99,0 28.9,-5.58 35.84,-16.74 6.82,-11.16 10.29,-31.87 10.29,-62.13l0 -386.95 85.58 0 0 414.98c0,45.02 -9.92,78.13 -29.77,99.34 -19.84,21.21 -50.85,31.87 -92.89,31.87 -23.31,0 -44.28,-4.46 -63,-13.39 -18.72,-9.06 -36.46,-22.94 -53.2,-41.92l55.19 -55.56zm350.36 -112.36l148.33 0 -54.57 -121.3c-3.1,-7.69 -6.45,-16.62 -9.8,-26.66 -3.35,-10.05 -6.82,-21.21 -10.17,-33.61 -2.85,11.66 -5.95,22.45 -9.3,32.5 -3.22,10.04 -6.57,19.35 -9.92,27.78l-54.57 121.3zm239.11 209.1l-60.28 -136.92 -210.84 0 -61.76 136.92 -90.79 0 257.59 -552.89 257.35 552.89 -91.28 0z"/>
  <path class="fil3" d="M1731.91 1225.81c-9.16,-9.96 -18.95,-17.34 -29.31,-22.08 -10.41,-4.78 -21.9,-7.15 -34.46,-7.15 -10.14,0 -20.02,2.06 -29.67,6.17 -9.61,4.11 -18.01,9.83 -25.07,17.16 -7.33,7.59 -12.83,16.09 -16.49,25.47 -3.67,9.39 -5.5,19.75 -5.5,31.11 0,8.89 1.07,17.11 3.26,24.62 2.19,7.51 5.45,14.39 9.83,20.69 7.69,10.91 17.12,19.31 28.33,25.2 11.22,5.9 23.33,8.85 36.33,8.85 12.24,0 23.59,-2.55 34.06,-7.6 10.5,-5.05 20.06,-12.6 28.69,-22.66l0 30.26c-9.52,6.88 -19.75,12.11 -30.7,15.64 -10.95,3.53 -22.3,5.27 -34.01,5.27 -10.1,0 -19.98,-1.52 -29.58,-4.51 -9.61,-3 -18.59,-7.42 -27,-13.19 -13.94,-9.65 -24.63,-21.59 -32,-35.71 -7.37,-14.17 -11.08,-29.67 -11.08,-46.61 0,-14.75 2.46,-28.2 7.42,-40.27 4.91,-12.11 12.43,-23.06 22.57,-32.94 9.79,-9.43 20.61,-16.49 32.49,-21.14 11.89,-4.69 24.85,-7.02 38.88,-7.02 11.13,0 21.85,1.7 32.22,5.05 10.41,3.35 20.65,8.54 30.79,15.6l0 29.76zm96.88 145.87l0 -191.72 45.05 0c12.83,0 22.26,0.72 28.2,2.15 5.99,1.48 11.26,3.93 15.82,7.42 5.68,4.42 10.06,10.41 13.19,17.87 3.17,7.46 4.74,15.73 4.74,24.8 0,15.69 -4.38,27.67 -13.14,35.8 -8.8,8.18 -21.63,12.24 -38.57,12.24l-4.07 0 73.2 91.44 -28.96 0 -69.99 -91.44 -3.22 0 0 91.44 -22.26 0zm22.26 -172.42l0 64.09 17.38 0c17.83,0 29.76,-2.28 35.8,-6.88 6.03,-4.56 9.03,-12.56 9.03,-24 0,-12.29 -3.08,-20.87 -9.3,-25.83 -6.21,-4.91 -18.06,-7.37 -35.53,-7.37l-17.38 0zm179.2 172.42l0 -191.72 101.09 0 0 20.92 -78.3 0 0 54.97 78.3 0 0 21.19 -78.3 0 0 73.47 78.3 0 0 21.18 -101.09 0zm258.21 -148.82l-30.48 70.52 61 0 -30.52 -70.52zm0 -50.41l87.19 199.23 -24.71 0 -24.89 -58.72 -74.85 0 -24.89 58.72 -24.67 0 86.83 -199.23zm183.85 199.23l0 -170 -54.17 0 0 -21.72 131.12 0 0 21.72 -53.9 0 0 170 -23.06 0zm160.61 0l0 -191.72 22.79 0 0 191.72 -22.79 0zm220.67 -16.35c10.46,0 20.47,-1.97 29.9,-5.94 9.48,-3.98 18.01,-9.79 25.61,-17.39 7.51,-7.51 13.23,-16 17.16,-25.52 3.93,-9.52 5.9,-19.62 5.9,-30.26 0,-10.72 -1.96,-20.96 -5.94,-30.66 -3.98,-9.7 -9.7,-18.23 -17.12,-25.65 -7.51,-7.51 -16,-13.23 -25.48,-17.16 -9.43,-3.93 -19.48,-5.9 -30.03,-5.9 -10.63,0 -20.74,1.97 -30.25,5.9 -9.52,3.93 -17.92,9.65 -25.25,17.16 -7.51,7.59 -13.23,16.18 -17.16,25.79 -3.93,9.61 -5.9,19.8 -5.9,30.52 0,10.64 1.92,20.69 5.81,30.13 3.89,9.43 9.65,17.96 17.25,25.65 7.69,7.69 16.22,13.5 25.56,17.43 9.39,3.93 19.39,5.9 29.94,5.9zm102.43 -79.11c0,13.72 -2.55,26.64 -7.6,38.75 -5.05,12.16 -12.43,22.93 -22.12,32.36 -9.7,9.43 -20.87,16.67 -33.48,21.81 -12.65,5.09 -25.7,7.64 -39.24,7.64 -13.54,0 -26.54,-2.55 -39.1,-7.64 -12.51,-5.14 -23.64,-12.38 -33.34,-21.81 -9.79,-9.52 -17.2,-20.33 -22.35,-32.49 -5.09,-12.11 -7.64,-24.98 -7.64,-38.61 0,-13.72 2.55,-26.63 7.64,-38.83 5.14,-12.16 12.56,-23.02 22.35,-32.54 9.61,-9.34 20.69,-16.54 33.3,-21.59 12.56,-5.05 25.61,-7.59 39.15,-7.59 13.63,0 26.73,2.55 39.37,7.59 12.6,5.05 23.73,12.25 33.34,21.59 9.69,9.43 17.07,20.24 22.12,32.4 5.05,12.2 7.6,25.16 7.6,38.97zm95.27 95.46l0 -199.23 140.24 153.16 0 -145.65 21.72 0 0 199.23 -140.24 -151.55 0 144.04 -21.72 0z"/>
 </g>
</svg>
