<?xml version="1.0" encoding="UTF-8"?>
<!DOCTYPE svg PUBLIC "-//W3C//DTD SVG 1.1//EN" "http://www.w3.org/Graphics/SVG/1.1/DTD/svg11.dtd">
<!-- Creator: CorelDRAW 2020 (64-Bit) -->
<svg xmlns="http://www.w3.org/2000/svg" xml:space="preserve" width="10in" height="10in"
  version="1.1"
  style="shape-rendering:geometricPrecision; text-rendering:geometricPrecision; image-rendering:optimizeQuality; fillRule:evenodd; clip-rule:evenodd"
  viewBox="0 0 10000 10000"
  xmlns:xlink="http://www.w3.org/1999/xlink"
  xmlns:xodm="http://www.corel.com/coreldraw/odm/2003">
 <defs>
  <style type="text/css">
   <![CDATA[
    .fil5 {fill:#FEFEFE}
    .fil7 {fill:#4B4B4D}
    .fil3 {fill:#F5843D}
    .fil2 {fill:#145796}
    .fil4 {fill:#FEFEFE;fillRule:nonzero}
    .fil6 {fill:#4B4B4D;fillRule:nonzero}
    .fil0 {fill:#373435;fillRule:nonzero}
    .fil1 {fill:#145796;fillRule:nonzero}
   ]]>
  </style>
    <mask id="id0">
  <linearGradient id="id1" gradientUnits="userSpaceOnUse" x1="8762.77" y1="1767.39" x2="9679.32" y2="1767.38">
   <stop offset="0" style="stop-opacity:1; stop-color:white"/>
   <stop offset="1" style="stop-opacity:0; stop-color:white"/>
  </linearGradient>
     <rect style="fill:url(#id1)" x="8762.77" y="1748.54" width="916.56" height="37.72"/>
    </mask>
    <mask id="id2">
  <linearGradient id="id3" gradientUnits="userSpaceOnUse" x1="8762.77" y1="1827.71" x2="9679.32" y2="1827.7">
   <stop offset="0" style="stop-opacity:1; stop-color:white"/>
   <stop offset="1" style="stop-opacity:0; stop-color:white"/>
  </linearGradient>
     <rect style="fill:url(#id3)" x="8762.77" y="1808.85" width="916.56" height="37.72"/>
    </mask>
    <mask id="id4">
  <linearGradient id="id5" gradientUnits="userSpaceOnUse" x1="7729.03" y1="1767.39" x2="6812.48" y2="1767.38">
   <stop offset="0" style="stop-opacity:1; stop-color:white"/>
   <stop offset="1" style="stop-opacity:0; stop-color:white"/>
  </linearGradient>
     <rect style="fill:url(#id5)" x="6812.48" y="1748.54" width="916.56" height="37.72"/>
    </mask>
    <mask id="id6">
  <linearGradient id="id7" gradientUnits="userSpaceOnUse" x1="7729.03" y1="1827.71" x2="6812.48" y2="1827.7">
   <stop offset="0" style="stop-opacity:1; stop-color:white"/>
   <stop offset="1" style="stop-opacity:0; stop-color:white"/>
  </linearGradient>
     <rect style="fill:url(#id7)" x="6812.48" y="1808.85" width="916.56" height="37.72"/>
    </mask>
 </defs>
 <g id="Layer_x0020_1">
  <metadata id="CorelCorpID_0Corel-Layer"/>
  <g id="_2382968165632">
   <path class="fil0" d="M7981.68 1699.13l0 26.42 -52.56 0 0 171.01 -32.39 0 0 -171.01 -52.84 0 0 -26.42 137.78 0zm178.96 0l-65.33 125.84 0 71.59 -32.39 0 0 -71.59 -65.62 -125.84 36.08 0 45.74 96.87 45.74 -96.87 35.79 0zm128.12 197.43l-45.45 -78.97 -24.72 0 0 78.97 -32.38 0 0 -197.43 68.18 0c15.15,0 27.98,2.65 38.49,7.96 10.51,5.3 18.37,12.41 23.58,21.3 5.2,8.9 7.81,18.85 7.81,29.83 0,12.88 -3.74,24.57 -11.22,35.09 -7.48,10.51 -18.99,17.66 -34.52,21.44l48.86 81.81 -38.63 0zm-70.17 -104.82l35.8 0c12.12,0 21.26,-3.03 27.41,-9.09 6.15,-6.06 9.23,-14.2 9.23,-24.43 0,-10.22 -3.03,-18.23 -9.09,-24 -6.06,-5.78 -15.24,-8.66 -27.56,-8.66l-35.8 0 0 66.19zm179.54 -66.47l0 57.95 68.18 0 0 26.42 -68.18 0 0 60.51 76.7 0 0 26.42 -109.08 0 0 -197.71 109.08 0 0 26.42 -76.7 0zm181.52 173.28c-13.26,0 -25.19,-2.32 -35.8,-6.96 -10.61,-4.64 -18.94,-11.22 -25,-19.74 -6.06,-8.52 -9.09,-18.46 -9.09,-29.82l34.65 0c0.76,8.52 4.12,15.53 10.09,21.02 5.96,5.49 14.35,8.24 25.14,8.24 11.17,0 19.89,-2.7 26.13,-8.09 6.25,-5.4 9.37,-12.35 9.37,-20.88 0,-6.63 -1.94,-12.02 -5.82,-16.19 -3.88,-4.17 -8.71,-7.39 -14.49,-9.66 -5.78,-2.28 -13.78,-4.74 -24,-7.39 -12.88,-3.41 -23.34,-6.86 -31.39,-10.36 -8.05,-3.51 -14.92,-8.95 -20.59,-16.34 -5.68,-7.38 -8.52,-17.23 -8.52,-29.54 0,-11.36 2.84,-21.3 8.52,-29.83 5.68,-8.52 13.63,-15.05 23.86,-19.6 10.22,-4.55 22.06,-6.82 35.51,-6.82 19.13,0 34.8,4.78 47.01,14.35 12.22,9.56 18.99,22.68 20.31,39.34l-35.79 0c-0.57,-7.2 -3.98,-13.35 -10.22,-18.46 -6.25,-5.11 -14.49,-7.67 -24.72,-7.67 -9.28,0 -16.85,2.37 -22.72,7.1 -5.87,4.73 -8.81,11.55 -8.81,20.45 0,6.06 1.85,11.03 5.54,14.92 3.69,3.88 8.38,6.96 14.06,9.23 5.68,2.28 13.45,4.74 23.3,7.39 13.06,3.6 23.72,7.2 31.96,10.8 8.24,3.6 15.24,9.13 21.02,16.62 5.78,7.48 8.67,17.47 8.67,29.97 0,10.04 -2.7,19.5 -8.1,28.41 -5.4,8.9 -13.26,16.05 -23.58,21.45 -10.32,5.39 -22.49,8.09 -36.5,8.09z"/>
   <path class="fil1" d="M7205.98 1612.98l-31.72 -58.73 -179.13 0 43.46 -81.64 92.21 0 -65.19 -122.76 -139.78 263.12 -113.35 0 194.99 -353.57c10.57,-18.79 25.84,-28.19 45.81,-28.19l23.49 0c19.97,0 35.24,9.4 45.81,28.19l194.99 353.57 -111.59 0zm445.78 0l-156.23 -160.34c-4.7,-5.48 -8.22,-10.47 -10.57,-14.98 -2.35,-4.5 -3.52,-9.89 -3.52,-16.15l0 -9.4c0,-10.96 4.5,-21.34 13.51,-31.13l150.94 -149.77 131.56 0 -183.83 184.42 193.23 197.34 -135.08 0zm-296.01 0l0 -381.76 102.78 0 0 381.76 -102.78 0zm456.94 0l0 -98.67 285.44 0c7.44,0 13.51,-2.25 18.2,-6.76 4.7,-4.5 7.05,-10.86 7.05,-19.09 0,-8.22 -2.35,-14.68 -7.05,-19.38 -4.7,-4.7 -10.77,-7.05 -18.2,-7.05l-167.98 0c-17.62,0 -33.97,-2.84 -49.04,-8.52 -15.08,-5.68 -28,-13.51 -38.76,-23.49 -10.77,-9.98 -19.19,-22.02 -25.26,-36.12 -6.07,-14.1 -9.11,-29.76 -9.11,-46.99 0,-17.23 3.04,-32.99 9.11,-47.28 6.07,-14.29 14.48,-26.53 25.26,-36.71 10.76,-10.18 23.69,-18.01 38.76,-23.49 15.07,-5.48 31.42,-8.22 49.04,-8.22l290.14 0 0 98.09 -285.44 0c-7.44,0 -13.41,2.15 -17.91,6.46 -4.5,4.31 -6.75,10.57 -6.75,18.8 0,7.83 2.25,14.09 6.75,18.8 4.5,4.7 10.48,7.05 17.91,7.05l167.98 0c18.01,0 34.46,2.84 49.33,8.52 14.88,5.68 27.8,13.61 38.76,23.79 10.96,10.18 19.48,22.42 25.55,36.71 6.07,14.29 9.11,29.85 9.11,46.69 0,17.62 -3.04,33.58 -9.11,47.87 -6.07,14.3 -14.58,26.63 -25.55,37.01 -10.96,10.37 -23.89,18.3 -38.76,23.78 -14.88,5.48 -31.32,8.22 -49.33,8.22l-290.14 0zm749.43 0l0 -148 -149.18 0 0 -93.38 149.18 0 0 -140.37 102.78 0 0 381.76 -102.78 0zm-286.03 0l0 -381.76 102.78 0 0 381.76 -102.78 0zm821.08 0l-31.72 -58.73 -179.13 0 43.46 -81.64 92.21 0 -65.19 -122.76 -139.78 263.12 -113.35 0 194.99 -353.57c10.57,-18.79 25.84,-28.19 45.81,-28.19l23.49 0c19.97,0 35.24,9.4 45.81,28.19l194.99 353.57 -111.59 0zm448.13 0l-76.35 -96.91 -90.45 0 0 -89.27 131.56 0c14.09,0 25.65,-4.41 34.65,-13.22 9,-8.81 13.5,-20.66 13.5,-35.53 0,-14.88 -4.5,-26.72 -13.5,-35.54 -9.01,-8.81 -20.56,-13.21 -34.65,-13.21l-160.93 0 0 283.67 -102.19 0 0 -381.76 263.12 0c21.93,0 42.09,3.43 60.49,10.28 18.4,6.85 34.36,16.54 47.87,29.07 13.51,12.53 23.98,27.6 31.43,45.22 7.44,17.62 11.16,37 11.16,58.15 0,29.37 -7.05,55.01 -21.15,76.94 -14.09,21.93 -33.08,38.57 -56.97,49.93l96.32 112.18 -133.91 0z"/>
   <path class="fil2" d="M8674.19 997.93c-42.71,-172.47 -550.95,-226.05 -764.54,-85.57 -24.72,16.26 -62.75,45.2 -72.62,85.57l-77.37 0c6.89,-38.06 31,-71.14 57.28,-93.62 199.98,-171.02 656.3,-158.52 844.85,-21.65 50.49,36.65 77.61,76.18 84.7,115.26l-72.28 0z"/>
   <path class="fil2" d="M7582.24 1078.95c0.35,0.28 0.93,0.22 1.12,0.77 1.18,3.39 32.11,4.81 35.35,5.06 91.17,6.86 198.48,7.77 289.18,8.85 301.08,3.59 622.54,5.22 923.54,-6.64l59.71 -3.71c6.15,-0.45 13.33,-0.54 18.39,-4.33 -37.35,-22.7 -1291.67,-22.05 -1327.3,0z"/>
   <path class="fil2" d="M8169.97 1131.58c-44.33,0 -88.24,1 -132.01,2.12 -20.91,0.54 -42.66,1.48 -63.18,2.61 -10.52,0.58 -21.24,0.93 -31.05,1.87l-21.81 2.85c-6.74,2.69 -2.46,0.61 -5.17,3.18 42.56,8.61 113.32,8.85 159.17,9.42 93.22,1.16 426.3,5.29 499.09,-9.42 -9.23,-8.74 -86.27,-9.37 -95.9,-9.67 -102.72,-3.26 -206.16,-3.23 -309.15,-2.95z"/>
   <path class="fil2" d="M7270.29 1012.46c35.69,27.73 1914.73,28.37 1951.22,-0.02 -128.39,-52.43 -1928.55,-9.38 -1951.22,0.02z"/>
   <polygon class="fil3" style="mask:url(#id0)" points="9679.32,1748.54 8762.77,1748.54 8762.77,1786.26 9679.32,1786.26 "/>
   <polygon class="fil3" style="mask:url(#id2)" points="9679.32,1808.85 8762.77,1808.85 8762.77,1846.57 9679.32,1846.57 "/>
   <polygon class="fil3" style="mask:url(#id4)" points="6812.48,1748.54 7729.03,1748.54 7729.03,1786.26 6812.48,1786.26 "/>
   <polygon class="fil3" style="mask:url(#id6)" points="6812.48,1808.85 7729.03,1808.85 7729.03,1846.57 6812.48,1846.57 "/>
   <path class="fil3" d="M8753.49 786.01c-3.8,-1.6 -16.55,-18.68 -20.18,-22.99 -6.9,-8.18 -14.24,-15.37 -22.5,-22.42 -51.89,-44.31 -100.89,-70.76 -168.59,-95.35 -184.59,-67.05 -421.37,-69.96 -603.61,2.1 -63.75,25.21 -142.2,71.73 -187.59,121.28 -5.63,6.15 -14.98,18.69 -22.38,22.51 -0.31,-23.11 -0.85,-24.41 7.86,-42.06 14.25,-28.87 39.17,-58.64 63.02,-78.19 115.7,-94.76 284.31,-124.23 441.51,-124.28 113.15,-0.04 229.11,19.44 320.84,57.3 46.44,19.17 85.61,41.85 117.85,69.82 28.19,24.45 68.24,72.9 73.77,112.28z"/>
   <path class="fil3" d="M8533.61 439.65c28.04,11.03 64.8,49.59 78.72,65.54 28.78,32.98 52.92,77.34 57.57,82.64l2.32 2.17c-2.37,-20.01 -16.38,-39.5 -14.57,-74.87 7.78,3.52 12.01,11.78 16.5,17.92 28.2,38.59 61.13,118.91 60.31,160.36 -25.22,-8.98 -102.09,-80.21 -122.63,-104.69 -29.03,-34.58 -75.76,-99.86 -78.24,-149.08z"/>
   <path class="fil3" d="M8533.97 576.98c-61.07,-32.97 -98.63,-94.89 -102.85,-173.35 16.04,1.24 75.31,19.71 86.87,27.58 7.68,42.3 9.52,61.59 29.58,97.21 7.88,14 16.91,27.54 25.15,38l28.44 34.28c-19.6,-0.47 -52.3,-15.68 -67.17,-23.71z"/>
   <path class="fil3" d="M8380.31 538.54c-102.23,2.44 -143.06,-50.74 -166.79,-134.63 -3.55,-12.54 -4,-12.64 -0.12,-15.11 4.61,-2.93 69.43,-2.54 79.29,-2.05 9.04,0.46 8.1,1.29 9.52,9.78 7.53,45.03 26.19,90.54 58.3,122.87 3.41,3.44 18.52,16.08 19.8,19.14z"/>
   <path class="fil3" d="M8192.84 388.38c4.15,14.53 0.06,42.69 22.8,81.56 23.24,39.72 42.93,42.18 53.71,52.75 -29.34,8.52 -90.33,2.31 -119.84,-19.93 -29.42,-22.17 -45.82,-71.57 -43.4,-104.78 8.19,-4.55 74.72,-11.73 86.73,-9.61z"/>
   <path class="fil3" d="M8052.47 643.13c-2.4,4.71 -0,1 -3.24,4.94l-10.06 9.96c-22.99,25.94 -38.32,55.39 -47.28,89.07 -4.55,17.12 -4.05,30.5 -7.22,47.5 -15.07,5.52 -29.13,11.18 -43.11,16.86 -9.78,3.98 -35.05,15.78 -44.76,17.09 -3.82,-93 64.17,-180.13 155.67,-185.42z"/>
   <path class="fil3" d="M7940.94 673.2l-6.31 8.3c-38.41,43.67 -54.45,98.02 -59.1,157.19 -14.9,7.54 -35.01,20.55 -49.48,31.49l-46.29 35.55c-3.54,-38.24 34.75,-118.96 50.61,-144.23 20.44,-32.55 61.07,-84.13 110.57,-88.3z"/>
   <path class="fil3" d="M8500.5 662.16c-4.43,2.54 -12.1,3.78 -17.49,6.07 -54.26,23.07 -62.48,82.6 -69.17,93.05l-84.69 -9.4c0.47,-24.19 29.56,-81.63 55.81,-102.02 44.94,-34.9 109.28,2.41 115.55,12.3z"/>
   <path class="fil3" d="M8450.17 529.48c8.8,12.33 19.55,20.42 25.4,29.73 -17.56,-2.07 -46.82,-14.87 -60.01,-21.81 -19.02,-10 -35.72,-22.93 -47.41,-33.94 -23.28,-21.91 -50.46,-66.84 -47.74,-114.14 24.13,-0.47 67.5,5.19 91.36,9.08 1.57,19.65 0.12,32.21 3.94,52.15 3.09,16.1 7.59,29.77 13.62,43.2 6.07,13.51 12.17,23.59 20.83,35.72z"/>
   <path class="fil3" d="M7982.75 430.5c6.04,30.62 6.05,43.29 21.15,68.45 12.07,20.11 20.83,28.28 38.57,40.89 1.53,1.09 1.67,0.98 2.95,2.26 2.82,2.8 1.28,0.48 3.59,4.77 -41.28,14.94 -95.33,17.52 -128.96,-12.34 -17.41,-15.46 -26.19,-35.15 -24.84,-68.92 19.75,-10.46 65.15,-34.92 87.53,-35.1z"/>
   <path class="fil3" d="M8612.46 710.34c-6.81,4.31 -31.9,3.33 -56.34,26 -12.97,12.03 -23.24,31.85 -24.05,58.3l-93.64 -26.16c-0.36,-19.68 13.15,-42.74 21.86,-54.89 9.39,-13.1 22.63,-25.26 42.06,-32.63 21,-7.98 43.87,-7.08 64.85,0.69 13.75,5.09 36.83,17.87 45.26,28.69z"/>
   <path class="fil3" d="M8553.76 801.72c-7.92,-33.47 41.83,-109.26 132.81,-51.78 11.06,6.99 32.93,25.71 35.33,39.1 -41.19,-0.99 -73.79,16.37 -78.11,55.04 -6.74,-1.05 -7.11,-2.37 -12.54,-5.54 -20.55,-12.02 -55.37,-27.18 -77.5,-36.81z"/>
   <path class="fil3" d="M8218.99 754.32c2.21,-41.39 25.13,-80.3 46.85,-100.59 29.65,-27.7 65.74,-33.7 115.58,-28.83 -0.36,4.43 -0.35,2.74 -5.13,6.26 -17.31,12.73 -31.12,26.39 -42.86,45.3 -20.93,33.71 -17.1,47.64 -24.57,74.68l-89.87 3.19z"/>
   <path class="fil3" d="M8165.5 622.28l-29.13 26.6c-7.91,8.56 -17.81,23.04 -23.58,32.9 -10.43,17.82 -20.3,39.21 -24.25,60.39 -0.77,4.15 -1.33,7.69 -1.67,11.58 -0.37,4.13 -0.08,10.16 -2.52,12.74 -4.53,3.87 -68.45,20.37 -79.78,22.41 -1.2,-43.23 22.08,-97.1 45.41,-120.06 14.25,-14.02 27.14,-24.27 49.76,-33.21 10.13,-4 55.57,-16.72 65.76,-13.35z"/>
   <path class="fil3" d="M8271.25 615.34c-2.52,5.49 -9.47,8.45 -14.66,12.5 -60.72,47.37 -57.98,116.71 -61.45,126.35l-89.2 10.68c5.31,-37.14 27.07,-83.48 50.17,-107.87 25.35,-26.74 60.74,-44.61 115.13,-41.67z"/>
   <path class="fil3" d="M7870.15 484.3c0.17,23.77 8.72,42.41 21.59,58.53 18.96,23.74 39.62,28.54 45.98,34.59 -11.3,11.68 -66.5,25.36 -79.58,27.18 -28.09,3.9 -73.26,-0.61 -87.28,-18.88 10.41,-30.67 77.32,-99.06 99.3,-101.43z"/>
   <path class="fil3" d="M8091.89 405.53c-3.28,33.32 -1.84,56.31 21.59,85.12 21.57,26.52 41.04,33.02 47.3,40.25 -22.86,11.71 -77.72,5.01 -107.43,-15.04 -26.73,-18.04 -42.32,-49.03 -42.54,-93.92 25.47,-7.35 49.2,-16.72 81.07,-16.41z"/>
   <path class="fil3" d="M8658.57 853.23c4.11,-55.68 79.11,-54.72 93.33,-34.06 7.36,10.7 11.53,120.48 11.41,141.31 -3.68,-3.14 0.11,1.39 -3.86,-4.17 -1.11,-1.55 -1.48,-2.62 -2.41,-4.44 -30.95,-60.98 -86.93,-86.73 -98.47,-98.64z"/>
   <path class="fil3" d="M7828.04 727.87c-9.12,21.15 -35.65,44.1 -51.37,111.65 -6.1,26.22 -16.23,116.39 -35.45,124.98 -0.11,-45.87 -5.92,-113.87 8.41,-152.45 6.72,-18.09 18.7,-37.06 30.31,-49.37 8.5,-9.01 32.47,-30.78 48.1,-34.8z"/>
   <path class="fil3" d="M7760.79 604.13c8.91,3.87 13.52,22.83 73.69,23.16 -2.57,5.21 -20.46,13.98 -29.79,20.57 -19.35,13.69 -38.5,29.44 -53.62,47.7l-21.51 29.56c-2.37,-33.31 18.71,-96.77 31.22,-121z"/>
  </g>
  <polygon class="fil3" points="5009.29,9023.24 -0.54,9023.24 -0.54,9498.44 4856.2,9498.44 "/>
  <polygon class="fil1" points="5104.99,9023.24 4951.91,9498.44 9999.46,9498.44 9999.46,9023.24 "/>
  <path class="fil4" d="M1335.83 9285.24c0,-11.96 2.49,-22.55 7.47,-31.77 4.98,-9.22 11.76,-16.39 20.35,-21.5 8.59,-5.12 18.08,-7.67 28.48,-7.67 9.39,0 17.58,1.84 24.58,5.51 7,3.67 12.59,8.25 16.78,13.72l0 -17.29 24.9 0 0 119.08 -24.9 0 0 -17.72c-4.19,5.62 -9.89,10.3 -17.11,14.05 -7.22,3.74 -15.44,5.62 -24.69,5.62 -10.25,0 -19.63,-2.63 -28.15,-7.89 -8.52,-5.26 -15.27,-12.61 -20.24,-22.04 -4.98,-9.44 -7.47,-20.13 -7.47,-32.09zm97.67 0.43c0,-8.21 -1.7,-15.35 -5.09,-21.4 -3.39,-6.05 -7.83,-10.66 -13.32,-13.83 -5.49,-3.17 -11.41,-4.76 -17.76,-4.76 -6.35,0 -12.27,1.55 -17.76,4.65 -5.48,3.09 -9.93,7.63 -13.31,13.61 -3.39,5.98 -5.09,13.07 -5.09,21.29 0,8.21 1.7,15.41 5.09,21.61 3.39,6.2 7.87,10.91 13.43,14.16 5.56,3.24 11.44,4.86 17.65,4.86 6.35,0 12.27,-1.59 17.76,-4.76 5.49,-3.17 9.93,-7.81 13.32,-13.94 3.39,-6.12 5.09,-13.29 5.09,-21.5z"/>
  <polygon id="1" class="fil4" points="1538.1,9285.89 1593.11,9345.32 1559.76,9345.32 1515.57,9294.1 1515.57,9345.32 1490.89,9345.32 1490.89,9185.39 1515.57,9185.39 1515.57,9278.32 1558.89,9226.24 1593.11,9226.24 "/>
  <path id="2" class="fil4" d="M1654.18 9347.26c-9.39,0 -17.8,-1.69 -25.23,-5.08 -7.44,-3.39 -13.32,-8 -17.65,-13.83 -4.33,-5.83 -6.64,-12.35 -6.93,-19.56l25.56 0c0.43,5.04 2.85,9.26 7.25,12.64 4.41,3.39 9.93,5.08 16.57,5.08 6.93,0 12.31,-1.33 16.13,-4 3.83,-2.67 5.74,-6.09 5.74,-10.27 0,-4.46 -2.13,-7.78 -6.39,-9.94 -4.26,-2.16 -11.01,-4.54 -20.25,-7.13 -8.95,-2.45 -16.24,-4.83 -21.87,-7.13 -5.63,-2.3 -10.5,-5.83 -14.62,-10.59 -4.11,-4.76 -6.17,-11.02 -6.17,-18.8 0,-6.34 1.88,-12.14 5.63,-17.4 3.76,-5.26 9.13,-9.4 16.13,-12.43 7,-3.03 15.05,-4.54 24.15,-4.54 13.57,0 24.51,3.42 32.81,10.26 8.3,6.85 12.74,16.17 13.32,27.99l-24.69 0c-0.43,-5.33 -2.6,-9.58 -6.5,-12.75 -3.9,-3.17 -9.17,-4.75 -15.81,-4.75 -6.5,0 -11.48,1.22 -14.94,3.67 -3.46,2.45 -5.2,5.69 -5.2,9.72 0,3.17 1.15,5.83 3.46,8 2.31,2.16 5.12,3.85 8.44,5.08 3.32,1.22 8.23,2.78 14.73,4.65 8.66,2.31 15.77,4.65 21.33,7.02 5.56,2.38 10.36,5.87 14.4,10.48 4.04,4.61 6.13,10.73 6.28,18.37 0,6.77 -1.88,12.82 -5.63,18.15 -3.76,5.33 -9.06,9.51 -15.92,12.54 -6.86,3.03 -14.91,4.54 -24.15,4.54z"/>
  <path id="3" class="fil4" d="M1788.23 9224.3c9.1,0 17.22,1.94 24.37,5.83 7.15,3.89 12.78,9.65 16.89,17.29 4.12,7.64 6.17,16.86 6.17,27.67l0 70.24 -24.47 0 0 -66.56c0,-10.66 -2.67,-18.84 -8.02,-24.53 -5.34,-5.69 -12.63,-8.54 -21.87,-8.54 -9.24,0 -16.57,2.85 -21.98,8.54 -5.41,5.69 -8.12,13.87 -8.12,24.53l0 66.56 -24.69 0 0 -159.93 24.69 0 0 54.68c4.19,-5.04 9.49,-8.93 15.91,-11.67 6.43,-2.74 13.46,-4.11 21.11,-4.11z"/>
  <path id="4" class="fil4" d="M1858.84 9285.24c0,-11.96 2.49,-22.55 7.47,-31.77 4.98,-9.22 11.76,-16.39 20.36,-21.5 8.59,-5.12 18.08,-7.67 28.48,-7.67 9.39,0 17.58,1.84 24.58,5.51 7,3.67 12.6,8.25 16.78,13.72l0 -17.29 24.9 0 0 119.08 -24.9 0 0 -17.72c-4.19,5.62 -9.89,10.3 -17.11,14.05 -7.22,3.74 -15.44,5.62 -24.69,5.62 -10.25,0 -19.64,-2.63 -28.15,-7.89 -8.52,-5.26 -15.27,-12.61 -20.25,-22.04 -4.98,-9.44 -7.47,-20.13 -7.47,-32.09zm97.67 0.43c0,-8.21 -1.7,-15.35 -5.09,-21.4 -3.39,-6.05 -7.83,-10.66 -13.32,-13.83 -5.49,-3.17 -11.41,-4.76 -17.76,-4.76 -6.36,0 -12.28,1.55 -17.76,4.65 -5.48,3.09 -9.93,7.63 -13.31,13.61 -3.39,5.98 -5.09,13.07 -5.09,21.29 0,8.21 1.7,15.41 5.09,21.61 3.39,6.2 7.87,10.91 13.43,14.16 5.56,3.24 11.44,4.86 17.65,4.86 6.35,0 12.27,-1.59 17.76,-4.76 5.49,-3.17 9.93,-7.81 13.32,-13.94 3.39,-6.12 5.09,-13.29 5.09,-21.5z"/>
  <path id="5" class="fil4" d="M2038.59 9243.53c3.61,-6.05 8.41,-10.77 14.4,-14.15 6,-3.39 13.1,-5.08 21.33,-5.08l0 25.5 -6.28 0c-9.67,0 -17,2.45 -21.98,7.35 -4.98,4.9 -7.47,13.4 -7.47,25.5l0 62.67 -24.69 0 0 -119.08 24.69 0 0 17.29z"/>
  <path id="6" class="fil4" d="M2125.87 9246.34l0 65.91c0,4.47 1.05,7.67 3.14,9.62 2.09,1.94 5.67,2.92 10.72,2.92l15.16 0 0 20.53 -19.49 0c-11.12,0 -19.63,-2.59 -25.55,-7.78 -5.93,-5.19 -8.88,-13.61 -8.88,-25.29l0 -65.91 -14.08 0 0 -20.1 14.08 0 0 -29.61 24.91 0 0 29.61 29.02 0 0 20.1 -29.02 0z"/>
  <polygon id="7" class="fil4" points="2285.04,9226.24 2211.84,9401.29 2186.29,9401.29 2210.54,9343.37 2163.55,9226.24 2191.05,9226.24 2224.62,9317.01 2259.49,9226.24 "/>
  <path id="8" class="fil4" d="M2328.36 9243.53c3.61,-6.05 8.41,-10.77 14.4,-14.15 5.99,-3.39 13.1,-5.08 21.33,-5.08l0 25.5 -6.28 0c-9.68,0 -17,2.45 -21.98,7.35 -4.98,4.9 -7.47,13.4 -7.47,25.5l0 62.67 -24.69 0 0 -119.08 24.69 0 0 17.29z"/>
  <path id="9" class="fil4" d="M2496.2 9282.86c0,4.46 -0.29,8.5 -0.87,12.1l-91.18 0c0.72,9.51 4.26,17.15 10.61,22.91 6.35,5.76 14.15,8.64 23.39,8.64 13.28,0 22.67,-5.55 28.15,-16.64l26.64 0c-3.61,10.95 -10.15,19.92 -19.6,26.91 -9.46,6.99 -21.19,10.48 -35.19,10.48 -11.41,0 -21.62,-2.56 -30.65,-7.67 -9.02,-5.11 -16.1,-12.32 -21.22,-21.61 -5.13,-9.29 -7.69,-20.06 -7.69,-32.31 0,-12.25 2.49,-23.02 7.47,-32.31 4.98,-9.29 11.98,-16.46 21,-21.5 9.03,-5.04 19.38,-7.56 31.08,-7.56 11.26,0 21.3,2.45 30.1,7.35 8.81,4.9 15.67,11.78 20.57,20.64 4.91,8.86 7.36,19.05 7.36,30.58zm-25.77 -7.78c-0.15,-9.08 -3.39,-16.35 -9.75,-21.83 -6.35,-5.48 -14.22,-8.21 -23.6,-8.21 -8.52,0 -15.81,2.7 -21.87,8.1 -6.06,5.4 -9.67,12.72 -10.83,21.94l66.06 0z"/>
  <path id="10" class="fil4" d="M2563.77 9347.26c-9.39,0 -17.8,-1.69 -25.23,-5.08 -7.44,-3.39 -13.32,-8 -17.65,-13.83 -4.33,-5.83 -6.64,-12.35 -6.93,-19.56l25.56 0c0.43,5.04 2.85,9.26 7.25,12.64 4.41,3.39 9.93,5.08 16.57,5.08 6.93,0 12.31,-1.33 16.13,-4 3.83,-2.67 5.74,-6.09 5.74,-10.27 0,-4.46 -2.13,-7.78 -6.39,-9.94 -4.26,-2.16 -11.01,-4.54 -20.25,-7.13 -8.95,-2.45 -16.24,-4.83 -21.87,-7.13 -5.63,-2.3 -10.5,-5.83 -14.62,-10.59 -4.11,-4.76 -6.17,-11.02 -6.17,-18.8 0,-6.34 1.88,-12.14 5.63,-17.4 3.76,-5.26 9.13,-9.4 16.13,-12.43 7,-3.03 15.05,-4.54 24.15,-4.54 13.57,0 24.51,3.42 32.81,10.26 8.3,6.85 12.74,16.17 13.32,27.99l-24.69 0c-0.44,-5.33 -2.6,-9.58 -6.5,-12.75 -3.9,-3.17 -9.17,-4.75 -15.81,-4.75 -6.5,0 -11.48,1.22 -14.94,3.67 -3.46,2.45 -5.2,5.69 -5.2,9.72 0,3.17 1.16,5.83 3.46,8 2.31,2.16 5.13,3.85 8.44,5.08 3.32,1.22 8.23,2.78 14.73,4.65 8.66,2.31 15.78,4.65 21.33,7.02 5.56,2.38 10.35,5.87 14.4,10.48 4.04,4.61 6.13,10.73 6.28,18.37 0,6.77 -1.88,12.82 -5.63,18.15 -3.76,5.33 -9.06,9.51 -15.92,12.54 -6.86,3.03 -14.91,4.54 -24.15,4.54z"/>
  <path id="11" class="fil4" d="M2646.5 9311.82c13.86,-11.96 24.8,-21.79 32.81,-29.5 8.01,-7.71 14.69,-15.74 20.03,-24.1 5.34,-8.35 8.02,-16.71 8.02,-25.07 0,-8.65 -2.06,-15.42 -6.18,-20.31 -4.11,-4.9 -10.57,-7.35 -19.38,-7.35 -8.52,0 -15.12,2.7 -19.81,8.11 -4.7,5.4 -7.19,12.64 -7.47,21.72l-23.82 0c0.43,-16.42 5.38,-28.99 14.83,-37.71 9.46,-8.72 21.47,-13.07 36.06,-13.07 15.73,0 28.04,4.32 36.93,12.96 8.87,8.65 13.32,20.17 13.32,34.58 0,10.37 -2.64,20.35 -7.91,29.93 -5.27,9.58 -11.55,18.15 -18.84,25.72 -7.29,7.56 -16.56,16.31 -27.82,26.26l-9.75 8.64 68.66 0 0 20.53 -105.25 0 0 -17.94 15.59 -13.4z"/>
  <path id="12" class="fil4" d="M2771.46 9311.82c13.86,-11.96 24.8,-21.79 32.81,-29.5 8.02,-7.71 14.69,-15.74 20.04,-24.1 5.34,-8.35 8.01,-16.71 8.01,-25.07 0,-8.65 -2.06,-15.42 -6.17,-20.31 -4.11,-4.9 -10.57,-7.35 -19.38,-7.35 -8.52,0 -15.12,2.7 -19.81,8.11 -4.69,5.4 -7.19,12.64 -7.47,21.72l-23.82 0c0.43,-16.42 5.38,-28.99 14.83,-37.71 9.46,-8.72 21.48,-13.07 36.06,-13.07 15.74,0 28.04,4.32 36.93,12.96 8.88,8.65 13.32,20.17 13.32,34.58 0,10.37 -2.63,20.35 -7.91,29.93 -5.27,9.58 -11.55,18.15 -18.84,25.72 -7.29,7.56 -16.57,16.31 -27.83,26.26l-9.75 8.64 68.66 0 0 20.53 -105.26 0 0 -17.94 15.59 -13.4z"/>
  <path id="13" class="fil4" d="M2997.12 9205.71c16.46,0 30.68,3.03 42.67,9.08 11.98,6.05 21.11,14.52 27.39,25.39 6.28,10.88 9.42,23.52 9.42,37.93 0,11.53 -1.98,22.55 -5.96,33.07 -3.97,10.52 -9.67,19.09 -17.11,25.72 -7.44,6.63 -16.21,9.94 -26.31,9.94 -7.36,0 -13.14,-1.62 -17.32,-4.86 -4.19,-3.24 -6.79,-7.81 -7.8,-13.72 -4.48,5.76 -10.11,10.3 -16.89,13.62 -6.79,3.31 -13.86,4.97 -21.23,4.97 -11.11,0 -19.81,-3.35 -26.09,-10.05 -6.28,-6.7 -9.42,-15.81 -9.42,-27.34 0,-10.95 2.28,-21.18 6.82,-30.69 4.55,-9.51 10.94,-17.11 19.17,-22.8 8.23,-5.69 17.47,-8.54 27.72,-8.54 12.56,0 21.37,4.25 26.42,12.75l1.95 -10.8 21.44 0 -10.83 61.81c-0.44,3.02 -0.65,5.69 -0.65,8 0,3.74 0.76,6.56 2.28,8.43 1.51,1.87 4.22,2.81 8.12,2.81 5.49,0 10.18,-2.7 14.07,-8.1 3.9,-5.4 6.83,-12.07 8.78,-19.99 1.95,-7.92 2.93,-15.63 2.93,-23.12 0,-18.3 -5.34,-32.28 -16.03,-41.93 -10.69,-9.65 -26.2,-14.48 -46.56,-14.48 -17.04,0 -32.31,4.03 -45.8,12.1 -13.5,8.07 -24.08,19.16 -31.73,33.28 -7.65,14.12 -11.48,29.82 -11.48,47.11 0,18.44 5.48,32.49 16.46,42.14 10.98,9.65 26.64,14.48 47,14.48 13.72,0 25.7,-2.52 35.95,-7.56l3.25 16.42c-13.14,5.62 -27.87,8.43 -44.18,8.43 -15.74,0 -29.53,-2.95 -41.37,-8.86 -11.84,-5.91 -21.01,-14.3 -27.5,-25.18 -6.5,-10.88 -9.74,-23.52 -9.74,-37.93 0,-20.6 4.8,-39.41 14.4,-56.41 9.6,-17 22.92,-30.44 39.96,-40.31 17.04,-9.87 36.31,-14.8 57.82,-14.8zm-25.56 122.11c6.07,0 11.58,-1.77 16.57,-5.3 4.98,-3.53 8.92,-8.21 11.8,-14.05 2.89,-5.83 4.33,-12.07 4.33,-18.7 0,-6.91 -1.91,-12.57 -5.74,-16.96 -3.83,-4.39 -9.2,-6.59 -16.14,-6.59 -6.2,0 -11.66,1.91 -16.35,5.73 -4.69,3.82 -8.3,8.75 -10.83,14.8 -2.53,6.05 -3.79,12.39 -3.79,19.02 0,6.77 1.66,12.14 4.98,16.1 3.32,3.96 8.38,5.94 15.16,5.94z"/>
  <path id="14" class="fil4" d="M3156.08 9224.3c9.24,0 17.43,1.84 24.58,5.51 7.14,3.67 12.74,8.25 16.78,13.72l0 -17.29 24.9 0 0 121.02c0,10.95 -2.31,20.71 -6.93,29.28 -4.62,8.57 -11.3,15.31 -20.04,20.21 -8.73,4.9 -19.17,7.35 -31.29,7.35 -16.17,0 -29.6,-3.78 -40.28,-11.35 -10.68,-7.56 -16.75,-17.83 -18.19,-30.8l24.47 0c1.88,6.19 5.88,11.2 12.02,15.02 6.13,3.82 13.46,5.72 21.98,5.72 9.96,0 18.01,-3.02 24.15,-9.07 6.13,-6.05 9.2,-14.84 9.2,-26.37l0 -19.88c-4.19,5.62 -9.86,10.34 -17,14.15 -7.15,3.82 -15.27,5.73 -24.36,5.73 -10.4,0 -19.89,-2.63 -28.48,-7.89 -8.59,-5.26 -15.38,-12.61 -20.35,-22.04 -4.98,-9.44 -7.47,-20.13 -7.47,-32.09 0,-11.96 2.49,-22.55 7.47,-31.77 4.98,-9.22 11.76,-16.39 20.35,-21.5 8.59,-5.12 18.08,-7.67 28.48,-7.67zm41.37 61.38c0,-8.21 -1.7,-15.35 -5.09,-21.4 -3.39,-6.05 -7.83,-10.66 -13.32,-13.83 -5.49,-3.17 -11.41,-4.76 -17.76,-4.76 -6.35,0 -12.27,1.55 -17.76,4.65 -5.48,3.09 -9.93,7.63 -13.31,13.61 -3.39,5.98 -5.09,13.07 -5.09,21.29 0,8.21 1.7,15.41 5.09,21.61 3.39,6.2 7.87,10.91 13.43,14.16 5.56,3.24 11.44,4.86 17.65,4.86 6.35,0 12.27,-1.59 17.76,-4.76 5.49,-3.17 9.93,-7.81 13.32,-13.94 3.39,-6.12 5.09,-13.29 5.09,-21.5z"/>
  <path id="15" class="fil4" d="M3399.28 9224.3c9.38,0 17.79,1.94 25.23,5.83 7.43,3.89 13.28,9.65 17.54,17.29 4.26,7.64 6.39,16.86 6.39,27.67l0 70.24 -24.47 0 0 -66.56c0,-10.66 -2.67,-18.84 -8.01,-24.53 -5.34,-5.69 -12.63,-8.54 -21.87,-8.54 -9.24,0 -16.57,2.85 -21.98,8.54 -5.42,5.69 -8.13,13.87 -8.13,24.53l0 66.56 -24.47 0 0 -66.56c0,-10.66 -2.67,-18.84 -8.01,-24.53 -5.34,-5.69 -12.63,-8.54 -21.87,-8.54 -9.24,0 -16.57,2.85 -21.98,8.54 -5.41,5.69 -8.12,13.87 -8.12,24.53l0 66.56 -24.69 0 0 -119.08 24.69 0 0 13.61c4.04,-4.9 9.17,-8.72 15.37,-11.45 6.21,-2.74 12.85,-4.11 19.93,-4.11 9.53,0 18.05,2.02 25.56,6.05 7.51,4.04 13.28,9.87 17.32,17.5 3.61,-7.2 9.24,-12.93 16.89,-17.18 7.65,-4.25 15.88,-6.37 24.69,-6.37z"/>
  <path id="16" class="fil4" d="M3471.61 9285.24c0,-11.96 2.49,-22.55 7.47,-31.77 4.98,-9.22 11.77,-16.39 20.36,-21.5 8.59,-5.12 18.08,-7.67 28.48,-7.67 9.39,0 17.58,1.84 24.59,5.51 7,3.67 12.59,8.25 16.78,13.72l0 -17.29 24.91 0 0 119.08 -24.91 0 0 -17.72c-4.19,5.62 -9.89,10.3 -17.11,14.05 -7.22,3.74 -15.44,5.62 -24.69,5.62 -10.25,0 -19.63,-2.63 -28.15,-7.89 -8.52,-5.26 -15.27,-12.61 -20.25,-22.04 -4.98,-9.44 -7.47,-20.13 -7.47,-32.09zm97.67 0.43c0,-8.21 -1.69,-15.35 -5.09,-21.4 -3.39,-6.05 -7.83,-10.66 -13.32,-13.83 -5.49,-3.17 -11.41,-4.76 -17.76,-4.76 -6.35,0 -12.27,1.55 -17.76,4.65 -5.48,3.09 -9.93,7.63 -13.31,13.61 -3.39,5.98 -5.09,13.07 -5.09,21.29 0,8.21 1.7,15.41 5.09,21.61 3.39,6.2 7.87,10.91 13.43,14.16 5.56,3.24 11.44,4.86 17.65,4.86 6.35,0 12.27,-1.59 17.76,-4.76 5.49,-3.17 9.93,-7.81 13.32,-13.94 3.39,-6.12 5.09,-13.29 5.09,-21.5z"/>
  <path id="17" class="fil4" d="M3639.24 9210.46c-4.48,0 -8.23,-1.51 -11.26,-4.54 -3.03,-3.02 -4.55,-6.77 -4.55,-11.24 0,-4.47 1.52,-8.21 4.55,-11.24 3.03,-3.02 6.78,-4.54 11.26,-4.54 4.33,0 8.01,1.52 11.04,4.54 3.03,3.03 4.55,6.77 4.55,11.24 0,4.46 -1.52,8.21 -4.55,11.24 -3.03,3.03 -6.71,4.54 -11.04,4.54zm12.13 15.78l0 119.08 -24.69 0 0 -119.08 24.69 0z"/>
  <polygon id="18" class="fil4" points="3708.54,9185.39 3708.54,9345.32 3683.85,9345.32 3683.85,9185.39 "/>
  <path id="19" class="fil4" d="M3750.99 9346.83c-4.47,0 -8.23,-1.51 -11.26,-4.54 -3.03,-3.02 -4.55,-6.77 -4.55,-11.24 0,-4.46 1.52,-8.21 4.55,-11.24 3.03,-3.03 6.79,-4.54 11.26,-4.54 4.33,0 8.01,1.51 11.05,4.54 3.03,3.02 4.54,6.77 4.54,11.24 0,4.47 -1.51,8.21 -4.54,11.24 -3.04,3.03 -6.72,4.54 -11.05,4.54z"/>
  <path id="20" class="fil4" d="M3784.99 9285.67c0,-12.25 2.49,-23.02 7.47,-32.31 4.98,-9.29 11.88,-16.46 20.68,-21.5 8.81,-5.04 18.91,-7.56 30.32,-7.56 14.44,0 26.39,3.42 35.84,10.26 9.46,6.85 15.85,16.61 19.17,29.28l-26.64 0c-2.17,-5.91 -5.63,-10.52 -10.4,-13.83 -4.76,-3.31 -10.76,-4.97 -17.98,-4.97 -10.11,0 -18.15,3.56 -24.14,10.7 -6,7.13 -8.99,17.11 -8.99,29.93 0,12.82 2.99,22.83 8.99,30.04 5.99,7.2 14.04,10.8 24.14,10.8 14.3,0 23.75,-6.27 28.37,-18.8l26.64 0c-3.46,12.1 -9.96,21.72 -19.49,28.85 -9.53,7.13 -21.37,10.7 -35.52,10.7 -11.41,0 -21.51,-2.56 -30.32,-7.67 -8.8,-5.11 -15.7,-12.32 -20.68,-21.61 -4.98,-9.29 -7.47,-20.06 -7.47,-32.31z"/>
  <path id="21" class="fil4" d="M3974.92 9347.26c-11.26,0 -21.44,-2.56 -30.54,-7.67 -9.09,-5.11 -16.24,-12.32 -21.44,-21.61 -5.2,-9.29 -7.8,-20.06 -7.8,-32.31 0,-12.1 2.67,-22.84 8.01,-32.2 5.34,-9.36 12.63,-16.57 21.87,-21.61 9.24,-5.04 19.57,-7.56 30.97,-7.56 11.41,0 21.73,2.52 30.97,7.56 9.24,5.04 16.53,12.25 21.87,21.61 5.34,9.37 8.01,20.1 8.01,32.2 0,12.1 -2.74,22.83 -8.23,32.2 -5.49,9.36 -12.96,16.6 -22.42,21.72 -9.46,5.11 -19.89,7.67 -31.3,7.67zm0 -21.39c6.36,0 12.31,-1.52 17.87,-4.54 5.56,-3.03 10.07,-7.56 13.54,-13.61 3.46,-6.05 5.2,-13.4 5.2,-22.04 0,-8.65 -1.66,-15.96 -4.98,-21.94 -3.32,-5.98 -7.72,-10.48 -13.21,-13.51 -5.48,-3.02 -11.41,-4.54 -17.76,-4.54 -6.35,0 -12.24,1.52 -17.65,4.54 -5.41,3.03 -9.71,7.53 -12.89,13.51 -3.17,5.98 -4.76,13.29 -4.76,21.94 0,12.82 3.28,22.72 9.85,29.71 6.57,6.99 14.83,10.48 24.8,10.48z"/>
  <path id="22" class="fil4" d="M4205.78 9224.3c9.38,0 17.8,1.94 25.23,5.83 7.43,3.89 13.28,9.65 17.54,17.29 4.26,7.64 6.39,16.86 6.39,27.67l0 70.24 -24.47 0 0 -66.56c0,-10.66 -2.67,-18.84 -8.01,-24.53 -5.34,-5.69 -12.63,-8.54 -21.87,-8.54 -9.24,0 -16.57,2.85 -21.98,8.54 -5.42,5.69 -8.13,13.87 -8.13,24.53l0 66.56 -24.47 0 0 -66.56c0,-10.66 -2.67,-18.84 -8.01,-24.53 -5.34,-5.69 -12.63,-8.54 -21.87,-8.54 -9.24,0 -16.57,2.85 -21.98,8.54 -5.41,5.69 -8.12,13.87 -8.12,24.53l0 66.56 -24.69 0 0 -119.08 24.69 0 0 13.61c4.04,-4.9 9.17,-8.72 15.37,-11.45 6.21,-2.74 12.85,-4.11 19.92,-4.11 9.53,0 18.05,2.02 25.56,6.05 7.51,4.04 13.28,9.87 17.32,17.5 3.61,-7.2 9.24,-12.93 16.89,-17.18 7.65,-4.25 15.88,-6.37 24.69,-6.37z"/>
  <path class="fil4" d="M1224.87 9236.88c0,-0.16 0.11,-0.32 0.1,-0.48l-43.25 41.67 43.2 40.34c0.02,-0.29 -0.05,-0.58 -0.05,-0.87l0 -80.67z"/>
  <path class="fil4" d="M1175.12 9284.48l-17.65 16.99c-0.89,0.86 -2.05,1.29 -3.2,1.29 -1.13,0 -2.26,-0.41 -3.15,-1.24l-17.61 -16.41 -43.48 41.91c1.06,0.38 2.19,0.67 3.38,0.67l121.72 0c1.76,0 3.42,-0.54 4.86,-1.34l-44.86 -41.88z"/>
  <path class="fil4" d="M1154.21 9291.78l66.01 -63.58c-1.49,-0.89 -3.23,-1.48 -5.1,-1.48l-121.72 0c-2.43,0 -4.65,0.94 -6.39,2.38l67.19 62.69z"/>
  <path class="fil4" d="M1083.25 9238.43l0 79.11c0,0.91 0.21,1.78 0.43,2.62l42.94 -41.35 -43.38 -40.39z"/>
  <path class="fil4" d="M1154.11 9171.55c29.18,0 55.6,11.83 74.72,30.94 19.11,19.12 30.94,45.54 30.94,74.71 0,29.17 -11.83,55.59 -30.94,74.71 -19.12,19.12 -45.54,30.94 -74.72,30.94 -29.17,0 -55.59,-11.83 -74.71,-30.94 -19.12,-19.12 -30.94,-45.54 -30.94,-74.71 0,-29.17 11.83,-55.59 30.94,-74.71 19.12,-19.12 45.54,-30.94 74.71,-30.94zm70.3 35.36c-17.99,-17.99 -42.85,-29.12 -70.3,-29.12 -27.45,0 -52.31,11.13 -70.3,29.12 -17.99,17.99 -29.12,42.85 -29.12,70.3 0,27.46 11.13,52.31 29.12,70.3 17.99,17.99 42.85,29.12 70.3,29.12 27.46,0 52.31,-11.13 70.3,-29.12 17.99,-17.98 29.12,-42.84 29.12,-70.3 0,-27.45 -11.13,-52.31 -29.12,-70.3z"/>
  <g id="_2382968159056">
   <polygon class="fil4" points="5910.83,9284.29 5873.15,9284.29 5873.15,9322.76 5838.06,9322.76 5838.06,9284.29 5800.38,9284.29 5800.38,9251.23 5838.06,9251.23 5838.06,9212.54 5873.15,9212.54 5873.15,9251.23 5910.83,9251.23 "/>
   <path id="1" class="fil4" d="M5973.2 9297.04c2.17,11.38 8.81,17.07 19.93,17.07 7.65,0 13.07,-3.39 16.24,-10.16 3.18,-6.77 4.76,-17.79 4.76,-33.06 -3.18,4.46 -7.51,7.93 -12.99,10.37 -5.49,2.45 -11.62,3.67 -18.41,3.67 -9.24,0 -17.47,-1.91 -24.69,-5.73 -7.22,-3.82 -12.89,-9.51 -17,-17.07 -4.11,-7.57 -6.17,-16.75 -6.17,-27.56 0,-10.66 2.2,-19.96 6.61,-27.88 4.4,-7.93 10.69,-14.05 18.84,-18.37 8.16,-4.32 17.8,-6.48 28.92,-6.48 21.37,0 36.31,6.63 44.82,19.88 8.52,13.26 12.78,32.78 12.78,58.57 0,18.73 -1.7,34.18 -5.09,46.36 -3.39,12.17 -9.09,21.43 -17.11,27.77 -8.01,6.34 -18.95,9.51 -32.81,9.51 -10.97,0 -20.32,-2.16 -28.04,-6.48 -7.72,-4.32 -13.65,-10.01 -17.76,-17.07 -4.12,-7.06 -6.46,-14.84 -7.04,-23.34l34.22 0zm17.98 -41.28c6.06,0 10.9,-1.83 14.5,-5.51 3.61,-3.68 5.42,-8.68 5.42,-15.02 0,-6.92 -1.88,-12.25 -5.63,-16 -3.76,-3.74 -8.81,-5.62 -15.16,-5.62 -6.35,0 -11.37,1.91 -15.05,5.73 -3.68,3.82 -5.52,9.04 -5.52,15.67 0,6.19 1.84,11.2 5.52,15.02 3.68,3.81 8.99,5.72 15.92,5.72z"/>
   <polygon id="2" class="fil4" points="6062.65,9219.89 6062.65,9185.53 6122.63,9185.53 6122.63,9343.29 6084.09,9343.29 6084.09,9219.89 "/>
   <path id="3" class="fil4" d="M6233.73 9297.04c2.17,11.38 8.81,17.07 19.93,17.07 7.65,0 13.07,-3.39 16.24,-10.16 3.18,-6.77 4.76,-17.79 4.76,-33.06 -3.18,4.46 -7.51,7.93 -12.99,10.37 -5.49,2.45 -11.63,3.67 -18.41,3.67 -9.24,0 -17.47,-1.91 -24.69,-5.73 -7.22,-3.82 -12.89,-9.51 -17,-17.07 -4.12,-7.57 -6.18,-16.75 -6.18,-27.56 0,-10.66 2.2,-19.96 6.61,-27.88 4.4,-7.93 10.69,-14.05 18.84,-18.37 8.16,-4.32 17.8,-6.48 28.91,-6.48 21.37,0 36.31,6.63 44.83,19.88 8.52,13.26 12.78,32.78 12.78,58.57 0,18.73 -1.7,34.18 -5.09,46.36 -3.39,12.17 -9.09,21.43 -17.11,27.77 -8.01,6.34 -18.95,9.51 -32.81,9.51 -10.97,0 -20.32,-2.16 -28.04,-6.48 -7.72,-4.32 -13.65,-10.01 -17.76,-17.07 -4.11,-7.06 -6.46,-14.84 -7.04,-23.34l34.22 0zm17.98 -41.28c6.07,0 10.9,-1.83 14.51,-5.51 3.61,-3.68 5.42,-8.68 5.42,-15.02 0,-6.92 -1.88,-12.25 -5.63,-16 -3.76,-3.74 -8.81,-5.62 -15.16,-5.62 -6.35,0 -11.37,1.91 -15.05,5.73 -3.68,3.82 -5.52,9.04 -5.52,15.67 0,6.19 1.84,11.2 5.52,15.02 3.68,3.81 8.99,5.72 15.92,5.72z"/>
   <path id="4" class="fil4" d="M6328.37 9230.05c0.57,-15.42 5.63,-27.3 15.16,-35.66 9.53,-8.36 22.45,-12.54 38.77,-12.54 10.83,0 20.11,1.87 27.83,5.62 7.72,3.75 13.57,8.86 17.54,15.35 3.97,6.48 5.96,13.76 5.96,21.83 0,9.51 -2.38,17.25 -7.15,23.23 -4.76,5.98 -10.32,10.05 -16.68,12.21l0 0.87c8.23,2.74 14.73,7.28 19.5,13.61 4.76,6.34 7.15,14.48 7.15,24.42 0,8.93 -2.06,16.82 -6.17,23.67 -4.11,6.84 -10.11,12.21 -17.97,16.1 -7.87,3.89 -17.22,5.83 -28.05,5.83 -17.33,0 -31.15,-4.25 -41.47,-12.75 -10.33,-8.5 -15.78,-21.32 -16.35,-38.47l35.95 0c0.14,6.34 1.95,11.35 5.41,15.02 3.46,3.67 8.52,5.51 15.16,5.51 5.63,0 10,-1.62 13.1,-4.87 3.1,-3.24 4.66,-7.53 4.66,-12.86 0,-6.91 -2.2,-11.92 -6.61,-15.02 -4.41,-3.1 -11.44,-4.65 -21.11,-4.65l-6.93 0 0 -30.04 6.93 0c7.36,0 13.31,-1.26 17.86,-3.78 4.55,-2.52 6.82,-7.02 6.82,-13.51 0,-5.19 -1.44,-9.22 -4.33,-12.1 -2.89,-2.88 -6.86,-4.32 -11.91,-4.32 -5.48,0 -9.56,1.65 -12.23,4.97 -2.67,3.31 -4.22,7.42 -4.66,12.32l-36.17 0z"/>
   <path id="5" class="fil4" d="M6456.8 9313.69c4.91,-3.89 7.15,-5.69 6.72,-5.41 14.15,-11.67 25.3,-21.25 33.46,-28.74 8.16,-7.49 15.06,-15.35 20.69,-23.56 5.63,-8.21 8.44,-16.21 8.44,-23.99 0,-5.91 -1.37,-10.52 -4.11,-13.83 -2.74,-3.31 -6.86,-4.97 -12.34,-4.97 -5.49,0 -9.79,2.06 -12.89,6.16 -3.11,4.11 -4.66,9.91 -4.66,17.4l-35.73 0c0.29,-12.25 2.93,-22.48 7.91,-30.69 4.98,-8.21 11.55,-14.26 19.71,-18.15 8.16,-3.89 17.22,-5.83 27.18,-5.83 17.19,0 30.14,4.39 38.87,13.18 8.74,8.79 13.1,20.24 13.1,34.36 0,15.42 -5.27,29.72 -15.81,42.9 -10.54,13.18 -23.97,26.04 -40.28,38.57l58.47 0 0 30.04 -108.72 0 0 -27.44z"/>
   <path id="6" class="fil4" d="M6607.74 9258.57c-13.57,-7.2 -20.36,-18.52 -20.36,-33.93 0,-7.78 2.02,-14.88 6.06,-21.29 4.04,-6.41 10.18,-11.53 18.41,-15.35 8.23,-3.81 18.34,-5.72 30.32,-5.72 11.99,0 22.06,1.91 30.21,5.72 8.16,3.82 14.26,8.93 18.3,15.35 4.04,6.41 6.06,13.51 6.06,21.29 0,7.78 -1.84,14.55 -5.52,20.31 -3.69,5.76 -8.63,10.3 -14.84,13.61 7.8,3.74 13.79,8.9 17.98,15.45 4.19,6.56 6.28,14.23 6.28,23.02 0,10.23 -2.59,19.06 -7.8,26.47 -5.2,7.42 -12.23,13.07 -21.11,16.96 -8.88,3.89 -18.73,5.84 -29.56,5.84 -10.83,0 -20.68,-1.95 -29.56,-5.84 -8.87,-3.89 -15.91,-9.54 -21.11,-16.96 -5.2,-7.42 -7.8,-16.24 -7.8,-26.47 0,-8.93 2.09,-16.68 6.28,-23.23 4.19,-6.56 10.11,-11.63 17.76,-15.24zm53.06 -28.31c0,-5.91 -1.7,-10.48 -5.09,-13.72 -3.39,-3.24 -7.9,-4.86 -13.54,-4.86 -5.63,0 -10.14,1.66 -13.53,4.97 -3.39,3.31 -5.09,7.92 -5.09,13.83 0,5.62 1.73,10.05 5.2,13.29 3.46,3.24 7.94,4.86 13.43,4.86 5.49,0 9.96,-1.66 13.43,-4.97 3.46,-3.31 5.2,-7.78 5.2,-13.4zm-18.63 44.3c-6.78,0 -12.27,1.84 -16.46,5.51 -4.19,3.67 -6.28,8.75 -6.28,15.24 0,6.05 2.06,11.02 6.17,14.91 4.12,3.89 9.64,5.83 16.57,5.83 6.93,0 12.38,-1.94 16.35,-5.83 3.97,-3.89 5.95,-8.86 5.95,-14.91 0,-6.34 -2.06,-11.38 -6.17,-15.13 -4.11,-3.74 -9.49,-5.62 -16.14,-5.62z"/>
   <path id="7" class="fil4" d="M6723.39 9230.05c0.58,-15.42 5.63,-27.3 15.16,-35.66 9.53,-8.36 22.45,-12.54 38.77,-12.54 10.83,0 20.11,1.87 27.83,5.62 7.72,3.75 13.57,8.86 17.54,15.35 3.97,6.48 5.96,13.76 5.96,21.83 0,9.51 -2.38,17.25 -7.15,23.23 -4.77,5.98 -10.32,10.05 -16.68,12.21l0 0.87c8.23,2.74 14.73,7.28 19.49,13.61 4.76,6.34 7.15,14.48 7.15,24.42 0,8.93 -2.06,16.82 -6.17,23.67 -4.12,6.84 -10.11,12.21 -17.98,16.1 -7.87,3.89 -17.22,5.83 -28.05,5.83 -17.33,0 -31.15,-4.25 -41.47,-12.75 -10.32,-8.5 -15.77,-21.32 -16.35,-38.47l35.95 0c0.15,6.34 1.95,11.35 5.41,15.02 3.46,3.67 8.52,5.51 15.16,5.51 5.63,0 10,-1.62 13.1,-4.87 3.1,-3.24 4.66,-7.53 4.66,-12.86 0,-6.91 -2.2,-11.92 -6.61,-15.02 -4.41,-3.1 -11.44,-4.65 -21.11,-4.65l-6.93 0 0 -30.04 6.93 0c7.36,0 13.31,-1.26 17.87,-3.78 4.55,-2.52 6.82,-7.02 6.82,-13.51 0,-5.19 -1.44,-9.22 -4.33,-12.1 -2.89,-2.88 -6.86,-4.32 -11.91,-4.32 -5.48,0 -9.56,1.65 -12.24,4.97 -2.67,3.31 -4.22,7.42 -4.65,12.32l-36.17 0z"/>
   <path id="8" class="fil4" d="M6938.87 9297.04c2.17,11.38 8.81,17.07 19.93,17.07 7.65,0 13.07,-3.39 16.24,-10.16 3.18,-6.77 4.76,-17.79 4.76,-33.06 -3.18,4.46 -7.51,7.93 -12.99,10.37 -5.49,2.45 -11.62,3.67 -18.41,3.67 -9.24,0 -17.47,-1.91 -24.69,-5.73 -7.22,-3.82 -12.89,-9.51 -17,-17.07 -4.11,-7.57 -6.17,-16.75 -6.17,-27.56 0,-10.66 2.2,-19.96 6.61,-27.88 4.41,-7.93 10.69,-14.05 18.84,-18.37 8.16,-4.32 17.8,-6.48 28.92,-6.48 21.37,0 36.31,6.63 44.82,19.88 8.52,13.26 12.78,32.78 12.78,58.57 0,18.73 -1.7,34.18 -5.09,46.36 -3.39,12.17 -9.09,21.43 -17.11,27.77 -8.01,6.34 -18.95,9.51 -32.81,9.51 -10.97,0 -20.32,-2.16 -28.04,-6.48 -7.72,-4.32 -13.65,-10.01 -17.76,-17.07 -4.12,-7.06 -6.46,-14.84 -7.04,-23.34l34.22 0zm17.98 -41.28c6.06,0 10.9,-1.83 14.5,-5.51 3.61,-3.68 5.42,-8.68 5.42,-15.02 0,-6.92 -1.88,-12.25 -5.63,-16 -3.76,-3.74 -8.81,-5.62 -15.16,-5.62 -6.35,0 -11.37,1.91 -15.05,5.73 -3.68,3.82 -5.52,9.04 -5.52,15.67 0,6.19 1.84,11.2 5.52,15.02 3.68,3.81 8.99,5.72 15.92,5.72z"/>
   <path id="9" class="fil4" d="M7110.4 9228.1c-1.15,-5.33 -3.18,-9.33 -6.06,-12 -2.89,-2.67 -7,-4 -12.34,-4 -8.23,0 -14.15,3.57 -17.76,10.7 -3.61,7.13 -5.48,18.41 -5.63,33.82 3.18,-5.04 7.76,-9 13.75,-11.89 6,-2.88 12.6,-4.32 19.82,-4.32 14.15,0 25.52,4.46 34.11,13.4 8.59,8.93 12.89,21.4 12.89,37.39 0,10.52 -2.13,19.74 -6.39,27.66 -4.26,7.93 -10.47,14.12 -18.63,18.59 -8.16,4.46 -17.8,6.7 -28.91,6.7 -22.24,0 -37.68,-6.95 -46.34,-20.86 -8.67,-13.9 -13,-33.89 -13,-59.97 0,-27.38 4.58,-47.73 13.75,-61.06 9.17,-13.33 23.86,-19.99 44.07,-19.99 10.82,0 19.96,2.12 27.39,6.37 7.43,4.25 13.07,9.83 16.89,16.75 3.83,6.92 6.1,14.48 6.83,22.69l-34.44 0zm-17.11 41.49c-6.21,0 -11.37,1.84 -15.48,5.51 -4.11,3.67 -6.17,8.9 -6.17,15.67 0,6.92 1.91,12.32 5.74,16.21 3.83,3.89 9.28,5.83 16.35,5.83 6.35,0 11.37,-1.91 15.05,-5.73 3.68,-3.81 5.52,-9.04 5.52,-15.67 0,-6.77 -1.81,-12.1 -5.41,-15.99 -3.61,-3.89 -8.81,-5.84 -15.59,-5.84z"/>
   <path id="10" class="fil4" d="M7281.48 9217.73l-67.57 0 0 29.82c2.89,-3.17 6.93,-5.76 12.13,-7.78 5.2,-2.02 10.83,-3.02 16.89,-3.02 10.83,0 19.81,2.45 26.96,7.35 7.15,4.9 12.38,11.24 15.7,19.02 3.32,7.78 4.98,16.21 4.98,25.28 0,16.86 -4.76,30.22 -14.29,40.09 -9.53,9.87 -22.96,14.8 -40.28,14.8 -11.55,0 -21.58,-1.98 -30.1,-5.94 -8.52,-3.96 -15.09,-9.47 -19.71,-16.53 -4.62,-7.06 -7.15,-15.2 -7.58,-24.42l36.17 0c0.87,4.47 2.96,8.18 6.28,11.13 3.32,2.95 7.87,4.43 13.65,4.43 6.78,0 11.84,-2.16 15.16,-6.48 3.32,-4.32 4.98,-10.09 4.98,-17.29 0,-7.06 -1.73,-12.46 -5.19,-16.21 -3.46,-3.74 -8.52,-5.62 -15.17,-5.62 -4.91,0 -8.95,1.19 -12.13,3.57 -3.18,2.38 -5.27,5.51 -6.28,9.4l-35.74 0 0 -94.01 101.13 0 0 32.42z"/>
   <polygon id="11" class="fil4" points="7307.04,9219.89 7307.04,9185.53 7367.03,9185.53 7367.03,9343.29 7328.48,9343.29 7328.48,9219.89 "/>
   <path id="12" class="fil4" d="M7392.37 9262.25c0,-24.78 4.8,-44.3 14.41,-58.57 9.6,-14.26 25.08,-21.39 46.45,-21.39 21.37,0 36.85,7.13 46.46,21.39 9.6,14.26 14.4,33.79 14.4,58.57 0,25.07 -4.8,44.74 -14.4,59 -9.61,14.26 -25.09,21.39 -46.46,21.39 -21.37,0 -36.85,-7.13 -46.45,-21.39 -9.6,-14.26 -14.41,-33.93 -14.41,-59zm85.33 0c0,-14.55 -1.59,-25.75 -4.77,-33.61 -3.17,-7.85 -9.74,-11.78 -19.7,-11.78 -9.96,0 -16.53,3.93 -19.71,11.78 -3.17,7.85 -4.76,19.06 -4.76,33.61 0,9.8 0.58,17.9 1.73,24.31 1.15,6.41 3.5,11.6 7.04,15.56 3.54,3.96 8.77,5.94 15.7,5.94 6.93,0 12.16,-1.98 15.7,-5.94 3.54,-3.96 5.88,-9.15 7.04,-15.56 1.16,-6.41 1.73,-14.52 1.73,-24.31z"/>
   <polygon id="13" class="fil4" points="7665.68,9137.98 7607.63,9383.7 7571.9,9383.7 7629.94,9137.98 "/>
   <polygon id="14" class="fil4" points="7836.98,9284.29 7799.3,9284.29 7799.3,9322.76 7764.21,9322.76 7764.21,9284.29 7726.53,9284.29 7726.53,9251.23 7764.21,9251.23 7764.21,9212.54 7799.3,9212.54 7799.3,9251.23 7836.98,9251.23 "/>
   <path id="15" class="fil4" d="M7899.35 9297.04c2.17,11.38 8.81,17.07 19.93,17.07 7.65,0 13.07,-3.39 16.24,-10.16 3.17,-6.77 4.76,-17.79 4.76,-33.06 -3.18,4.46 -7.51,7.93 -12.99,10.37 -5.49,2.45 -11.62,3.67 -18.41,3.67 -9.24,0 -17.47,-1.91 -24.69,-5.73 -7.22,-3.82 -12.89,-9.51 -17,-17.07 -4.11,-7.57 -6.17,-16.75 -6.17,-27.56 0,-10.66 2.2,-19.96 6.61,-27.88 4.41,-7.93 10.69,-14.05 18.84,-18.37 8.16,-4.32 17.8,-6.48 28.92,-6.48 21.37,0 36.31,6.63 44.83,19.88 8.52,13.26 12.78,32.78 12.78,58.57 0,18.73 -1.7,34.18 -5.09,46.36 -3.39,12.17 -9.09,21.43 -17.11,27.77 -8.02,6.34 -18.95,9.51 -32.81,9.51 -10.97,0 -20.32,-2.16 -28.04,-6.48 -7.72,-4.32 -13.65,-10.01 -17.76,-17.07 -4.11,-7.06 -6.46,-14.84 -7.04,-23.34l34.22 0zm17.98 -41.28c6.06,0 10.9,-1.83 14.51,-5.51 3.61,-3.68 5.42,-8.68 5.42,-15.02 0,-6.92 -1.88,-12.25 -5.63,-16 -3.76,-3.74 -8.81,-5.62 -15.17,-5.62 -6.35,0 -11.37,1.91 -15.05,5.73 -3.68,3.82 -5.52,9.04 -5.52,15.67 0,6.19 1.84,11.2 5.52,15.02 3.68,3.81 8.99,5.72 15.92,5.72z"/>
   <polygon id="16" class="fil4" points="7988.8,9219.89 7988.8,9185.53 8048.78,9185.53 8048.78,9343.29 8010.24,9343.29 8010.24,9219.89 "/>
   <path id="17" class="fil4" d="M8159.88 9297.04c2.17,11.38 8.81,17.07 19.93,17.07 7.65,0 13.07,-3.39 16.24,-10.16 3.18,-6.77 4.76,-17.79 4.76,-33.06 -3.18,4.46 -7.51,7.93 -12.99,10.37 -5.49,2.45 -11.62,3.67 -18.41,3.67 -9.24,0 -17.47,-1.91 -24.69,-5.73 -7.22,-3.82 -12.89,-9.51 -17,-17.07 -4.11,-7.57 -6.17,-16.75 -6.17,-27.56 0,-10.66 2.2,-19.96 6.61,-27.88 4.4,-7.93 10.69,-14.05 18.84,-18.37 8.16,-4.32 17.8,-6.48 28.92,-6.48 21.37,0 36.31,6.63 44.82,19.88 8.52,13.26 12.78,32.78 12.78,58.57 0,18.73 -1.7,34.18 -5.09,46.36 -3.39,12.17 -9.09,21.43 -17.11,27.77 -8.01,6.34 -18.95,9.51 -32.81,9.51 -10.97,0 -20.32,-2.16 -28.04,-6.48 -7.72,-4.32 -13.65,-10.01 -17.76,-17.07 -4.12,-7.06 -6.46,-14.84 -7.04,-23.34l34.22 0zm17.98 -41.28c6.06,0 10.9,-1.83 14.5,-5.51 3.61,-3.68 5.42,-8.68 5.42,-15.02 0,-6.92 -1.88,-12.25 -5.63,-16 -3.76,-3.74 -8.81,-5.62 -15.16,-5.62 -6.35,0 -11.37,1.91 -15.05,5.73 -3.68,3.82 -5.52,9.04 -5.52,15.67 0,6.19 1.84,11.2 5.52,15.02 3.68,3.81 8.99,5.72 15.92,5.72z"/>
   <path id="18" class="fil4" d="M8254.09 9315.2l0 -29.82 68.44 -97.69 41.37 0 0 95.52 17.76 0 0 31.98 -17.76 0 0 28.09 -37.04 0 0 -28.09 -72.77 0zm75.37 -86.88l-36.39 54.89 36.39 0 0 -54.89z"/>
   <path id="19" class="fil4" d="M8398.54 9313.69c4.91,-3.89 7.15,-5.69 6.72,-5.41 14.15,-11.67 25.3,-21.25 33.45,-28.74 8.16,-7.49 15.06,-15.35 20.69,-23.56 5.63,-8.21 8.45,-16.21 8.45,-23.99 0,-5.91 -1.37,-10.52 -4.11,-13.83 -2.75,-3.31 -6.86,-4.97 -12.35,-4.97 -5.49,0 -9.78,2.06 -12.89,6.16 -3.1,4.11 -4.66,9.91 -4.66,17.4l-35.73 0c0.29,-12.25 2.92,-22.48 7.91,-30.69 4.98,-8.21 11.55,-14.26 19.71,-18.15 8.16,-3.89 17.22,-5.83 27.18,-5.83 17.18,0 30.14,4.39 38.87,13.18 8.73,8.79 13.1,20.24 13.1,34.36 0,15.42 -5.27,29.72 -15.81,42.9 -10.54,13.18 -23.96,26.04 -40.28,38.57l58.47 0 0 30.04 -108.72 0 0 -27.44z"/>
   <path id="20" class="fil4" d="M8601.69 9228.1c-1.15,-5.33 -3.18,-9.33 -6.06,-12 -2.89,-2.67 -7,-4 -12.35,-4 -8.23,0 -14.15,3.57 -17.76,10.7 -3.61,7.13 -5.48,18.41 -5.63,33.82 3.18,-5.04 7.76,-9 13.75,-11.89 5.99,-2.88 12.6,-4.32 19.82,-4.32 14.15,0 25.52,4.46 34.11,13.4 8.59,8.93 12.89,21.4 12.89,37.39 0,10.52 -2.13,19.74 -6.39,27.66 -4.26,7.93 -10.46,14.12 -18.62,18.59 -8.16,4.46 -17.8,6.7 -28.91,6.7 -22.24,0 -37.68,-6.95 -46.35,-20.86 -8.66,-13.9 -12.99,-33.89 -12.99,-59.97 0,-27.38 4.58,-47.73 13.75,-61.06 9.17,-13.33 23.86,-19.99 44.07,-19.99 10.83,0 19.96,2.12 27.4,6.37 7.43,4.25 13.07,9.83 16.89,16.75 3.83,6.92 6.1,14.48 6.83,22.69l-34.44 0zm-17.11 41.49c-6.21,0 -11.37,1.84 -15.48,5.51 -4.11,3.67 -6.17,8.9 -6.17,15.67 0,6.92 1.91,12.32 5.74,16.21 3.83,3.89 9.28,5.83 16.35,5.83 6.35,0 11.37,-1.91 15.05,-5.73 3.68,-3.81 5.52,-9.04 5.52,-15.67 0,-6.77 -1.81,-12.1 -5.42,-15.99 -3.61,-3.89 -8.8,-5.84 -15.59,-5.84z"/>
   <path id="21" class="fil4" d="M8660.16 9313.69c4.91,-3.89 7.15,-5.69 6.72,-5.41 14.15,-11.67 25.3,-21.25 33.46,-28.74 8.16,-7.49 15.06,-15.35 20.69,-23.56 5.63,-8.21 8.44,-16.21 8.44,-23.99 0,-5.91 -1.37,-10.52 -4.11,-13.83 -2.74,-3.31 -6.86,-4.97 -12.35,-4.97 -5.48,0 -9.78,2.06 -12.88,6.16 -3.11,4.11 -4.66,9.91 -4.66,17.4l-35.73 0c0.29,-12.25 2.93,-22.48 7.91,-30.69 4.98,-8.21 11.55,-14.26 19.71,-18.15 8.16,-3.89 17.22,-5.83 27.18,-5.83 17.18,0 30.14,4.39 38.87,13.18 8.74,8.79 13.1,20.24 13.1,34.36 0,15.42 -5.27,29.72 -15.81,42.9 -10.54,13.18 -23.97,26.04 -40.28,38.57l58.47 0 0 30.04 -108.72 0 0 -27.44z"/>
   <path id="22" class="fil4" d="M8831.9 9315.2l0 -29.82 68.43 -97.69 41.37 0 0 95.52 17.76 0 0 31.98 -17.76 0 0 28.09 -37.04 0 0 -28.09 -72.76 0zm75.37 -86.88l-36.39 54.89 36.39 0 0 -54.89z"/>
   <polygon id="23" class="fil4" points="9078.57,9213.19 9024.21,9343.29 8986.31,9343.29 9041.32,9217.3 8973.96,9217.3 8973.96,9185.74 9078.57,9185.74 "/>
   <path id="24" class="fil4" d="M9204.83 9217.73l-67.57 0 0 29.82c2.89,-3.17 6.93,-5.76 12.13,-7.78 5.2,-2.02 10.83,-3.02 16.89,-3.02 10.83,0 19.81,2.45 26.96,7.35 7.15,4.9 12.38,11.24 15.7,19.02 3.32,7.78 4.98,16.21 4.98,25.28 0,16.86 -4.76,30.22 -14.29,40.09 -9.54,9.87 -22.96,14.8 -40.28,14.8 -11.55,0 -21.58,-1.98 -30.1,-5.94 -8.52,-3.96 -15.09,-9.47 -19.71,-16.53 -4.62,-7.06 -7.15,-15.2 -7.58,-24.42l36.17 0c0.87,4.47 2.96,8.18 6.28,11.13 3.32,2.95 7.87,4.43 13.64,4.43 6.79,0 11.84,-2.16 15.16,-6.48 3.32,-4.32 4.98,-10.09 4.98,-17.29 0,-7.06 -1.73,-12.46 -5.2,-16.21 -3.46,-3.74 -8.52,-5.62 -15.16,-5.62 -4.91,0 -8.95,1.19 -12.13,3.57 -3.18,2.38 -5.27,5.51 -6.28,9.4l-35.74 0 0 -94.01 101.14 0 0 32.42z"/>
   <polygon id="25" class="fil4" points="9230.38,9219.89 9230.38,9185.53 9290.37,9185.53 9290.37,9343.29 9251.82,9343.29 9251.82,9219.89 "/>
   <path id="26" class="fil4" d="M9316.58 9315.2l0 -29.82 68.43 -97.69 41.37 0 0 95.52 17.76 0 0 31.98 -17.76 0 0 28.09 -37.04 0 0 -28.09 -72.76 0zm75.37 -86.88l-36.39 54.89 36.39 0 0 -54.89z"/>
   <g>
    <path class="fil4" d="M5576.8 9150.62c31.82,0 60.64,12.9 81.49,33.75 20.85,20.85 33.75,49.67 33.75,81.49 0,31.82 -12.9,60.64 -33.75,81.49 -20.85,20.85 -49.67,33.75 -81.49,33.75 -31.82,0 -60.64,-12.9 -81.49,-33.75 -20.85,-20.85 -33.75,-49.67 -33.75,-81.49 0,-31.82 12.9,-60.64 33.75,-81.49 20.85,-20.85 49.67,-33.75 81.49,-33.75zm76.68 38.56c-19.62,-19.62 -46.73,-31.76 -76.68,-31.76 -29.94,0 -57.06,12.14 -76.68,31.76 -19.62,19.62 -31.76,46.74 -31.76,76.68 0,29.94 12.14,57.06 31.76,76.68 19.62,19.62 46.73,31.76 76.68,31.76 29.95,0 57.06,-12.14 76.68,-31.76 19.62,-19.62 31.76,-46.73 31.76,-76.68 0,-29.94 -12.14,-57.06 -31.76,-76.68z"/>
    <path class="fil5" d="M5576.8 9180.02c47.41,0 85.85,38.43 85.85,85.84 0,47.4 -38.43,85.84 -85.85,85.84 -47.41,0 -85.84,-38.44 -85.84,-85.84 0,-47.41 38.43,-85.84 85.84,-85.84zm-14.63 102.47c2.31,2.27 6.32,5.7 8.63,7.98l7.61 6.67c1.29,0.95 2.59,2.01 3.74,2.87l7.62 5.39c2.19,1.38 2.71,2.03 5.73,3.68 4.76,2.62 4.63,2.44 9.46,4.57 2.36,1.03 9.06,2.6 11.41,2.38 1.31,-0.13 2.39,-0.12 3.71,-0.46 0.7,-0.17 1.16,-0.26 1.85,-0.54 2.66,-1.07 3.53,-2.93 5.36,-5.4 1.12,-1.52 2.2,-3.04 3.32,-4.43 1.15,-1.44 2.1,-2.81 3.16,-4.3 1.07,-1.51 2.49,-2.91 3.27,-4.41l-19.76 -19.46c-2.91,0.57 -12.9,3.4 -16.71,4.42 -0.56,0.15 -0.7,0.37 -1.13,-0.04l-36.04 -35.4c-0.56,-0.54 0.41,-3.02 0.6,-3.82l1.34 -5.16c0.24,-0.98 2.42,-8.5 2.09,-8.95l-19.13 -18.8c-0.52,-0.52 -0.63,-0.42 -1.17,-0.04l-3.71 2.72c-0.74,0.58 -1.73,1.32 -2.45,1.84l-7.4 5.57c-0.41,0.26 -0.73,0.56 -1.22,0.98 -0.46,0.41 -0.86,0.56 -1.24,0.83 -1.66,1.2 -2.3,4.2 -2.54,6.05 -0.34,2.5 -0.12,0.69 -0.09,2.46 0.02,2.78 -0.27,1.58 0.52,4.91l2.87 8.59c0.48,0.87 0.65,1.53 1.12,2.46 0.48,0.91 0.86,1.58 1.33,2.46 0.24,0.45 0.39,0.68 0.72,1.23 1.41,2.39 2.11,3.72 3.87,6.13 0.63,0.85 1.09,1.59 1.72,2.46l7.77 9.82c1.37,1.33 3.21,3.51 4.33,4.93 0.7,0.89 1.67,1.59 2.44,2.45 2.26,2.55 3.71,3.83 6.02,6.15 0.48,0.48 0.72,0.96 0.99,1.22z"/>
   </g>
  </g>
  <g id="_2382968161552">
   <polygon class="fil6" points="1158.51,9811.3 1130.64,9811.3 1067.54,9716.15 1067.54,9811.3 1039.67,9811.3 1039.67,9672.45 1067.54,9672.45 1130.64,9767.8 1130.64,9672.45 1158.51,9672.45 "/>
   <path id="1" class="fil6" d="M1288.49 9753.89c0,3.97 -0.27,7.55 -0.8,10.73l-80.62 0c0.66,7.94 3.45,14.17 8.36,18.67 4.91,4.5 10.94,6.76 18.11,6.76 10.35,0 17.72,-4.44 22.09,-13.31l30.06 0c-3.19,10.59 -9.29,19.3 -18.31,26.12 -9.03,6.82 -20.11,10.23 -33.24,10.23 -10.61,0 -20.13,-2.35 -28.56,-7.05 -8.43,-4.7 -15,-11.35 -19.7,-19.96 -4.71,-8.61 -7.07,-18.54 -7.07,-29.79 0,-11.39 2.32,-21.39 6.97,-30 4.64,-8.61 11.15,-15.23 19.5,-19.86 8.36,-4.63 17.98,-6.95 28.86,-6.95 10.48,0 19.87,2.25 28.17,6.75 8.3,4.5 14.73,10.89 19.31,19.17 4.57,8.28 6.87,17.78 6.87,28.5zm-28.86 -7.94c-0.13,-7.15 -2.72,-12.88 -7.76,-17.18 -5.04,-4.3 -11.21,-6.46 -18.51,-6.46 -6.9,0 -12.71,2.09 -17.42,6.26 -4.71,4.17 -7.59,9.96 -8.66,17.38l52.35 0z"/>
   <polygon id="2" class="fil6" points="1461.67,9701.25 1429.42,9811.3 1399.36,9811.3 1379.26,9734.43 1359.15,9811.3 1328.9,9811.3 1296.45,9701.25 1324.72,9701.25 1344.22,9785.07 1365.32,9701.25 1394.78,9701.25 1415.48,9784.88 1434.99,9701.25 "/>
   <polygon id="3" class="fil6" points="1675.65,9672.65 1675.65,9811.3 1647.78,9811.3 1647.78,9721.11 1610.56,9811.3 1589.46,9811.3 1552.04,9721.11 1552.04,9811.3 1524.17,9811.3 1524.17,9672.65 1555.81,9672.65 1600,9775.74 1644.19,9672.65 "/>
   <path id="4" class="fil6" d="M1695.94 9755.88c0,-11.13 2.22,-20.99 6.67,-29.6 4.44,-8.61 10.48,-15.23 18.11,-19.86 7.63,-4.63 16.15,-6.95 25.58,-6.95 8.22,0 15.43,1.65 21.6,4.96 6.17,3.31 11.11,7.48 14.83,12.52l0 -15.69 28.06 0 0 110.04 -28.06 0 0 -16.09c-3.58,5.17 -8.53,9.44 -14.83,12.81 -6.31,3.37 -13.57,5.06 -21.8,5.06 -9.29,0 -17.75,-2.38 -25.38,-7.15 -7.63,-4.77 -13.67,-11.49 -18.11,-20.16 -4.45,-8.67 -6.67,-18.64 -6.67,-29.89zm86.79 0.4c0,-6.76 -1.33,-12.55 -3.98,-17.38 -2.65,-4.83 -6.23,-8.54 -10.74,-11.12 -4.52,-2.58 -9.35,-3.87 -14.53,-3.87 -5.18,0 -9.95,1.26 -14.33,3.77 -4.38,2.52 -7.93,6.19 -10.65,11.02 -2.72,4.83 -4.08,10.56 -4.08,17.19 0,6.62 1.36,12.41 4.08,17.38 2.72,4.97 6.3,8.78 10.74,11.42 4.45,2.65 9.19,3.97 14.24,3.97 5.18,0 10.02,-1.29 14.53,-3.87 4.51,-2.58 8.09,-6.29 10.74,-11.13 2.66,-4.83 3.98,-10.63 3.98,-17.38z"/>
   <path id="5" class="fil6" d="M1865.94 9718.33c3.58,-5.83 8.26,-10.39 14.03,-13.7 5.77,-3.31 12.37,-4.97 19.81,-4.97l0 29.2 -7.37 0c-8.76,0 -15.36,2.05 -19.81,6.16 -4.44,4.11 -6.67,11.26 -6.67,21.45l0 54.82 -27.87 0 0 -110.04 27.87 0 0 17.08z"/>
   <polygon id="6" class="fil6" points="1983.78,9811.3 1946.35,9764.42 1946.35,9811.3 1918.48,9811.3 1918.48,9664.31 1946.35,9664.31 1946.35,9747.93 1983.37,9701.25 2019.6,9701.25 1971.04,9756.47 2020,9811.3 "/>
   <path id="7" class="fil6" d="M2137.24 9753.89c0,3.97 -0.27,7.55 -0.8,10.73l-80.62 0c0.66,7.94 3.45,14.17 8.36,18.67 4.91,4.5 10.95,6.76 18.12,6.76 10.35,0 17.71,-4.44 22.09,-13.31l30.06 0c-3.19,10.59 -9.29,19.3 -18.31,26.12 -9.03,6.82 -20.11,10.23 -33.24,10.23 -10.61,0 -20.13,-2.35 -28.56,-7.05 -8.43,-4.7 -15,-11.35 -19.7,-19.96 -4.71,-8.61 -7.07,-18.54 -7.07,-29.79 0,-11.39 2.32,-21.39 6.97,-30 4.64,-8.61 11.14,-15.23 19.5,-19.86 8.36,-4.63 17.98,-6.95 28.86,-6.95 10.48,0 19.87,2.25 28.17,6.75 8.3,4.5 14.73,10.89 19.31,19.17 4.57,8.28 6.87,17.78 6.87,28.5zm-28.86 -7.94c-0.13,-7.15 -2.72,-12.88 -7.76,-17.18 -5.04,-4.3 -11.21,-6.46 -18.51,-6.46 -6.9,0 -12.71,2.09 -17.42,6.26 -4.71,4.17 -7.59,9.96 -8.66,17.38l52.35 0z"/>
   <path id="8" class="fil6" d="M2189.99 9724.09l0 53.24c0,3.7 0.9,6.39 2.69,8.04 1.79,1.65 4.81,2.48 9.06,2.48l12.93 0 0 23.44 -17.52 0c-23.48,0 -35.23,-11.39 -35.23,-34.17l0 -53.04 -13.14 0 0 -22.84 13.14 0 0 -27.21 28.07 0 0 27.21 24.68 0 0 22.84 -24.68 0z"/>
   <path id="9" class="fil6" d="M2248.91 9688.14c-4.91,0 -8.99,-1.56 -12.24,-4.67 -3.26,-3.11 -4.88,-6.98 -4.88,-11.62 0,-4.63 1.62,-8.51 4.88,-11.62 3.25,-3.11 7.33,-4.67 12.24,-4.67 4.91,0 8.99,1.56 12.24,4.67 3.25,3.11 4.88,6.99 4.88,11.62 0,4.63 -1.63,8.51 -4.88,11.62 -3.25,3.11 -7.33,4.67 -12.24,4.67zm13.74 13.11l0 110.04 -27.87 0 0 -110.04 27.87 0z"/>
   <path id="10" class="fil6" d="M2351.22 9699.66c13.14,0 23.76,4.14 31.85,12.42 8.09,8.28 12.14,19.83 12.14,34.66l0 64.56 -27.87 0 0 -60.78c0,-8.74 -2.19,-15.46 -6.57,-20.16 -4.38,-4.7 -10.35,-7.05 -17.91,-7.05 -7.7,0 -13.77,2.35 -18.21,7.05 -4.44,4.7 -6.67,11.42 -6.67,20.16l0 60.78 -27.87 0 0 -110.04 27.87 0 0 13.7c3.71,-4.77 8.46,-8.51 14.23,-11.22 5.77,-2.72 12.11,-4.07 19.01,-4.07z"/>
   <path id="11" class="fil6" d="M2464.89 9699.46c8.22,0 15.46,1.62 21.69,4.87 6.24,3.24 11.15,7.45 14.73,12.61l0 -15.69 28.07 0 0 110.84c0,10.2 -2.06,19.3 -6.17,27.31 -4.11,8.01 -10.28,14.37 -18.51,19.07 -8.23,4.7 -18.18,7.05 -29.86,7.05 -15.66,0 -28.5,-3.64 -38.52,-10.93 -10.02,-7.28 -15.69,-17.22 -17.02,-29.8l27.67 0c1.46,5.03 4.61,9.04 9.45,12.02 4.85,2.98 10.72,4.47 17.61,4.47 8.1,0 14.67,-2.41 19.71,-7.25 5.04,-4.83 7.56,-12.15 7.56,-21.95l0 -17.08c-3.58,5.17 -8.53,9.47 -14.83,12.91 -6.3,3.44 -13.5,5.17 -21.59,5.17 -9.29,0 -17.79,-2.38 -25.48,-7.15 -7.7,-4.77 -13.77,-11.49 -18.22,-20.16 -4.44,-8.67 -6.67,-18.64 -6.67,-29.89 0,-11.13 2.22,-20.99 6.67,-29.6 4.45,-8.61 10.48,-15.23 18.11,-19.86 7.63,-4.63 16.16,-6.95 25.58,-6.95zm36.42 56.81c0,-6.76 -1.33,-12.55 -3.98,-17.38 -2.65,-4.83 -6.23,-8.54 -10.75,-11.12 -4.51,-2.58 -9.35,-3.87 -14.53,-3.87 -5.17,0 -9.95,1.26 -14.33,3.77 -4.38,2.52 -7.93,6.19 -10.65,11.02 -2.72,4.83 -4.08,10.56 -4.08,17.19 0,6.62 1.36,12.41 4.08,17.38 2.72,4.97 6.3,8.78 10.75,11.42 4.44,2.65 9.19,3.97 14.23,3.97 5.18,0 10.02,-1.29 14.53,-3.87 4.52,-2.58 8.09,-6.29 10.75,-11.13 2.65,-4.83 3.98,-10.63 3.98,-17.38z"/>
   <polygon id="12" class="fil6" points="2714.49,9672.65 2667.52,9763.03 2667.52,9811.3 2639.65,9811.3 2639.65,9763.03 2592.48,9672.65 2623.93,9672.65 2653.78,9736.01 2683.44,9672.65 "/>
   <path id="13" class="fil6" d="M2723.45 9755.88c0,-11.13 2.22,-20.99 6.67,-29.6 4.44,-8.61 10.48,-15.23 18.11,-19.86 7.63,-4.63 16.16,-6.95 25.58,-6.95 8.22,0 15.43,1.65 21.6,4.96 6.17,3.31 11.11,7.48 14.82,12.52l0 -15.69 28.07 0 0 110.04 -28.07 0 0 -16.09c-3.58,5.17 -8.52,9.44 -14.82,12.81 -6.31,3.37 -13.57,5.06 -21.8,5.06 -9.29,0 -17.75,-2.38 -25.38,-7.15 -7.63,-4.77 -13.67,-11.49 -18.11,-20.16 -4.45,-8.67 -6.67,-18.64 -6.67,-29.89zm86.78 0.4c0,-6.76 -1.32,-12.55 -3.98,-17.38 -2.65,-4.83 -6.23,-8.54 -10.74,-11.12 -4.52,-2.58 -9.35,-3.87 -14.53,-3.87 -5.18,0 -9.95,1.26 -14.33,3.77 -4.38,2.52 -7.93,6.19 -10.65,11.02 -2.72,4.83 -4.08,10.56 -4.08,17.19 0,6.62 1.36,12.41 4.08,17.38 2.72,4.97 6.3,8.78 10.74,11.42 4.45,2.65 9.19,3.97 14.24,3.97 5.18,0 10.02,-1.29 14.53,-3.87 4.51,-2.58 8.09,-6.29 10.74,-11.13 2.66,-4.83 3.98,-10.63 3.98,-17.38z"/>
   <path id="14" class="fil6" d="M2893.44 9718.33c3.58,-5.83 8.26,-10.39 14.03,-13.7 5.77,-3.31 12.37,-4.97 19.81,-4.97l0 29.2 -7.37 0c-8.76,0 -15.36,2.05 -19.81,6.16 -4.44,4.11 -6.67,11.26 -6.67,21.45l0 54.82 -27.87 0 0 -110.04 27.87 0 0 17.08z"/>
   <path id="15" class="fil6" d="M2938.82 9755.88c0,-11.13 2.22,-20.99 6.67,-29.6 4.45,-8.61 10.52,-15.23 18.22,-19.86 7.69,-4.63 16.26,-6.95 25.68,-6.95 7.17,0 14,1.56 20.5,4.67 6.5,3.11 11.68,7.25 15.52,12.41l0 -52.24 28.26 0 0 146.99 -28.26 0 0 -16.29c-3.45,5.43 -8.29,9.8 -14.53,13.11 -6.24,3.31 -13.47,4.96 -21.69,4.96 -9.29,0 -17.79,-2.38 -25.48,-7.15 -7.7,-4.77 -13.77,-11.49 -18.22,-20.16 -4.44,-8.67 -6.67,-18.64 -6.67,-29.89zm86.78 0.4c0,-6.76 -1.33,-12.55 -3.98,-17.38 -2.65,-4.83 -6.23,-8.54 -10.75,-11.12 -4.51,-2.58 -9.35,-3.87 -14.53,-3.87 -5.18,0 -9.96,1.26 -14.33,3.77 -4.38,2.52 -7.93,6.19 -10.65,11.02 -2.72,4.83 -4.08,10.56 -4.08,17.19 0,6.62 1.36,12.41 4.08,17.38 2.72,4.97 6.31,8.78 10.75,11.42 4.44,2.65 9.19,3.97 14.24,3.97 5.17,0 10.02,-1.29 14.53,-3.87 4.52,-2.58 8.1,-6.29 10.75,-11.13 2.65,-4.83 3.98,-10.63 3.98,-17.38z"/>
   <polygon id="16" class="fil6" points="3111.4,9782.09 3088.11,9837.91 3070.2,9837.91 3083.13,9782.09 "/>
   <path id="17" class="fil6" d="M3243.37 9812.69c-13,0 -24.94,-3.04 -35.83,-9.14 -10.88,-6.09 -19.5,-14.53 -25.87,-25.32 -6.37,-10.8 -9.56,-23.01 -9.56,-36.65 0,-13.51 3.19,-25.66 9.56,-36.45 6.37,-10.79 14.99,-19.24 25.87,-25.33 10.89,-6.09 22.83,-9.14 35.83,-9.14 13.14,0 25.11,3.05 35.93,9.14 10.81,6.09 19.37,14.54 25.68,25.33 6.3,10.79 9.46,22.94 9.46,36.45 0,13.64 -3.15,25.85 -9.46,36.65 -6.3,10.79 -14.89,19.23 -25.78,25.32 -10.89,6.09 -22.83,9.14 -35.83,9.14zm0 -24.83c8.36,0 15.72,-1.89 22.09,-5.66 6.37,-3.78 11.35,-9.17 14.93,-16.19 3.58,-7.02 5.38,-15.17 5.38,-24.43 0,-9.27 -1.8,-17.38 -5.38,-24.33 -3.58,-6.95 -8.56,-12.28 -14.93,-15.99 -6.37,-3.71 -13.74,-5.56 -22.09,-5.56 -8.36,0 -15.76,1.85 -22.19,5.56 -6.44,3.71 -11.45,9.04 -15.03,15.99 -3.58,6.95 -5.37,15.06 -5.37,24.33 0,9.27 1.79,17.41 5.37,24.43 3.58,7.02 8.59,12.41 15.03,16.19 6.44,3.77 13.83,5.66 22.19,5.66z"/>
   <path id="18" class="fil6" d="M3363 9717.14c3.58,-5.03 8.52,-9.24 14.83,-12.61 6.3,-3.38 13.5,-5.07 21.6,-5.07 9.42,0 17.95,2.32 25.58,6.95 7.63,4.63 13.67,11.22 18.11,19.76 4.45,8.54 6.67,18.44 6.67,29.7 0,11.26 -2.22,21.22 -6.67,29.89 -4.44,8.67 -10.48,15.39 -18.11,20.16 -7.63,4.77 -16.16,7.15 -25.58,7.15 -8.09,0 -15.23,-1.65 -21.4,-4.96 -6.17,-3.31 -11.18,-7.48 -15.03,-12.52l0 68.13 -27.87 0 0 -162.48 27.87 0 0 15.89zm58.32 38.74c0,-6.62 -1.36,-12.35 -4.08,-17.19 -2.72,-4.83 -6.31,-8.51 -10.75,-11.02 -4.45,-2.52 -9.26,-3.77 -14.43,-3.77 -5.04,0 -9.79,1.29 -14.23,3.87 -4.44,2.58 -8.03,6.32 -10.75,11.22 -2.72,4.9 -4.08,10.66 -4.08,17.28 0,6.62 1.35,12.38 4.08,17.28 2.72,4.9 6.3,8.64 10.75,11.22 4.44,2.58 9.19,3.87 14.23,3.87 5.18,0 9.98,-1.32 14.43,-3.97 4.44,-2.65 8.03,-6.42 10.75,-11.32 2.72,-4.9 4.08,-10.72 4.08,-17.48z"/>
   <path id="19" class="fil6" d="M3497.96 9717.14c3.58,-5.03 8.52,-9.24 14.82,-12.61 6.31,-3.38 13.51,-5.07 21.6,-5.07 9.42,0 17.94,2.32 25.58,6.95 7.63,4.63 13.67,11.22 18.11,19.76 4.45,8.54 6.67,18.44 6.67,29.7 0,11.26 -2.22,21.22 -6.67,29.89 -4.44,8.67 -10.48,15.39 -18.11,20.16 -7.63,4.77 -16.16,7.15 -25.58,7.15 -8.09,0 -15.23,-1.65 -21.4,-4.96 -6.17,-3.31 -11.18,-7.48 -15.03,-12.52l0 68.13 -27.87 0 0 -162.48 27.87 0 0 15.89zm58.32 38.74c0,-6.62 -1.36,-12.35 -4.08,-17.19 -2.72,-4.83 -6.3,-8.51 -10.74,-11.02 -4.45,-2.52 -9.26,-3.77 -14.43,-3.77 -5.04,0 -9.79,1.29 -14.24,3.87 -4.44,2.58 -8.03,6.32 -10.74,11.22 -2.72,4.9 -4.08,10.66 -4.08,17.28 0,6.62 1.35,12.38 4.08,17.28 2.72,4.9 6.3,8.64 10.74,11.22 4.45,2.58 9.19,3.87 14.24,3.87 5.18,0 9.98,-1.32 14.43,-3.97 4.44,-2.65 8.03,-6.42 10.74,-11.32 2.72,-4.9 4.08,-10.72 4.08,-17.48z"/>
   <path id="20" class="fil6" d="M3617.39 9812.69c-5.04,0 -9.19,-1.56 -12.44,-4.67 -3.25,-3.11 -4.87,-6.99 -4.87,-11.62 0,-4.63 1.63,-8.51 4.87,-11.62 3.25,-3.11 7.4,-4.67 12.44,-4.67 4.91,0 8.96,1.56 12.15,4.67 3.18,3.11 4.78,6.98 4.78,11.62 0,4.63 -1.59,8.51 -4.78,11.62 -3.19,3.11 -7.23,4.67 -12.15,4.67z"/>
   <path id="21" class="fil6" d="M3752.15 9812.69c-9.69,0 -18.41,-1.65 -26.17,-4.96 -7.76,-3.31 -13.9,-8.08 -18.41,-14.3 -4.51,-6.22 -6.83,-13.57 -6.97,-22.05l29.86 0c0.4,5.69 2.43,10.2 6.07,13.51 3.65,3.31 8.66,4.96 15.03,4.96 6.5,0 11.61,-1.56 15.33,-4.67 3.72,-3.11 5.57,-7.18 5.57,-12.21 0,-4.11 -1.26,-7.48 -3.78,-10.13 -2.52,-2.65 -5.67,-4.73 -9.45,-6.26 -3.78,-1.52 -8.99,-3.21 -15.63,-5.06 -9.02,-2.65 -16.35,-5.26 -21.99,-7.85 -5.64,-2.58 -10.48,-6.49 -14.53,-11.72 -4.05,-5.23 -6.07,-12.22 -6.07,-20.96 0,-8.21 2.06,-15.36 6.17,-21.45 4.11,-6.09 9.89,-10.76 17.31,-14 7.43,-3.24 15.93,-4.87 25.48,-4.87 14.33,0 25.98,3.48 34.93,10.43 8.96,6.95 13.9,16.65 14.83,29.1l-30.65 0c-0.26,-4.76 -2.29,-8.7 -6.07,-11.82 -3.78,-3.11 -8.79,-4.67 -15.03,-4.67 -5.44,0 -9.79,1.39 -13.04,4.17 -3.25,2.78 -4.88,6.82 -4.88,12.12 0,3.71 1.23,6.79 3.69,9.24 2.45,2.45 5.5,4.44 9.15,5.96 3.65,1.52 8.8,3.28 15.43,5.26 9.03,2.65 16.39,5.3 22.1,7.94 5.7,2.65 10.62,6.62 14.73,11.92 4.11,5.3 6.17,12.25 6.17,20.85 0,7.42 -1.92,14.3 -5.77,20.66 -3.85,6.35 -9.49,11.42 -16.92,15.19 -7.43,3.78 -16.26,5.66 -26.48,5.66z"/>
   <polygon id="22" class="fil6" points="3978.27,9701.25 3946.02,9811.3 3915.96,9811.3 3895.86,9734.43 3875.76,9811.3 3845.5,9811.3 3813.06,9701.25 3841.32,9701.25 3860.83,9785.07 3881.93,9701.25 3911.39,9701.25 3932.09,9784.88 3951.59,9701.25 "/>
   <path id="23" class="fil6" d="M3986.23 9755.88c0,-11.13 2.22,-20.99 6.67,-29.6 4.44,-8.61 10.48,-15.23 18.11,-19.86 7.63,-4.63 16.15,-6.95 25.58,-6.95 8.23,0 15.43,1.65 21.6,4.96 6.17,3.31 11.11,7.48 14.83,12.52l0 -15.69 28.07 0 0 110.04 -28.07 0 0 -16.09c-3.58,5.17 -8.53,9.44 -14.83,12.81 -6.31,3.37 -13.57,5.06 -21.8,5.06 -9.29,0 -17.75,-2.38 -25.38,-7.15 -7.63,-4.77 -13.67,-11.49 -18.11,-20.16 -4.44,-8.67 -6.67,-18.64 -6.67,-29.89zm86.79 0.4c0,-6.76 -1.33,-12.55 -3.98,-17.38 -2.65,-4.83 -6.24,-8.54 -10.75,-11.12 -4.52,-2.58 -9.35,-3.87 -14.53,-3.87 -5.18,0 -9.95,1.26 -14.33,3.77 -4.38,2.52 -7.93,6.19 -10.65,11.02 -2.72,4.83 -4.08,10.56 -4.08,17.19 0,6.62 1.35,12.41 4.08,17.38 2.72,4.97 6.3,8.78 10.74,11.42 4.45,2.65 9.19,3.97 14.24,3.97 5.18,0 10.02,-1.29 14.53,-3.87 4.51,-2.58 8.09,-6.29 10.75,-11.13 2.65,-4.83 3.98,-10.63 3.98,-17.38z"/>
   <path id="24" class="fil6" d="M4170.55 9813.08c-9.02,0 -17.12,-1.62 -24.28,-4.87 -7.17,-3.24 -12.84,-7.65 -17.02,-13.21 -4.18,-5.56 -6.47,-11.72 -6.87,-18.47l28.07 0c0.53,4.24 2.62,7.74 6.27,10.53 3.65,2.78 8.2,4.17 13.63,4.17 5.31,0 9.45,-1.06 12.44,-3.18 2.99,-2.12 4.48,-4.83 4.48,-8.15 0,-3.57 -1.82,-6.26 -5.47,-8.04 -3.65,-1.79 -9.46,-3.74 -17.42,-5.86 -8.22,-1.99 -14.96,-4.04 -20.2,-6.16 -5.24,-2.12 -9.76,-5.37 -13.54,-9.74 -3.78,-4.37 -5.67,-10.26 -5.67,-17.68 0,-6.09 1.76,-11.65 5.28,-16.69 3.52,-5.03 8.56,-9 15.13,-11.92 6.57,-2.91 14.3,-4.37 23.19,-4.37 13.14,0 23.62,3.28 31.44,9.83 7.83,6.56 12.15,15.39 12.94,26.52l-26.67 0c-0.4,-4.37 -2.22,-7.85 -5.47,-10.43 -3.25,-2.58 -7.6,-3.87 -13.04,-3.87 -5.04,0 -8.93,0.93 -11.65,2.78 -2.72,1.85 -4.08,4.43 -4.08,7.74 0,3.71 1.86,6.52 5.57,8.44 3.72,1.92 9.49,3.87 17.31,5.86 7.96,1.98 14.53,4.04 19.7,6.16 5.18,2.12 9.66,5.4 13.44,9.83 3.78,4.44 5.74,10.3 5.87,17.58 0,6.36 -1.76,12.05 -5.28,17.08 -3.52,5.04 -8.56,8.97 -15.13,11.82 -6.57,2.85 -14.24,4.27 -22.99,4.27z"/>
   <path id="25" class="fil6" d="M4269.28 9724.09l0 53.24c0,3.7 0.9,6.39 2.69,8.04 1.79,1.65 4.81,2.48 9.06,2.48l12.94 0 0 23.44 -17.52 0c-23.49,0 -35.23,-11.39 -35.23,-34.17l0 -53.04 -13.14 0 0 -22.84 13.14 0 0 -27.21 28.07 0 0 27.21 24.68 0 0 22.84 -24.68 0z"/>
   <path id="26" class="fil6" d="M4328.2 9688.14c-4.91,0 -8.98,-1.56 -12.24,-4.67 -3.26,-3.11 -4.88,-6.98 -4.88,-11.62 0,-4.63 1.63,-8.51 4.88,-11.62 3.25,-3.11 7.33,-4.67 12.24,-4.67 4.91,0 8.99,1.56 12.24,4.67 3.25,3.11 4.88,6.99 4.88,11.62 0,4.63 -1.63,8.51 -4.88,11.62 -3.25,3.11 -7.33,4.67 -12.24,4.67zm13.74 13.11l0 110.04 -27.87 0 0 -110.04 27.87 0z"/>
   <polygon id="27" class="fil6" points="4434.69,9811.3 4397.27,9764.42 4397.27,9811.3 4369.4,9811.3 4369.4,9664.31 4397.27,9664.31 4397.27,9747.93 4434.3,9701.25 4470.52,9701.25 4421.95,9756.47 4470.92,9811.3 "/>
   <path id="28" class="fil6" d="M4634.34 9715.56c0,7.41 -1.76,14.37 -5.27,20.85 -3.52,6.49 -9.02,11.72 -16.52,15.69 -7.5,3.97 -16.95,5.96 -28.36,5.96l-23.29 0 0 53.23 -27.87 0 0 -138.65 51.16 0c10.74,0 19.9,1.85 27.46,5.56 7.56,3.71 13.24,8.81 17.02,15.3 3.78,6.49 5.67,13.84 5.67,22.05zm-51.35 20.06c7.7,0 13.4,-1.75 17.12,-5.26 3.72,-3.51 5.57,-8.44 5.57,-14.8 0,-13.51 -7.57,-20.26 -22.69,-20.26l-22.09 0 0 40.32 22.09 0z"/>
   <path id="29" class="fil6" d="M4646.88 9755.88c0,-11.13 2.22,-20.99 6.67,-29.6 4.44,-8.61 10.48,-15.23 18.11,-19.86 7.63,-4.63 16.16,-6.95 25.58,-6.95 8.22,0 15.43,1.65 21.59,4.96 6.17,3.31 11.11,7.48 14.83,12.52l0 -15.69 28.07 0 0 110.04 -28.07 0 0 -16.09c-3.58,5.17 -8.52,9.44 -14.83,12.81 -6.3,3.37 -13.57,5.06 -21.8,5.06 -9.29,0 -17.75,-2.38 -25.38,-7.15 -7.63,-4.77 -13.67,-11.49 -18.11,-20.16 -4.45,-8.67 -6.67,-18.64 -6.67,-29.89zm86.78 0.4c0,-6.76 -1.32,-12.55 -3.98,-17.38 -2.65,-4.83 -6.23,-8.54 -10.75,-11.12 -4.51,-2.58 -9.35,-3.87 -14.53,-3.87 -5.18,0 -9.96,1.26 -14.33,3.77 -4.38,2.52 -7.93,6.19 -10.65,11.02 -2.72,4.83 -4.08,10.56 -4.08,17.19 0,6.62 1.36,12.41 4.08,17.38 2.72,4.97 6.31,8.78 10.75,11.42 4.45,2.65 9.19,3.97 14.24,3.97 5.18,0 10.02,-1.29 14.53,-3.87 4.52,-2.58 8.1,-6.29 10.75,-11.13 2.66,-4.83 3.98,-10.63 3.98,-17.38z"/>
   <path id="30" class="fil6" d="M4816.87 9718.33c3.58,-5.83 8.26,-10.39 14.03,-13.7 5.77,-3.31 12.37,-4.97 19.81,-4.97l0 29.2 -7.37 0c-8.76,0 -15.36,2.05 -19.81,6.16 -4.44,4.11 -6.67,11.26 -6.67,21.45l0 54.82 -27.87 0 0 -110.04 27.87 0 0 17.08z"/>
   <path id="31" class="fil6" d="M4901.87 9724.09l0 53.24c0,3.7 0.89,6.39 2.69,8.04 1.79,1.65 4.81,2.48 9.06,2.48l12.94 0 0 23.44 -17.52 0c-23.49,0 -35.23,-11.39 -35.23,-34.17l0 -53.04 -13.14 0 0 -22.84 13.14 0 0 -27.21 28.07 0 0 27.21 24.68 0 0 22.84 -24.68 0z"/>
   <polygon id="32" class="fil6" points="5052.15,9701.25 4983.88,9863.34 4954.22,9863.34 4978.1,9808.52 4933.91,9701.25 4965.17,9701.25 4993.63,9778.12 5022.49,9701.25 "/>
   <path id="33" class="fil6" d="M5215.77 9715.56c0,7.41 -1.76,14.37 -5.28,20.85 -3.52,6.49 -9.02,11.72 -16.52,15.69 -7.5,3.97 -16.95,5.96 -28.36,5.96l-23.29 0 0 53.23 -27.87 0 0 -138.65 51.16 0c10.75,0 19.91,1.85 27.47,5.56 7.56,3.71 13.24,8.81 17.02,15.3 3.78,6.49 5.67,13.84 5.67,22.05zm-51.35 20.06c7.7,0 13.4,-1.75 17.12,-5.26 3.72,-3.51 5.57,-8.44 5.57,-14.8 0,-13.51 -7.57,-20.26 -22.69,-20.26l-22.09 0 0 40.32 22.09 0z"/>
   <polygon id="34" class="fil6" points="5263.34,9664.31 5263.34,9811.3 5235.47,9811.3 5235.47,9664.31 "/>
   <path id="35" class="fil6" d="M5339.78 9813.08c-10.62,0 -20.17,-2.35 -28.67,-7.05 -8.49,-4.7 -15.16,-11.35 -20,-19.96 -4.85,-8.61 -7.27,-18.54 -7.27,-29.79 0,-11.26 2.49,-21.19 7.46,-29.8 4.98,-8.61 11.78,-15.26 20.41,-19.96 8.63,-4.7 18.25,-7.05 28.86,-7.05 10.61,0 20.24,2.35 28.86,7.05 8.62,4.7 15.43,11.35 20.41,19.96 4.97,8.61 7.46,18.54 7.46,29.8 0,11.26 -2.56,21.19 -7.67,29.79 -5.11,8.61 -12.01,15.26 -20.7,19.96 -8.69,4.7 -18.41,7.05 -29.16,7.05zm0 -24.23c5.04,0 9.78,-1.22 14.23,-3.68 4.44,-2.45 8,-6.12 10.65,-11.02 2.66,-4.9 3.98,-10.86 3.98,-17.87 0,-10.46 -2.75,-18.51 -8.26,-24.14 -5.51,-5.63 -12.24,-8.44 -20.2,-8.44 -7.96,0 -14.63,2.81 -20,8.44 -5.37,5.63 -8.06,13.67 -8.06,24.14 0,10.46 2.62,18.5 7.86,24.13 5.24,5.63 11.85,8.44 19.81,8.44z"/>
   <path id="36" class="fil6" d="M5450.25 9724.09l0 53.24c0,3.7 0.89,6.39 2.69,8.04 1.79,1.65 4.81,2.48 9.06,2.48l12.94 0 0 23.44 -17.52 0c-23.49,0 -35.23,-11.39 -35.23,-34.17l0 -53.04 -13.14 0 0 -22.84 13.14 0 0 -27.21 28.07 0 0 27.21 24.68 0 0 22.84 -24.68 0z"/>
   <polygon id="37" class="fil6" points="5525.5,9782.09 5502.2,9837.91 5484.29,9837.91 5497.23,9782.09 "/>
   <path id="38" class="fil6" d="M5598.55 9779.91c12.74,-10.59 22.89,-19.43 30.45,-26.52 7.56,-7.09 13.87,-14.47 18.91,-22.15 5.04,-7.68 7.56,-15.23 7.56,-22.64 0,-6.76 -1.59,-12.05 -4.78,-15.89 -3.19,-3.84 -8.09,-5.76 -14.73,-5.76 -6.64,0 -11.75,2.22 -15.33,6.66 -3.58,4.43 -5.44,10.49 -5.57,18.17l-27.07 0c0.53,-15.89 5.28,-27.94 14.23,-36.15 8.96,-8.21 20.33,-12.31 34.14,-12.31 15.13,0 26.74,4 34.83,12.02 8.1,8.01 12.15,18.57 12.15,31.68 0,10.33 -2.79,20.2 -8.36,29.6 -5.57,9.4 -11.94,17.58 -19.11,24.53 -7.17,6.95 -16.52,15.33 -28.06,25.13l58.72 0 0 23.04 -98.33 0 0 -20.66 10.35 -8.74z"/>
   <polygon id="39" class="fil6" points="5796.4,9687.55 5743.46,9811.3 5715.19,9811.3 5768.54,9690.72 5700.46,9690.72 5700.46,9666.89 5796.4,9666.89 "/>
   <polygon id="40" class="fil6" points="5982.52,9811.3 5954.65,9811.3 5891.55,9716.15 5891.55,9811.3 5863.68,9811.3 5863.68,9672.45 5891.55,9672.45 5954.65,9767.8 5954.65,9672.45 5982.52,9672.45 "/>
   <path id="41" class="fil6" d="M6002.82 9755.88c0,-11.13 2.22,-20.99 6.67,-29.6 4.45,-8.61 10.48,-15.23 18.11,-19.86 7.63,-4.63 16.16,-6.95 25.58,-6.95 8.22,0 15.43,1.65 21.59,4.96 6.17,3.31 11.11,7.48 14.83,12.52l0 -15.69 28.07 0 0 110.04 -28.07 0 0 -16.09c-3.58,5.17 -8.52,9.44 -14.83,12.81 -6.3,3.37 -13.57,5.06 -21.8,5.06 -9.29,0 -17.75,-2.38 -25.38,-7.15 -7.63,-4.77 -13.67,-11.49 -18.11,-20.16 -4.44,-8.67 -6.67,-18.64 -6.67,-29.89zm86.78 0.4c0,-6.76 -1.33,-12.55 -3.98,-17.38 -2.65,-4.83 -6.23,-8.54 -10.75,-11.12 -4.51,-2.58 -9.35,-3.87 -14.53,-3.87 -5.18,0 -9.96,1.26 -14.33,3.77 -4.38,2.52 -7.93,6.19 -10.65,11.02 -2.72,4.83 -4.08,10.56 -4.08,17.19 0,6.62 1.36,12.41 4.08,17.38 2.72,4.97 6.31,8.78 10.75,11.42 4.44,2.65 9.19,3.97 14.24,3.97 5.17,0 10.02,-1.29 14.53,-3.87 4.52,-2.58 8.1,-6.29 10.75,-11.13 2.65,-4.83 3.98,-10.63 3.98,-17.38z"/>
   <path id="42" class="fil6" d="M6177.39 9724.09l0 53.24c0,3.7 0.89,6.39 2.69,8.04 1.79,1.65 4.81,2.48 9.06,2.48l12.94 0 0 23.44 -17.52 0c-23.49,0 -35.23,-11.39 -35.23,-34.17l0 -53.04 -13.14 0 0 -22.84 13.14 0 0 -27.21 28.07 0 0 27.21 24.68 0 0 22.84 -24.68 0z"/>
   <path id="43" class="fil6" d="M6236.3 9688.14c-4.91,0 -8.99,-1.56 -12.24,-4.67 -3.26,-3.11 -4.88,-6.98 -4.88,-11.62 0,-4.63 1.63,-8.51 4.88,-11.62 3.25,-3.11 7.33,-4.67 12.24,-4.67 4.91,0 8.99,1.56 12.24,4.67 3.25,3.11 4.87,6.99 4.87,11.62 0,4.63 -1.63,8.51 -4.87,11.62 -3.25,3.11 -7.33,4.67 -12.24,4.67zm13.74 13.11l0 110.04 -27.87 0 0 -110.04 27.87 0z"/>
   <path id="44" class="fil6" d="M6326.48 9813.08c-10.61,0 -20.17,-2.35 -28.67,-7.05 -8.49,-4.7 -15.16,-11.35 -20,-19.96 -4.84,-8.61 -7.27,-18.54 -7.27,-29.79 0,-11.26 2.49,-21.19 7.46,-29.8 4.98,-8.61 11.78,-15.26 20.41,-19.96 8.63,-4.7 18.25,-7.05 28.87,-7.05 10.61,0 20.23,2.35 28.86,7.05 8.63,4.7 15.43,11.35 20.41,19.96 4.97,8.61 7.46,18.54 7.46,29.8 0,11.26 -2.56,21.19 -7.67,29.79 -5.11,8.61 -12.01,15.26 -20.7,19.96 -8.69,4.7 -18.41,7.05 -29.16,7.05zm0 -24.23c5.04,0 9.78,-1.22 14.23,-3.68 4.44,-2.45 8,-6.12 10.65,-11.02 2.66,-4.9 3.98,-10.86 3.98,-17.87 0,-10.46 -2.76,-18.51 -8.26,-24.14 -5.51,-5.63 -12.24,-8.44 -20.2,-8.44 -7.96,0 -14.63,2.81 -20,8.44 -5.37,5.63 -8.06,13.67 -8.06,24.14 0,10.46 2.62,18.5 7.87,24.13 5.24,5.63 11.84,8.44 19.8,8.44z"/>
   <path id="45" class="fil6" d="M6465.61 9699.66c13.14,0 23.76,4.14 31.85,12.42 8.1,8.28 12.14,19.83 12.14,34.66l0 64.56 -27.87 0 0 -60.78c0,-8.74 -2.19,-15.46 -6.57,-20.16 -4.38,-4.7 -10.35,-7.05 -17.91,-7.05 -7.7,0 -13.77,2.35 -18.21,7.05 -4.44,4.7 -6.67,11.42 -6.67,20.16l0 60.78 -27.87 0 0 -110.04 27.87 0 0 13.7c3.71,-4.77 8.46,-8.51 14.23,-11.22 5.77,-2.72 12.11,-4.07 19.01,-4.07z"/>
   <path id="46" class="fil6" d="M6528.91 9755.88c0,-11.13 2.22,-20.99 6.67,-29.6 4.45,-8.61 10.48,-15.23 18.11,-19.86 7.63,-4.63 16.16,-6.95 25.58,-6.95 8.22,0 15.43,1.65 21.59,4.96 6.17,3.31 11.11,7.48 14.83,12.52l0 -15.69 28.07 0 0 110.04 -28.07 0 0 -16.09c-3.58,5.17 -8.52,9.44 -14.83,12.81 -6.3,3.37 -13.57,5.06 -21.8,5.06 -9.29,0 -17.75,-2.38 -25.38,-7.15 -7.63,-4.77 -13.67,-11.49 -18.11,-20.16 -4.44,-8.67 -6.67,-18.64 -6.67,-29.89zm86.78 0.4c0,-6.76 -1.33,-12.55 -3.98,-17.38 -2.65,-4.83 -6.23,-8.54 -10.75,-11.12 -4.51,-2.58 -9.35,-3.87 -14.53,-3.87 -5.18,0 -9.96,1.26 -14.33,3.77 -4.38,2.52 -7.93,6.19 -10.65,11.02 -2.72,4.83 -4.08,10.56 -4.08,17.19 0,6.62 1.36,12.41 4.08,17.38 2.72,4.97 6.31,8.78 10.75,11.42 4.44,2.65 9.19,3.97 14.24,3.97 5.17,0 10.02,-1.29 14.53,-3.87 4.52,-2.58 8.1,-6.29 10.75,-11.13 2.65,-4.83 3.98,-10.63 3.98,-17.38z"/>
   <polygon id="47" class="fil6" points="6698.9,9664.31 6698.9,9811.3 6671.03,9811.3 6671.03,9664.31 "/>
   <polygon id="48" class="fil6" points="6889,9672.65 6889,9811.3 6861.13,9811.3 6861.13,9752.3 6801.61,9752.3 6801.61,9811.3 6773.74,9811.3 6773.74,9672.65 6801.61,9672.65 6801.61,9729.66 6861.13,9729.66 6861.13,9672.65 "/>
   <path id="49" class="fil6" d="M6930.59 9688.14c-4.91,0 -8.99,-1.56 -12.24,-4.67 -3.25,-3.11 -4.88,-6.98 -4.88,-11.62 0,-4.63 1.63,-8.51 4.88,-11.62 3.25,-3.11 7.33,-4.67 12.24,-4.67 4.91,0 8.99,1.56 12.24,4.67 3.25,3.11 4.88,6.99 4.88,11.62 0,4.63 -1.63,8.51 -4.88,11.62 -3.25,3.11 -7.33,4.67 -12.24,4.67zm13.74 13.11l0 110.04 -27.87 0 0 -110.04 27.87 0z"/>
   <path id="50" class="fil6" d="M7015 9699.46c8.22,0 15.46,1.62 21.69,4.87 6.24,3.24 11.15,7.45 14.73,12.61l0 -15.69 28.07 0 0 110.84c0,10.2 -2.06,19.3 -6.17,27.31 -4.11,8.01 -10.28,14.37 -18.51,19.07 -8.22,4.7 -18.18,7.05 -29.86,7.05 -15.66,0 -28.5,-3.64 -38.52,-10.93 -10.02,-7.28 -15.69,-17.22 -17.02,-29.8l27.67 0c1.46,5.03 4.61,9.04 9.45,12.02 4.85,2.98 10.72,4.47 17.62,4.47 8.09,0 14.66,-2.41 19.7,-7.25 5.04,-4.83 7.56,-12.15 7.56,-21.95l0 -17.08c-3.58,5.17 -8.52,9.47 -14.83,12.91 -6.3,3.44 -13.5,5.17 -21.59,5.17 -9.29,0 -17.79,-2.38 -25.48,-7.15 -7.7,-4.77 -13.77,-11.49 -18.22,-20.16 -4.44,-8.67 -6.67,-18.64 -6.67,-29.89 0,-11.13 2.22,-20.99 6.67,-29.6 4.45,-8.61 10.48,-15.23 18.11,-19.86 7.63,-4.63 16.16,-6.95 25.58,-6.95zm36.42 56.81c0,-6.76 -1.33,-12.55 -3.98,-17.38 -2.65,-4.83 -6.23,-8.54 -10.75,-11.12 -4.51,-2.58 -9.35,-3.87 -14.53,-3.87 -5.18,0 -9.96,1.26 -14.33,3.77 -4.38,2.52 -7.93,6.19 -10.65,11.02 -2.72,4.83 -4.08,10.56 -4.08,17.19 0,6.62 1.36,12.41 4.08,17.38 2.72,4.97 6.31,8.78 10.75,11.42 4.44,2.65 9.19,3.97 14.24,3.97 5.17,0 10.02,-1.29 14.53,-3.87 4.52,-2.58 8.1,-6.29 10.75,-11.13 2.65,-4.83 3.98,-10.63 3.98,-17.38z"/>
   <path id="51" class="fil6" d="M7168.86 9699.66c8.36,0 15.79,1.82 22.29,5.46 6.5,3.64 11.58,9 15.23,16.09 3.65,7.08 5.47,15.59 5.47,25.52l0 64.56 -27.86 0 0 -60.78c0,-8.74 -2.19,-15.46 -6.57,-20.16 -4.38,-4.7 -10.35,-7.05 -17.91,-7.05 -7.7,0 -13.77,2.35 -18.21,7.05 -4.44,4.7 -6.67,11.42 -6.67,20.16l0 60.78 -27.87 0 0 -146.99 27.87 0 0 50.65c3.58,-4.77 8.36,-8.51 14.33,-11.22 5.97,-2.72 12.61,-4.07 19.91,-4.07z"/>
   <polygon id="52" class="fil6" points="7391.2,9701.25 7358.95,9811.3 7328.89,9811.3 7308.79,9734.43 7288.69,9811.3 7258.43,9811.3 7225.98,9701.25 7254.25,9701.25 7273.76,9785.07 7294.86,9701.25 7324.31,9701.25 7345.02,9784.88 7364.52,9701.25 "/>
   <path id="53" class="fil6" d="M7399.16 9755.88c0,-11.13 2.22,-20.99 6.67,-29.6 4.44,-8.61 10.48,-15.23 18.11,-19.86 7.63,-4.63 16.16,-6.95 25.58,-6.95 8.22,0 15.43,1.65 21.59,4.96 6.17,3.31 11.11,7.48 14.83,12.52l0 -15.69 28.07 0 0 110.04 -28.07 0 0 -16.09c-3.58,5.17 -8.52,9.44 -14.83,12.81 -6.3,3.37 -13.57,5.06 -21.8,5.06 -9.29,0 -17.75,-2.38 -25.38,-7.15 -7.63,-4.77 -13.67,-11.49 -18.11,-20.16 -4.45,-8.67 -6.67,-18.64 -6.67,-29.89zm86.78 0.4c0,-6.76 -1.32,-12.55 -3.98,-17.38 -2.65,-4.83 -6.23,-8.54 -10.74,-11.12 -4.52,-2.58 -9.35,-3.87 -14.53,-3.87 -5.18,0 -9.95,1.26 -14.33,3.77 -4.38,2.52 -7.93,6.19 -10.65,11.02 -2.72,4.83 -4.08,10.56 -4.08,17.19 0,6.62 1.36,12.41 4.08,17.38 2.72,4.97 6.3,8.78 10.74,11.42 4.45,2.65 9.19,3.97 14.24,3.97 5.18,0 10.02,-1.29 14.53,-3.87 4.51,-2.58 8.09,-6.29 10.74,-11.13 2.66,-4.83 3.98,-10.63 3.98,-17.38z"/>
   <polygon id="54" class="fil6" points="7646.78,9701.25 7578.5,9863.34 7548.84,9863.34 7572.73,9808.52 7528.54,9701.25 7559.79,9701.25 7588.26,9778.12 7617.12,9701.25 "/>
   <polygon id="55" class="fil6" points="7692.16,9782.09 7668.87,9837.91 7650.96,9837.91 7663.89,9782.09 "/>
   <path id="56" class="fil6" d="M7856.38 9714.36c-3.19,-5.83 -7.56,-10.26 -13.13,-13.31 -5.57,-3.05 -12.08,-4.57 -19.51,-4.57 -8.22,0 -15.52,1.85 -21.89,5.56 -6.37,3.71 -11.35,9 -14.93,15.89 -3.58,6.89 -5.37,14.83 -5.37,23.83 0,9.27 1.83,17.35 5.48,24.24 3.65,6.89 8.72,12.18 15.22,15.89 6.5,3.71 14.07,5.56 22.69,5.56 10.61,0 19.31,-2.81 26.07,-8.44 6.77,-5.63 11.21,-13.47 13.34,-23.54l-47.78 0 0 -21.26 75.24 0 0 24.24c-1.86,9.67 -5.84,18.6 -11.94,26.81 -6.1,8.21 -13.96,14.8 -23.59,19.76 -9.62,4.96 -20.4,7.45 -32.35,7.45 -13.41,0 -25.51,-3.01 -36.33,-9.04 -10.81,-6.02 -19.31,-14.4 -25.48,-25.13 -6.17,-10.73 -9.26,-22.91 -9.26,-36.55 0,-13.64 3.09,-25.85 9.26,-36.65 6.17,-10.79 14.67,-19.2 25.48,-25.23 10.81,-6.02 22.86,-9.04 36.13,-9.04 15.66,0 29.26,3.81 40.81,11.42 11.54,7.61 19.5,18.31 23.89,32.08l-32.05 0z"/>
   <path id="57" class="fil6" d="M7961.48 9813.08c-10.62,0 -20.17,-2.35 -28.67,-7.05 -8.49,-4.7 -15.16,-11.35 -20,-19.96 -4.85,-8.61 -7.27,-18.54 -7.27,-29.79 0,-11.26 2.49,-21.19 7.46,-29.8 4.98,-8.61 11.78,-15.26 20.41,-19.96 8.62,-4.7 18.24,-7.05 28.86,-7.05 10.61,0 20.24,2.35 28.86,7.05 8.63,4.7 15.43,11.35 20.41,19.96 4.98,8.61 7.46,18.54 7.46,29.8 0,11.26 -2.56,21.19 -7.67,29.79 -5.11,8.61 -12.01,15.26 -20.7,19.96 -8.69,4.7 -18.41,7.05 -29.16,7.05zm0 -24.23c5.04,0 9.78,-1.22 14.23,-3.68 4.44,-2.45 8,-6.12 10.65,-11.02 2.65,-4.9 3.98,-10.86 3.98,-17.87 0,-10.46 -2.76,-18.51 -8.26,-24.14 -5.5,-5.63 -12.24,-8.44 -20.2,-8.44 -7.97,0 -14.63,2.81 -20.01,8.44 -5.37,5.63 -8.06,13.67 -8.06,24.14 0,10.46 2.62,18.5 7.86,24.13 5.24,5.63 11.84,8.44 19.81,8.44z"/>
   <path id="58" class="fil6" d="M8100.61 9699.66c13.14,0 23.75,4.14 31.85,12.42 8.09,8.28 12.14,19.83 12.14,34.66l0 64.56 -27.87 0 0 -60.78c0,-8.74 -2.19,-15.46 -6.57,-20.16 -4.38,-4.7 -10.35,-7.05 -17.92,-7.05 -7.7,0 -13.76,2.35 -18.21,7.05 -4.44,4.7 -6.67,11.42 -6.67,20.16l0 60.78 -27.87 0 0 -110.04 27.87 0 0 13.7c3.71,-4.77 8.46,-8.51 14.23,-11.22 5.78,-2.72 12.11,-4.07 19.01,-4.07z"/>
   <path id="59" class="fil6" d="M8163.91 9755.88c0,-11.13 2.22,-20.99 6.67,-29.6 4.44,-8.61 10.52,-15.23 18.22,-19.86 7.69,-4.63 16.25,-6.95 25.67,-6.95 7.17,0 14,1.56 20.5,4.67 6.5,3.11 11.68,7.25 15.52,12.41l0 -52.24 28.26 0 0 146.99 -28.26 0 0 -16.29c-3.45,5.43 -8.29,9.8 -14.53,13.11 -6.24,3.31 -13.47,4.96 -21.7,4.96 -9.29,0 -17.78,-2.38 -25.48,-7.15 -7.7,-4.77 -13.77,-11.49 -18.22,-20.16 -4.45,-8.67 -6.67,-18.64 -6.67,-29.89zm86.78 0.4c0,-6.76 -1.32,-12.55 -3.98,-17.38 -2.65,-4.83 -6.23,-8.54 -10.74,-11.12 -4.52,-2.58 -9.35,-3.87 -14.53,-3.87 -5.18,0 -9.95,1.26 -14.33,3.77 -4.38,2.52 -7.93,6.19 -10.65,11.02 -2.72,4.83 -4.08,10.56 -4.08,17.19 0,6.62 1.36,12.41 4.08,17.38 2.72,4.97 6.3,8.78 10.74,11.42 4.45,2.65 9.19,3.97 14.24,3.97 5.18,0 10.02,-1.29 14.53,-3.87 4.51,-2.58 8.09,-6.29 10.74,-11.13 2.66,-4.83 3.98,-10.63 3.98,-17.38z"/>
   <path id="60" class="fil6" d="M8298.87 9755.88c0,-11.13 2.22,-20.99 6.67,-29.6 4.44,-8.61 10.48,-15.23 18.11,-19.86 7.63,-4.63 16.16,-6.95 25.58,-6.95 8.22,0 15.43,1.65 21.59,4.96 6.17,3.31 11.11,7.48 14.83,12.52l0 -15.69 28.07 0 0 110.04 -28.07 0 0 -16.09c-3.58,5.17 -8.52,9.44 -14.83,12.81 -6.3,3.37 -13.57,5.06 -21.8,5.06 -9.29,0 -17.75,-2.38 -25.38,-7.15 -7.63,-4.77 -13.67,-11.49 -18.11,-20.16 -4.45,-8.67 -6.67,-18.64 -6.67,-29.89zm86.78 0.4c0,-6.76 -1.32,-12.55 -3.98,-17.38 -2.65,-4.83 -6.23,-8.54 -10.75,-11.12 -4.51,-2.58 -9.35,-3.87 -14.53,-3.87 -5.18,0 -9.96,1.26 -14.33,3.77 -4.38,2.52 -7.93,6.19 -10.65,11.02 -2.72,4.83 -4.08,10.56 -4.08,17.19 0,6.62 1.36,12.41 4.08,17.38 2.72,4.97 6.31,8.78 10.75,11.42 4.45,2.65 9.19,3.97 14.24,3.97 5.17,0 10.02,-1.29 14.53,-3.87 4.52,-2.58 8.1,-6.29 10.75,-11.13 2.66,-4.83 3.98,-10.63 3.98,-17.38z"/>
   <polygon id="61" class="fil6" points="8468.86,9664.31 8468.86,9811.3 8440.99,9811.3 8440.99,9664.31 "/>
   <polygon id="62" class="fil6" points="8581.12,9728.67 8581.12,9752.1 8496.72,9752.1 8496.72,9728.67 "/>
   <path id="63" class="fil6" d="M8609.59 9704.63c0.66,-13.24 5.34,-23.47 14.03,-30.69 8.69,-7.22 20.14,-10.83 34.33,-10.83 9.69,0 17.98,1.69 24.89,5.07 6.9,3.37 12.11,7.94 15.62,13.7 3.52,5.76 5.28,12.28 5.28,19.56 0,8.35 -2.16,15.4 -6.47,21.16 -4.31,5.76 -9.45,9.63 -15.43,11.62l0 0.8c7.7,2.38 13.7,6.62 18.02,12.71 4.31,6.09 6.47,13.91 6.47,23.44 0,7.95 -1.82,15.03 -5.47,21.26 -3.65,6.22 -9.03,11.09 -16.12,14.6 -7.1,3.51 -15.63,5.26 -25.58,5.26 -15,0 -27.21,-3.77 -36.63,-11.32 -9.42,-7.55 -14.39,-18.67 -14.93,-33.37l27.07 0c0.26,6.49 2.49,11.69 6.67,15.59 4.19,3.91 9.92,5.86 17.22,5.86 6.77,0 11.98,-1.89 15.63,-5.66 3.65,-3.77 5.47,-8.64 5.47,-14.6 0,-7.94 -2.52,-13.64 -7.56,-17.08 -5.04,-3.44 -12.87,-5.17 -23.49,-5.17l-5.77 0 0 -22.84 5.77 0c18.84,0 28.26,-6.29 28.26,-18.87 0,-5.69 -1.69,-10.13 -5.07,-13.31 -3.38,-3.18 -8.26,-4.77 -14.63,-4.77 -6.24,0 -11.05,1.69 -14.43,5.07 -3.38,3.37 -5.34,7.65 -5.87,12.81l-27.27 0z"/>
   <path id="64" class="fil6" d="M8803.66 9702.64c-1.33,-5.56 -3.61,-9.73 -6.87,-12.51 -3.25,-2.78 -7.93,-4.17 -14.03,-4.17 -9.16,0 -15.89,3.68 -20.2,11.02 -4.31,7.35 -6.54,19.3 -6.67,35.85 3.19,-5.3 7.83,-9.43 13.93,-12.41 6.1,-2.98 12.74,-4.47 19.91,-4.47 8.63,0 16.26,1.85 22.89,5.56 6.63,3.71 11.81,9.11 15.52,16.19 3.72,7.09 5.57,15.59 5.57,25.52 0,9.4 -1.89,17.78 -5.67,25.13 -3.78,7.35 -9.32,13.07 -16.62,17.18 -7.3,4.11 -15.99,6.16 -26.07,6.16 -13.8,0 -24.65,-3.05 -32.54,-9.14 -7.9,-6.09 -13.41,-14.6 -16.52,-25.52 -3.12,-10.93 -4.68,-24.4 -4.68,-40.42 0,-24.24 4.19,-42.54 12.54,-54.93 8.36,-12.38 21.57,-18.57 39.61,-18.57 13.94,0 24.75,3.78 32.44,11.32 7.7,7.55 12.14,16.95 13.34,28.2l-25.88 0zm-20.3 36.15c-7.04,0 -12.94,2.05 -17.71,6.16 -4.78,4.1 -7.17,10.06 -7.17,17.87 0,7.81 2.22,13.97 6.67,18.48 4.44,4.5 10.72,6.75 18.81,6.75 7.17,0 12.84,-2.19 17.02,-6.56 4.19,-4.37 6.27,-10.26 6.27,-17.68 0,-7.68 -2.02,-13.77 -6.07,-18.28 -4.05,-4.5 -9.98,-6.75 -17.81,-6.75z"/>
   <path id="65" class="fil6" d="M8855.81 9737.01c0,-22.91 4.15,-40.85 12.44,-53.83 8.3,-12.98 22.06,-19.47 41.3,-19.47 19.24,0 33.01,6.49 41.3,19.47 8.3,12.98 12.44,30.92 12.44,53.83 0,23.04 -4.15,41.11 -12.44,54.22 -8.29,13.11 -22.06,19.67 -41.3,19.67 -19.24,0 -33,-6.56 -41.3,-19.67 -8.29,-13.11 -12.44,-31.19 -12.44,-54.22zm80.02 0c0,-9.8 -0.63,-18.04 -1.89,-24.73 -1.26,-6.69 -3.78,-12.15 -7.56,-16.39 -3.78,-4.24 -9.39,-6.36 -16.82,-6.36 -7.43,0 -13.04,2.12 -16.82,6.36 -3.78,4.24 -6.3,9.7 -7.56,16.39 -1.26,6.69 -1.89,14.93 -1.89,24.73 0,10.06 0.6,18.5 1.79,25.32 1.19,6.82 3.71,12.31 7.56,16.49 3.85,4.17 9.49,6.26 16.92,6.26 7.43,0 13.07,-2.09 16.92,-6.26 3.85,-4.17 6.37,-9.67 7.56,-16.49 1.2,-6.82 1.79,-15.26 1.79,-25.32z"/>
   <path id="66" class="fil6" d="M8984.8 9704.63c0.67,-13.24 5.34,-23.47 14.04,-30.69 8.69,-7.22 20.13,-10.83 34.33,-10.83 9.69,0 17.98,1.69 24.88,5.07 6.9,3.37 12.11,7.94 15.63,13.7 3.52,5.76 5.27,12.28 5.27,19.56 0,8.35 -2.15,15.4 -6.47,21.16 -4.31,5.76 -9.45,9.63 -15.43,11.62l0 0.8c7.7,2.38 13.7,6.62 18.01,12.71 4.31,6.09 6.47,13.91 6.47,23.44 0,7.95 -1.82,15.03 -5.47,21.26 -3.65,6.22 -9.03,11.09 -16.13,14.6 -7.1,3.51 -15.63,5.26 -25.57,5.26 -15,0 -27.21,-3.77 -36.63,-11.32 -9.42,-7.55 -14.4,-18.67 -14.93,-33.37l27.07 0c0.26,6.49 2.49,11.69 6.67,15.59 4.18,3.91 9.92,5.86 17.22,5.86 6.77,0 11.98,-1.89 15.63,-5.66 3.65,-3.77 5.47,-8.64 5.47,-14.6 0,-7.94 -2.52,-13.64 -7.56,-17.08 -5.04,-3.44 -12.87,-5.17 -23.49,-5.17l-5.77 0 0 -22.84 5.77 0c18.84,0 28.26,-6.29 28.26,-18.87 0,-5.69 -1.69,-10.13 -5.08,-13.31 -3.38,-3.18 -8.26,-4.77 -14.63,-4.77 -6.24,0 -11.05,1.69 -14.43,5.07 -3.38,3.37 -5.34,7.65 -5.87,12.81l-27.27 0z"/>
   <polygon id="67" class="fil6" points="9100.24,9692.11 9100.24,9666.49 9148.21,9666.49 9148.21,9811.3 9119.55,9811.3 9119.55,9692.11 "/>
   <polygon id="68" class="fil6" points="9172.3,9692.11 9172.3,9666.49 9220.27,9666.49 9220.27,9811.3 9191.61,9811.3 9191.61,9692.11 "/>
   <path id="69" class="fil6" d="M9263.26 9812.69c-5.04,0 -9.19,-1.56 -12.44,-4.67 -3.25,-3.11 -4.88,-6.99 -4.88,-11.62 0,-4.63 1.63,-8.51 4.88,-11.62 3.25,-3.11 7.4,-4.67 12.44,-4.67 4.91,0 8.96,1.56 12.15,4.67 3.19,3.11 4.78,6.98 4.78,11.62 0,4.63 -1.59,8.51 -4.78,11.62 -3.19,3.11 -7.23,4.67 -12.15,4.67z"/>
   <g>
    <path class="fil7" d="M919.22 9660.89c-9.47,-9.47 -20.76,-17.09 -33.26,-22.27 -12.05,-4.99 -25.3,-7.75 -39.21,-7.75 -13.92,0 -27.16,2.76 -39.22,7.75 -12.51,5.18 -23.8,12.8 -33.26,22.27 -9.46,9.47 -17.09,20.76 -22.27,33.26 -4.99,12.06 -7.75,25.3 -7.75,39.21 0,13.92 2.76,27.16 7.75,39.22 5.18,12.51 12.8,23.8 22.27,33.26 9.47,9.47 20.76,17.09 33.26,22.27 12.05,4.99 25.3,7.75 39.21,7.75 13.91,0 27.16,-2.76 39.21,-7.75 12.51,-5.18 23.8,-12.81 33.27,-22.27 9.47,-9.47 17.09,-20.76 22.27,-33.26 4.99,-12.05 7.75,-25.3 7.75,-39.21 0,-13.91 -2.76,-27.16 -7.75,-39.21 -5.18,-12.5 -12.8,-23.79 -22.27,-33.26zm-29.64 -31.07c13.74,5.69 26.09,14.01 36.4,24.31 10.3,10.31 18.63,22.66 24.32,36.4 5.47,13.21 8.5,27.69 8.5,42.83 0,15.15 -3.03,29.62 -8.5,42.83 -5.69,13.74 -14.02,26.09 -24.32,36.4 -10.3,10.3 -22.66,18.63 -36.4,24.32 -13.21,5.47 -27.69,8.5 -42.83,8.5 -15.14,0 -29.62,-3.02 -42.83,-8.5 -13.74,-5.69 -26.09,-14.01 -36.4,-24.32 -10.31,-10.3 -18.63,-22.65 -24.32,-36.39 -5.47,-13.22 -8.5,-27.69 -8.5,-42.84 0,-15.14 3.03,-29.62 8.5,-42.83 5.69,-13.74 14.01,-26.09 24.32,-36.39 10.31,-10.3 22.66,-18.63 36.39,-24.31 13.22,-5.47 27.7,-8.5 42.84,-8.5 15.14,0 29.62,3.03 42.83,8.5z"/>
    <path class="fil7" d="M833.85 9784.23l0 12.98 -3.14 -2.54c-0.48,-0.39 -12.02,-9.76 -23.72,-23.19 -16.14,-18.53 -24.32,-35.16 -24.32,-49.44l0 -1.41c0,-28.22 22.96,-51.18 51.19,-51.18 28.22,0 51.19,22.96 51.19,51.18l0 1.41c0,1.2 -0.07,2.42 -0.18,3.65l-10.01 -9.13c-2.05,-20.81 -19.65,-37.13 -41,-37.13 -22.72,0 -41.2,18.48 -41.2,41.2l0 1.41c0,24.12 31.07,53.32 41.2,62.19l0 0zm30.71 -7.17l14.98 0 0 -14.98 -14.98 0 0 14.98zm-30.71 -77.65c11.7,0 21.22,9.52 21.22,21.22 0,11.7 -9.52,21.22 -21.22,21.22 -11.7,0 -21.22,-9.52 -21.22,-21.22 0,-11.7 9.52,-21.22 21.22,-21.22zm0 9.98c-6.2,0 -11.24,5.04 -11.24,11.24 0,6.19 5.04,11.24 11.24,11.24 6.19,0 11.24,-5.04 11.24,-11.24 0,-6.2 -5.04,-11.24 -11.24,-11.24zm70.23 60.88l-2.81 -2.56 0 16.03c0,7.46 -6.07,13.54 -13.54,13.54l-31.62 0c-7.46,0 -13.54,-6.07 -13.54,-13.54l0 -16.03 -2.81 2.56 -6.73 -7.38 38.89 -35.48 38.89 35.48 -6.73 7.38zm-12.8 -11.67l-19.36 -17.67 -19.36 17.67 0 25.14c0,1.96 1.59,3.55 3.55,3.55l31.62 0c1.96,0 3.55,-1.59 3.55,-3.55l0 -25.14zm0 0z"/>
   </g>
  </g>
 </g>
</svg>