<?xml version="1.0" encoding="utf-8"?>
<!-- Generator: Adobe Illustrator 21.0.0, SVG Export Plug-In . SVG Version: 6.00 Build 0)  -->
<svg version="1.1" id="Layer_1" xmlns="http://www.w3.org/2000/svg" xmlns:xlink="http://www.w3.org/1999/xlink" x="0px" y="0px"
	 viewBox="0 0 512 512" style="enable-background:new 0 0 512 512;" xml:space="preserve">
<g>
	<path d="M491.1,202c-3.9-9.2-10.4-17-18.5-22.5c-4.1-2.8-8.6-4.9-13.4-6.4s-10-2.3-15.2-2.3H324.4V51.2c0-7-1.4-13.8-4-19.9
		c-3.9-9.2-10.4-17-18.5-22.5c-4.1-2.8-8.6-4.9-13.4-6.4s-10-2.3-15.2-2.3h-205v17v17.1h204.8c2.4,0,4.6,0.5,6.6,1.3
		c3,1.3,5.7,3.5,7.5,6.2c0.9,1.4,1.6,2.9,2.1,4.4c0.5,1.6,0.8,3.3,0.8,5.1v426.7H187.8v-51.2c0-9.4-7.6-17.1-17.1-17.1
		c-9.5,0-17.1,7.6-17.1,17.1v51.2H51.2V51.2c0-2.4,0.5-4.6,1.3-6.6c1.3-3,3.5-5.7,6.2-7.5c1.4-0.9,2.9-1.6,4.4-2.1
		c1.6-0.5,3.3-0.8,5.1-0.8V17.1V0c-7,0-13.8,1.4-19.9,4c-9.2,3.9-17,10.4-22.5,18.5c-2.8,4.1-4.9,8.6-6.4,13.4
		c-1.5,4.8-2.3,10-2.3,15.2v443.7c0,4.5,1.8,8.9,5,12.1c3.2,3.2,7.6,5,12.1,5h134c0.8,0.1,1.6,0.2,2.5,0.2c0.8,0,1.7-0.1,2.5-0.2
		H303c0.8,0,1.5,0,2.3-0.1c0.7,0.1,1.3,0.1,2,0.1H478c4.5,0,8.9-1.8,12.1-5s5-7.6,5-12.1V221.9C495.1,214.9,493.7,208.1,491.1,202z
		 M460.8,477.8H324.4v-48.6c1.2,8.3,8.3,14.6,16.9,14.6c9.4,0,17.1-7.7,17.1-17.1c0-9.4-7.7-17.1-17.1-17.1
		c-8.6,0-15.7,6.4-16.9,14.6v-80.4c1.2,8.3,8.3,14.6,16.9,14.6c9.4,0,17.1-7.7,17.1-17.1c0-9.4-7.7-17.1-17.1-17.1
		c-8.6,0-15.7,6.4-16.9,14.6v-80.3c1.2,8.3,8.3,14.6,16.9,14.6c9.4,0,17.1-7.7,17.1-17.1c0-9.4-7.7-17.1-17.1-17.1
		c-8.6,0-15.7,6.4-16.9,14.6v-48.7h119.4c2.4,0,4.6,0.5,6.6,1.3c3,1.3,5.7,3.5,7.5,6.2c0.9,1.4,1.6,2.9,2.1,4.4
		c0.5,1.6,0.8,3.3,0.8,5.1V477.8z"/>
	<path d="M68.5,428.9c1.2,9.3,9.8,15.9,19.1,14.7c7.6-1,13.7-7,14.7-14.7c0.2-1.4,0.2-2.9,0-4.4c-1.2-9.3-9.8-15.9-19.1-14.7
		S67.3,419.6,68.5,428.9z"/>
	<path d="M68.5,343.6c1.2,9.3,9.8,15.9,19.1,14.7c7.6-1,13.7-7.1,14.7-14.7c0.2-1.4,0.2-2.9,0-4.4c-1.2-9.3-9.8-15.9-19.1-14.7
		S67.3,334.3,68.5,343.6z"/>
	<path d="M68.5,258.2c1.2,9.3,9.8,15.9,19.1,14.7c7.6-1,13.7-7,14.7-14.7c0.2-1.4,0.2-2.9,0-4.4c-1.2-9.3-9.8-15.9-19.1-14.7
		S67.3,248.9,68.5,258.2z"/>
	<path d="M68.5,172.9c1.2,9.3,9.8,15.9,19.1,14.7c7.6-1,13.7-7,14.7-14.7c0.2-1.4,0.2-2.9,0-4.4c-1.2-9.3-9.8-15.9-19.1-14.7
		S67.3,163.6,68.5,172.9z"/>
	<path d="M87.6,102.3c7.6-1,13.7-7.1,14.7-14.7c0.2-1.4,0.2-2.9,0-4.4c-1.2-9.3-9.8-15.9-19.1-14.7s-15.9,9.8-14.7,19.1
		C69.7,96.9,78.3,103.5,87.6,102.3z"/>
	<path d="M153.8,343.6c1.2,9.3,9.8,15.9,19.1,14.7c7.7-1,13.7-7.1,14.7-14.7c0.2-1.4,0.2-2.9,0-4.4c-1.2-9.3-9.8-15.9-19.1-14.7
		S152.6,334.3,153.8,343.6z"/>
	<path d="M153.8,258.2c1.2,9.3,9.8,15.9,19.1,14.7c7.7-1,13.7-7,14.7-14.7c0.2-1.4,0.2-2.9,0-4.4c-1.2-9.3-9.8-15.9-19.1-14.7
		S152.6,248.9,153.8,258.2z"/>
	<path d="M153.8,172.9c1.2,9.3,9.8,15.9,19.1,14.7c7.7-1,13.7-7,14.7-14.7c0.2-1.4,0.2-2.9,0-4.4c-1.2-9.3-9.8-15.9-19.1-14.7
		S152.6,163.6,153.8,172.9z"/>
	<path d="M172.9,102.3c7.7-1,13.7-7.1,14.7-14.7c0.2-1.4,0.2-2.9,0-4.4c-1.2-9.3-9.8-15.9-19.1-14.7s-15.9,9.8-14.7,19.1
		C155,96.9,163.6,103.5,172.9,102.3z"/>
	<path d="M239.1,428.9c1.2,9.3,9.8,15.9,19.1,14.7c7.7-1,13.7-7,14.7-14.7c0.2-1.4,0.2-2.9,0-4.4c-1.2-9.3-9.8-15.9-19.1-14.7
		C244.5,411,237.9,419.6,239.1,428.9z"/>
	<path d="M239.1,343.6c1.2,9.3,9.8,15.9,19.1,14.7c7.7-1,13.7-7.1,14.7-14.7c0.2-1.4,0.2-2.9,0-4.4c-1.2-9.3-9.8-15.9-19.1-14.7
		C244.5,325.7,237.9,334.3,239.1,343.6z"/>
	<path d="M239.1,258.2c1.2,9.3,9.8,15.9,19.1,14.7c7.7-1,13.7-7,14.7-14.7c0.2-1.4,0.2-2.9,0-4.4c-1.2-9.3-9.8-15.9-19.1-14.7
		C244.5,240.3,237.9,248.9,239.1,258.2z"/>
	<ellipse transform="matrix(0.7071 -0.7071 0.7071 0.7071 -45.7082 231.0337)" cx="256" cy="170.7" rx="17" ry="17.1"/>
	<path d="M253.8,68.5c-9.3,1.2-15.9,9.8-14.7,19.1c1.2,9.3,9.8,15.9,19.1,14.7c7.7-1,13.7-7.1,14.7-14.7c0.2-1.4,0.2-2.9,0-4.4
		C271.7,73.9,263.1,67.3,253.8,68.5z"/>
	<circle cx="409.6" cy="426.7" r="17.1"/>
	<circle cx="409.6" cy="341.3" r="17.1"/>
	<circle cx="409.6" cy="256" r="17.1"/>
</g>
</svg>
