<svg
  width="16"
  height="16"
  viewBox="0 0 16 16"
  fill="#131126"
  xmlns="http://www.w3.org/2000/svg"
>
<path
    d="M17.796 7.78849L11.4997 14.0847L5.20346 7.78849C5.01544 7.60274 4.76155 7.49893 4.49724 7.49973C4.23294 7.50053 3.97969 7.60588 3.79279 7.79278C3.6059 7.97967 3.50055 8.23292 3.49975 8.49723C3.49895 8.76153 3.60276 9.01542 3.78851 9.20344L10.7923 16.2072C10.9799 16.3948 11.2344 16.5002 11.4997 16.5002C11.7651 16.5002 12.0196 16.3948 12.2072 16.2072L19.211 9.20344C19.3967 9.01542 19.5005 8.76153 19.4997 8.49722C19.4989 8.23292 19.3936 7.97967 19.2067 7.79278C19.0198 7.60588 18.7666 7.50053 18.5022 7.49973C18.2379 7.49893 17.9841 7.60274 17.796 7.78849Z"
  />
</svg>
