<svg xmlns="http://www.w3.org/2000/svg" width="32px" height="32px"  viewBox="0 0 24 24"><g>
                <path d="M18.435,3.06H5.565c-1.38,0-2.5,1.12-2.5,2.5v12.88c0,1.37,1.12,2.5,2.5,2.5h12.87
                    c1.38,0,2.5-1.13,2.5-2.5V5.56C20.935,4.18,19.815,3.06,18.435,3.06z M4.065,5.56c0-0.82,0.67-1.5,1.5-1.5h12.87
                    c0.83,0,1.5,0.68,1.5,1.5v8.66l-3.88-3.88c-0.58-0.58-1.53-0.58-2.12,0l-4.56,4.57c-0.2,0.19-0.52,0.19-0.71,0l-0.56-0.56
                    c-0.28-0.28-0.66-0.43-1.06-0.43c-0.4,0-0.78,0.15-1.06,0.43l-1.92,1.92V5.56z M19.935,18.44c0,0.82-0.67,1.5-1.5,1.5H5.565
                    c-0.83,0-1.5-0.68-1.5-1.5v-0.75l2.63-2.63c0.09-0.09,0.22-0.14,0.35-0.14c0.14,0,0.26,0.05,0.36,0.14l0.55,0.56
                    c0.59,0.58,1.54,0.58,2.12,0l4.57-4.57c0.19-0.2,0.51-0.2,0.71,0l4.58,4.58V18.44z"/>
                <path d="M8.062,10.565c-1.379,0-2.5-1.121-2.5-2.5s1.121-2.5,2.5-2.5s2.5,1.121,2.5,2.5
                    S9.441,10.565,8.062,10.565z M8.062,6.565c-0.827,0-1.5,0.673-1.5,1.5s0.673,1.5,1.5,1.5s1.5-0.673,1.5-1.5S8.89,6.565,8.062,6.565
                    z"/>
            </g></svg>