<svg xmlns="http://www.w3.org/2000/svg" width="32px" height="32px"  viewBox="0 0 24 24"><g>
                <path d="M21.45,7.5H9.99C9.77,6.64,8.99,6,8.06,6h-1C6.13,6,5.35,6.64,5.13,7.5H2.55
                    c-0.26,0-0.52,0.23-0.5,0.5c0.01,0.27,0.22,0.5,0.5,0.5h2.58c0.22,0.86,1,1.5,1.93,1.5h1c0.93,0,1.71-0.64,1.93-1.5h11.46
                    C22.1,8.5,22.1,7.5,21.45,7.5z M8.06,9h-1c-0.54,0-0.99-0.44-1-0.98c0-0.01,0-0.01,0-0.02c0-0.55,0.45-1,1-1h1c0.55,0,1,0.45,1,1
                    S8.61,9,8.06,9z"/>
                <path d="M21.45,15.5h-2.58c-0.22-0.86-1-1.5-1.93-1.5h-1c-0.93,0-1.71,0.64-1.93,1.5H2.55
                    c-0.65,0-0.65,1,0,1h11.46c0.22,0.86,1,1.5,1.93,1.5h1c0.93,0,1.71-0.64,1.93-1.5h2.58c0.26,0,0.52-0.23,0.5-0.5
                    C21.94,15.73,21.73,15.5,21.45,15.5z M17.94,16c0,0.55-0.45,1-1,1h-1c-0.55,0-1-0.45-1-1s0.45-1,1-1h1c0.54,0,0.99,0.44,1,0.98
                    C17.94,15.99,17.94,15.99,17.94,16z"/>
            </g></svg>